{
.appVersion = "1127";
DisplayStrings = (
"/zero-ar/zero-ar.medium/zero-ar.small/alef-ar/one-ar/one-ar.medium/one-ar.small/seen-ar.medi/two-ar/two-ar.medium/two-ar.small/three-ar/three-ar.medium/three-ar.small/four-ar/four-ar.medium/four-ar.small/heh-ar/five-ar/five-ar.medium/five-ar.small \012/six-ar/six-ar.medium/six-ar.small/seven-ar/seven-ar.medium/seven-ar.small/eight-ar/eight-ar.medium/eight-ar.small/nine-ar/nine-ar.medium/nine-ar.small/four-persian/four-persian.medium/four-persian.small/five-persian/five-persian.medium/five-persian.small/six-persian/six-persian.medium/six-persian.small",
"/kaf-ar  /lam-ar/kaf-ar.init/teh-ar.medi/beh-ar  /theh-ar.init/kaf-ar.medi/kaf-ar.fina/alef-ar/kaf-ar.init/keheh-ar.init/keheh-ar.fina  /keheh-ar  \012/kafswash-ar/kafswash-ar.fina/kafswash-ar.medi/kafswash-ar.init  /lam-ar/kaf-ar/noon-ar  /alef-ar/lam-ar/kaf-ar/lam-ar/alef-ar/meem-ar/yeh-ar \012/meem-ar/meem-ar.medi/meem-ar.fina/meem-ar  /meem-ar.sindhi/meem-ar/meem-ar.sindhi.fina/noonghunna-ar/noonghunna-ar.fina  /hehDoachashmee-ar.init/hehDoachashmee-ar.medi/ae-ar/ae-ar/waw-ar/waw-ar.fina \012/yeh-ar.noDots  /yeh-ar.noDots.fina/alef-ar/fehDotless-ar.medi/behDotless-ar.medi/dal-ar.fina/dal-ar/yehbarree-ar  /fehDotless-ar/yehbarree-ar.fina/fatha-ar/allah-ar/alef-ar/lam-ar/lam-ar/ae-ar",

glyphs = (
{
glyphname = .notdef;
layers = (
{
layerId = UUID0;
paths = (
{
closed = 1;
nodes = (
"274 -367 LINE",
"274 1203 LINE",
"1416 1203 LINE",
"1416 -367 LINE"
);
},
{
closed = 1;
nodes = (
"223 1254 LINE",
"223 -418 LINE",
"1467 -418 LINE",
"1467 1254 LINE"
);
},
{
closed = 1;
nodes = (
"955 1012 OFFCURVE",
"773 1012 CURVE SMOOTH",
"680 1012 OFFCURVE",
"597 962 OFFCURVE",
"497 838 CURVE",
"507 828 OFFCURVE",
"518 816 OFFCURVE",
"546 798 CURVE",
"641 854 OFFCURVE",
"685 869 OFFCURVE",
"731 869 CURVE SMOOTH",
"860 869 OFFCURVE",
"946 753 OFFCURVE",
"1053 647 CURVE",
"1016 652 OFFCURVE",
"981 654 OFFCURVE",
"947 654 CURVE SMOOTH",
"613 654 OFFCURVE",
"420 442 OFFCURVE",
"420 201 CURVE SMOOTH",
"420 -12 OFFCURVE",
"582 -219 OFFCURVE",
"917 -219 CURVE SMOOTH",
"955 -219 OFFCURVE",
"978 -215 OFFCURVE",
"996 -209 CURVE",
"1019 -182 OFFCURVE",
"1046 -130 OFFCURVE",
"1054 -80 CURVE",
"1018 -87 OFFCURVE",
"946 -90 OFFCURVE",
"918 -90 CURVE SMOOTH",
"696 -90 OFFCURVE",
"546 47 OFFCURVE",
"546 216 CURVE SMOOTH",
"546 434 OFFCURVE",
"740 528 OFFCURVE",
"960 528 CURVE SMOOTH",
"1040 528 OFFCURVE",
"1123 517 OFFCURVE",
"1201 494 CURVE",
"1227 508 OFFCURVE",
"1268 553 OFFCURVE",
"1283 585 CURVE",
"1070 791 OFFCURVE"
);
}
);
width = 1690;
},
{
layerId = "58C4FD73-E369-47FC-BB2E-BA826F97CEB5";
paths = (
{
closed = 1;
nodes = (
"274 -367 LINE",
"274 1203 LINE",
"1416 1203 LINE",
"1416 -367 LINE"
);
},
{
closed = 1;
nodes = (
"223 1254 LINE",
"223 -418 LINE",
"1467 -418 LINE",
"1467 1254 LINE"
);
},
{
closed = 1;
nodes = (
"955 1012 OFFCURVE",
"773 1012 CURVE SMOOTH",
"680 1012 OFFCURVE",
"597 962 OFFCURVE",
"497 838 CURVE",
"507 828 OFFCURVE",
"518 816 OFFCURVE",
"546 798 CURVE",
"641 854 OFFCURVE",
"685 869 OFFCURVE",
"731 869 CURVE SMOOTH",
"860 869 OFFCURVE",
"946 753 OFFCURVE",
"1053 647 CURVE",
"1016 652 OFFCURVE",
"981 654 OFFCURVE",
"947 654 CURVE SMOOTH",
"613 654 OFFCURVE",
"420 442 OFFCURVE",
"420 201 CURVE SMOOTH",
"420 -12 OFFCURVE",
"582 -219 OFFCURVE",
"917 -219 CURVE SMOOTH",
"955 -219 OFFCURVE",
"978 -215 OFFCURVE",
"996 -209 CURVE",
"1019 -182 OFFCURVE",
"1046 -130 OFFCURVE",
"1054 -80 CURVE",
"1018 -87 OFFCURVE",
"946 -90 OFFCURVE",
"918 -90 CURVE SMOOTH",
"696 -90 OFFCURVE",
"546 47 OFFCURVE",
"546 216 CURVE SMOOTH",
"546 434 OFFCURVE",
"740 528 OFFCURVE",
"960 528 CURVE SMOOTH",
"1040 528 OFFCURVE",
"1123 517 OFFCURVE",
"1201 494 CURVE",
"1227 508 OFFCURVE",
"1268 553 OFFCURVE",
"1283 585 CURVE",
"1070 791 OFFCURVE"
);
}
);
width = 1690;
}
);
},
{
glyphname = exclam;
layers = (
{
layerId = UUID0;
paths = (
{
closed = 1;
nodes = (
"341 545 OFFCURVE",
"337 805 OFFCURVE",
"366 1130 CURVE",
"176 1130 LINE",
"204 805 OFFCURVE",
"200 545 OFFCURVE",
"205 329 CURVE",
"336 329 LINE"
);
},
{
closed = 1;
nodes = (
"214 -19 OFFCURVE",
"269 -19 CURVE SMOOTH",
"324 -19 OFFCURVE",
"370 27 OFFCURVE",
"370 82 CURVE SMOOTH",
"370 138 OFFCURVE",
"324 183 OFFCURVE",
"269 183 CURVE SMOOTH",
"214 183 OFFCURVE",
"168 138 OFFCURVE",
"168 82 CURVE SMOOTH",
"168 27 OFFCURVE"
);
}
);
width = 572;
},
{
layerId = "58C4FD73-E369-47FC-BB2E-BA826F97CEB5";
paths = (
{
closed = 1;
nodes = (
"341 545 OFFCURVE",
"337 805 OFFCURVE",
"366 1130 CURVE",
"176 1130 LINE",
"204 805 OFFCURVE",
"200 545 OFFCURVE",
"205 329 CURVE",
"336 329 LINE"
);
},
{
closed = 1;
nodes = (
"214 -19 OFFCURVE",
"269 -19 CURVE SMOOTH",
"324 -19 OFFCURVE",
"370 27 OFFCURVE",
"370 82 CURVE SMOOTH",
"370 138 OFFCURVE",
"324 183 OFFCURVE",
"269 183 CURVE SMOOTH",
"214 183 OFFCURVE",
"168 138 OFFCURVE",
"168 82 CURVE SMOOTH",
"168 27 OFFCURVE"
);
}
);
width = 572;
}
);
unicode = 0021;
},
{
glyphname = quotedbl;
layers = (
{
layerId = UUID0;
paths = (
{
closed = 1;
nodes = (
"306 886 OFFCURVE",
"312 1001 OFFCURVE",
"333 1186 CURVE",
"180 1186 LINE",
"202 1001 OFFCURVE",
"206 886 OFFCURVE",
"209 782 CURVE",
"303 782 LINE"
);
},
{
closed = 1;
nodes = (
"560 886 OFFCURVE",
"565 1001 OFFCURVE",
"587 1186 CURVE",
"434 1186 LINE",
"457 1001 OFFCURVE",
"461 886 OFFCURVE",
"464 782 CURVE",
"558 782 LINE"
);
}
);
width = 767;
},
{
layerId = "58C4FD73-E369-47FC-BB2E-BA826F97CEB5";
paths = (
{
closed = 1;
nodes = (
"306 886 OFFCURVE",
"312 1001 OFFCURVE",
"333 1186 CURVE",
"180 1186 LINE",
"202 1001 OFFCURVE",
"206 886 OFFCURVE",
"209 782 CURVE",
"303 782 LINE"
);
},
{
closed = 1;
nodes = (
"560 886 OFFCURVE",
"565 1001 OFFCURVE",
"587 1186 CURVE",
"434 1186 LINE",
"457 1001 OFFCURVE",
"461 886 OFFCURVE",
"464 782 CURVE",
"558 782 LINE"
);
}
);
width = 767;
}
);
unicode = 0022;
},
{
glyphname = numbersign;
layers = (
{
layerId = UUID0;
paths = (
{
closed = 1;
nodes = (
"95 149 LINE",
"207 149 LINE",
"477 1092 LINE",
"364 1092 LINE"
);
},
{
closed = 1;
nodes = (
"835 430 LINE",
"835 542 LINE",
"19 542 LINE",
"19 430 LINE"
);
},
{
closed = 1;
nodes = (
"879 718 LINE",
"879 830 LINE",
"63 830 LINE",
"63 718 LINE"
);
},
{
closed = 1;
nodes = (
"413 149 LINE",
"524 149 LINE",
"794 1092 LINE",
"682 1092 LINE"
);
}
);
width = 898;
},
{
layerId = "58C4FD73-E369-47FC-BB2E-BA826F97CEB5";
paths = (
{
closed = 1;
nodes = (
"95 149 LINE",
"207 149 LINE",
"477 1092 LINE",
"364 1092 LINE"
);
},
{
closed = 1;
nodes = (
"835 430 LINE",
"835 542 LINE",
"19 542 LINE",
"19 430 LINE"
);
},
{
closed = 1;
nodes = (
"879 718 LINE",
"879 830 LINE",
"63 830 LINE",
"63 718 LINE"
);
},
{
closed = 1;
nodes = (
"413 149 LINE",
"524 149 LINE",
"794 1092 LINE",
"682 1092 LINE"
);
}
);
width = 898;
}
);
unicode = 0023;
},
{
glyphname = dollar;
layers = (
{
layerId = UUID0;
paths = (
{
closed = 1;
nodes = (
"414 -164 LINE",
"511 -164 LINE",
"511 1197 LINE",
"414 1197 LINE"
);
},
{
closed = 1;
nodes = (
"647 1020 OFFCURVE",
"572 1039 OFFCURVE",
"465 1039 CURVE SMOOTH",
"237 1039 OFFCURVE",
"142 878 OFFCURVE",
"142 761 CURVE SMOOTH",
"142 643 OFFCURVE",
"189 553 OFFCURVE",
"404 488 CURVE SMOOTH",
"618 424 OFFCURVE",
"652 368 OFFCURVE",
"652 296 CURVE SMOOTH",
"652 184 OFFCURVE",
"548 121 OFFCURVE",
"438 121 CURVE SMOOTH",
"336 121 OFFCURVE",
"237 155 OFFCURVE",
"145 235 CURVE",
"115 93 LINE",
"184 39 OFFCURVE",
"305 0 OFFCURVE",
"438 0 CURVE SMOOTH",
"626 0 OFFCURVE",
"782 124 OFFCURVE",
"782 309 CURVE SMOOTH",
"782 459 OFFCURVE",
"682 542 OFFCURVE",
"501 596 CURVE SMOOTH",
"303 654 OFFCURVE",
"274 695 OFFCURVE",
"274 770 CURVE SMOOTH",
"274 846 OFFCURVE",
"348 919 OFFCURVE",
"459 919 CURVE SMOOTH",
"546 919 OFFCURVE",
"612 898 OFFCURVE",
"711 843 CURVE",
"737 977 LINE"
);
}
);
width = 898;
},
{
layerId = "58C4FD73-E369-47FC-BB2E-BA826F97CEB5";
paths = (
{
closed = 1;
nodes = (
"414 -164 LINE",
"511 -164 LINE",
"511 1197 LINE",
"414 1197 LINE"
);
},
{
closed = 1;
nodes = (
"647 1020 OFFCURVE",
"572 1039 OFFCURVE",
"465 1039 CURVE SMOOTH",
"237 1039 OFFCURVE",
"142 878 OFFCURVE",
"142 761 CURVE SMOOTH",
"142 643 OFFCURVE",
"189 553 OFFCURVE",
"404 488 CURVE SMOOTH",
"618 424 OFFCURVE",
"652 368 OFFCURVE",
"652 296 CURVE SMOOTH",
"652 184 OFFCURVE",
"548 121 OFFCURVE",
"438 121 CURVE SMOOTH",
"336 121 OFFCURVE",
"237 155 OFFCURVE",
"145 235 CURVE",
"115 93 LINE",
"184 39 OFFCURVE",
"305 0 OFFCURVE",
"438 0 CURVE SMOOTH",
"626 0 OFFCURVE",
"782 124 OFFCURVE",
"782 309 CURVE SMOOTH",
"782 459 OFFCURVE",
"682 542 OFFCURVE",
"501 596 CURVE SMOOTH",
"303 654 OFFCURVE",
"274 695 OFFCURVE",
"274 770 CURVE SMOOTH",
"274 846 OFFCURVE",
"348 919 OFFCURVE",
"459 919 CURVE SMOOTH",
"546 919 OFFCURVE",
"612 898 OFFCURVE",
"711 843 CURVE",
"737 977 LINE"
);
}
);
width = 898;
}
);
unicode = 0024;
},
{
glyphname = percent;
layers = (
{
layerId = UUID0;
paths = (
{
closed = 1;
nodes = (
"910 85 OFFCURVE",
"845 85 CURVE SMOOTH",
"779 85 OFFCURVE",
"750 136 OFFCURVE",
"750 285 CURVE SMOOTH",
"750 423 OFFCURVE",
"780 471 OFFCURVE",
"845 471 CURVE SMOOTH",
"914 471 OFFCURVE",
"943 423 OFFCURVE",
"943 274 CURVE SMOOTH",
"943 136 OFFCURVE"
);
},
{
closed = 1;
nodes = (
"979 576 OFFCURVE",
"849 576 CURVE SMOOTH",
"719 576 OFFCURVE",
"625 485 OFFCURVE",
"625 275 CURVE SMOOTH",
"625 64 OFFCURVE",
"712 -19 OFFCURVE",
"842 -19 CURVE SMOOTH",
"974 -19 OFFCURVE",
"1066 63 OFFCURVE",
"1066 283 CURVE SMOOTH",
"1066 487 OFFCURVE"
);
},
{
closed = 1;
nodes = (
"218 -19 LINE",
"343 -19 LINE",
"926 1107 LINE",
"803 1107 LINE"
);
},
{
closed = 1;
nodes = (
"359 617 OFFCURVE",
"294 617 CURVE SMOOTH",
"228 617 OFFCURVE",
"199 666 OFFCURVE",
"199 816 CURVE SMOOTH",
"199 954 OFFCURVE",
"229 1002 OFFCURVE",
"294 1002 CURVE SMOOTH",
"363 1002 OFFCURVE",
"393 955 OFFCURVE",
"393 805 CURVE SMOOTH",
"393 667 OFFCURVE"
);
},
{
closed = 1;
nodes = (
"428 1107 OFFCURVE",
"298 1107 CURVE SMOOTH",
"168 1107 OFFCURVE",
"75 1017 OFFCURVE",
"75 806 CURVE SMOOTH",
"75 596 OFFCURVE",
"161 513 OFFCURVE",
"292 513 CURVE SMOOTH",
"423 513 OFFCURVE",
"516 594 OFFCURVE",
"516 815 CURVE SMOOTH",
"516 1018 OFFCURVE"
);
}
);
width = 1141;
},
{
layerId = "58C4FD73-E369-47FC-BB2E-BA826F97CEB5";
paths = (
{
closed = 1;
nodes = (
"910 85 OFFCURVE",
"845 85 CURVE SMOOTH",
"779 85 OFFCURVE",
"750 136 OFFCURVE",
"750 285 CURVE SMOOTH",
"750 423 OFFCURVE",
"780 471 OFFCURVE",
"845 471 CURVE SMOOTH",
"914 471 OFFCURVE",
"943 423 OFFCURVE",
"943 274 CURVE SMOOTH",
"943 136 OFFCURVE"
);
},
{
closed = 1;
nodes = (
"979 576 OFFCURVE",
"849 576 CURVE SMOOTH",
"719 576 OFFCURVE",
"625 485 OFFCURVE",
"625 275 CURVE SMOOTH",
"625 64 OFFCURVE",
"712 -19 OFFCURVE",
"842 -19 CURVE SMOOTH",
"974 -19 OFFCURVE",
"1066 63 OFFCURVE",
"1066 283 CURVE SMOOTH",
"1066 487 OFFCURVE"
);
},
{
closed = 1;
nodes = (
"218 -19 LINE",
"343 -19 LINE",
"926 1107 LINE",
"803 1107 LINE"
);
},
{
closed = 1;
nodes = (
"359 617 OFFCURVE",
"294 617 CURVE SMOOTH",
"228 617 OFFCURVE",
"199 666 OFFCURVE",
"199 816 CURVE SMOOTH",
"199 954 OFFCURVE",
"229 1002 OFFCURVE",
"294 1002 CURVE SMOOTH",
"363 1002 OFFCURVE",
"393 955 OFFCURVE",
"393 805 CURVE SMOOTH",
"393 667 OFFCURVE"
);
},
{
closed = 1;
nodes = (
"428 1107 OFFCURVE",
"298 1107 CURVE SMOOTH",
"168 1107 OFFCURVE",
"75 1017 OFFCURVE",
"75 806 CURVE SMOOTH",
"75 596 OFFCURVE",
"161 513 OFFCURVE",
"292 513 CURVE SMOOTH",
"423 513 OFFCURVE",
"516 594 OFFCURVE",
"516 815 CURVE SMOOTH",
"516 1018 OFFCURVE"
);
}
);
width = 1141;
}
);
unicode = 0025;
},
{
glyphname = ampersand;
layers = (
{
layerId = UUID0;
paths = (
{
closed = 1;
nodes = (
"116 1056 OFFCURVE",
"116 890 CURVE SMOOTH",
"116 755 OFFCURVE",
"271 610 OFFCURVE",
"400 426 CURVE SMOOTH",
"594 151 OFFCURVE",
"728 -19 OFFCURVE",
"767 -19 CURVE SMOOTH",
"793 -19 OFFCURVE",
"851 28 OFFCURVE",
"879 52 CURVE",
"807 82 OFFCURVE",
"683 222 OFFCURVE",
"485 508 CURVE SMOOTH",
"369 677 OFFCURVE",
"236 804 OFFCURVE",
"236 898 CURVE SMOOTH",
"236 965 OFFCURVE",
"297 1010 OFFCURVE",
"355 1010 CURVE SMOOTH",
"415 1010 OFFCURVE",
"471 967 OFFCURVE",
"471 902 CURVE SMOOTH",
"471 835 OFFCURVE",
"391 750 OFFCURVE",
"261 628 CURVE SMOOTH",
"108 486 OFFCURVE",
"41 394 OFFCURVE",
"41 280 CURVE SMOOTH",
"41 113 OFFCURVE",
"162 -19 OFFCURVE",
"329 -19 CURVE SMOOTH",
"534 -19 OFFCURVE",
"750 204 OFFCURVE",
"807 325 CURVE",
"730 426 LINE",
"681 301 OFFCURVE",
"471 112 OFFCURVE",
"340 112 CURVE SMOOTH",
"232 112 OFFCURVE",
"172 199 OFFCURVE",
"172 284 CURVE SMOOTH",
"172 366 OFFCURVE",
"221 439 OFFCURVE",
"351 554 CURVE SMOOTH",
"486 673 OFFCURVE",
"591 799 OFFCURVE",
"591 898 CURVE SMOOTH",
"591 1034 OFFCURVE",
"480 1111 OFFCURVE",
"366 1111 CURVE SMOOTH",
"247 1111 OFFCURVE"
);
}
);
width = 914;
},
{
layerId = "58C4FD73-E369-47FC-BB2E-BA826F97CEB5";
paths = (
{
closed = 1;
nodes = (
"116 1056 OFFCURVE",
"116 890 CURVE SMOOTH",
"116 755 OFFCURVE",
"271 610 OFFCURVE",
"400 426 CURVE SMOOTH",
"594 151 OFFCURVE",
"728 -19 OFFCURVE",
"767 -19 CURVE SMOOTH",
"793 -19 OFFCURVE",
"851 28 OFFCURVE",
"879 52 CURVE",
"807 82 OFFCURVE",
"683 222 OFFCURVE",
"485 508 CURVE SMOOTH",
"369 677 OFFCURVE",
"236 804 OFFCURVE",
"236 898 CURVE SMOOTH",
"236 965 OFFCURVE",
"297 1010 OFFCURVE",
"355 1010 CURVE SMOOTH",
"415 1010 OFFCURVE",
"471 967 OFFCURVE",
"471 902 CURVE SMOOTH",
"471 835 OFFCURVE",
"391 750 OFFCURVE",
"261 628 CURVE SMOOTH",
"108 486 OFFCURVE",
"41 394 OFFCURVE",
"41 280 CURVE SMOOTH",
"41 113 OFFCURVE",
"162 -19 OFFCURVE",
"329 -19 CURVE SMOOTH",
"534 -19 OFFCURVE",
"750 204 OFFCURVE",
"807 325 CURVE",
"730 426 LINE",
"681 301 OFFCURVE",
"471 112 OFFCURVE",
"340 112 CURVE SMOOTH",
"232 112 OFFCURVE",
"172 199 OFFCURVE",
"172 284 CURVE SMOOTH",
"172 366 OFFCURVE",
"221 439 OFFCURVE",
"351 554 CURVE SMOOTH",
"486 673 OFFCURVE",
"591 799 OFFCURVE",
"591 898 CURVE SMOOTH",
"591 1034 OFFCURVE",
"480 1111 OFFCURVE",
"366 1111 CURVE SMOOTH",
"247 1111 OFFCURVE"
);
}
);
width = 914;
}
);
unicode = 0026;
},
{
glyphname = quotesingle;
layers = (
{
layerId = UUID0;
paths = (
{
closed = 1;
nodes = (
"276 886 OFFCURVE",
"281 1001 OFFCURVE",
"303 1186 CURVE",
"149 1186 LINE",
"173 1001 OFFCURVE",
"177 886 OFFCURVE",
"180 782 CURVE",
"274 782 LINE"
);
}
);
width = 393;
},
{
layerId = "58C4FD73-E369-47FC-BB2E-BA826F97CEB5";
paths = (
{
closed = 1;
nodes = (
"276 886 OFFCURVE",
"281 1001 OFFCURVE",
"303 1186 CURVE",
"149 1186 LINE",
"173 1001 OFFCURVE",
"177 886 OFFCURVE",
"180 782 CURVE",
"274 782 LINE"
);
}
);
width = 393;
}
);
unicode = 0027;
},
{
glyphname = parenleft;
layers = (
{
layerId = UUID0;
paths = (
{
closed = 1;
nodes = (
"195 -94 OFFCURVE",
"400 -307 CURVE",
"471 -199 LINE",
"295 -6 OFFCURVE",
"228 207 OFFCURVE",
"228 467 CURVE SMOOTH",
"228 734 OFFCURVE",
"295 958 OFFCURVE",
"471 1111 CURVE",
"415 1226 LINE",
"217 1080 OFFCURVE",
"85 794 OFFCURVE",
"85 467 CURVE SMOOTH",
"85 162 OFFCURVE"
);
}
);
width = 595;
},
{
layerId = "58C4FD73-E369-47FC-BB2E-BA826F97CEB5";
paths = (
{
closed = 1;
nodes = (
"195 -94 OFFCURVE",
"400 -307 CURVE",
"471 -199 LINE",
"295 -6 OFFCURVE",
"228 207 OFFCURVE",
"228 467 CURVE SMOOTH",
"228 734 OFFCURVE",
"295 958 OFFCURVE",
"471 1111 CURVE",
"415 1226 LINE",
"217 1080 OFFCURVE",
"85 794 OFFCURVE",
"85 467 CURVE SMOOTH",
"85 162 OFFCURVE"
);
}
);
width = 595;
}
);
unicode = 0028;
},
{
glyphname = parenright;
layers = (
{
layerId = UUID0;
paths = (
{
closed = 1;
nodes = (
"378 1080 OFFCURVE",
"180 1226 CURVE",
"123 1111 LINE",
"292 958 OFFCURVE",
"366 719 OFFCURVE",
"366 467 CURVE SMOOTH",
"366 207 OFFCURVE",
"292 -6 OFFCURVE",
"123 -199 CURVE",
"195 -307 LINE",
"400 -94 OFFCURVE",
"508 162 OFFCURVE",
"508 467 CURVE SMOOTH",
"508 794 OFFCURVE"
);
}
);
width = 595;
},
{
layerId = "58C4FD73-E369-47FC-BB2E-BA826F97CEB5";
paths = (
{
closed = 1;
nodes = (
"378 1080 OFFCURVE",
"180 1226 CURVE",
"123 1111 LINE",
"292 958 OFFCURVE",
"366 719 OFFCURVE",
"366 467 CURVE SMOOTH",
"366 207 OFFCURVE",
"292 -6 OFFCURVE",
"123 -199 CURVE",
"195 -307 LINE",
"400 -94 OFFCURVE",
"508 162 OFFCURVE",
"508 467 CURVE SMOOTH",
"508 794 OFFCURVE"
);
}
);
width = 595;
}
);
unicode = 0029;
},
{
glyphname = asterisk;
layers = (
{
layerId = UUID0;
paths = (
{
closed = 1;
nodes = (
"324 1097 OFFCURVE",
"334 1037 OFFCURVE",
"336 973 CURVE",
"281 1005 OFFCURVE",
"232 1037 OFFCURVE",
"149 1096 CURVE",
"94 1002 LINE",
"186 964 OFFCURVE",
"244 943 OFFCURVE",
"303 913 CURVE",
"246 881 OFFCURVE",
"192 853 OFFCURVE",
"101 812 CURVE",
"154 718 LINE",
"232 779 OFFCURVE",
"282 818 OFFCURVE",
"336 853 CURVE",
"335 789 OFFCURVE",
"331 728 OFFCURVE",
"321 628 CURVE",
"426 628 LINE",
"411 728 OFFCURVE",
"407 787 OFFCURVE",
"404 853 CURVE",
"459 819 OFFCURVE",
"510 788 OFFCURVE",
"591 730 CURVE",
"647 823 LINE",
"553 860 OFFCURVE",
"496 882 OFFCURVE",
"438 913 CURVE",
"495 943 OFFCURVE",
"548 972 OFFCURVE",
"639 1014 CURVE",
"587 1107 LINE",
"508 1044 OFFCURVE",
"459 1009 OFFCURVE",
"404 973 CURVE",
"405 1037 OFFCURVE",
"408 1097 OFFCURVE",
"419 1197 CURVE",
"311 1197 LINE"
);
}
);
width = 769;
},
{
layerId = "58C4FD73-E369-47FC-BB2E-BA826F97CEB5";
paths = (
{
closed = 1;
nodes = (
"324 1097 OFFCURVE",
"334 1037 OFFCURVE",
"336 973 CURVE",
"281 1005 OFFCURVE",
"232 1037 OFFCURVE",
"149 1096 CURVE",
"94 1002 LINE",
"186 964 OFFCURVE",
"244 943 OFFCURVE",
"303 913 CURVE",
"246 881 OFFCURVE",
"192 853 OFFCURVE",
"101 812 CURVE",
"154 718 LINE",
"232 779 OFFCURVE",
"282 818 OFFCURVE",
"336 853 CURVE",
"335 789 OFFCURVE",
"331 728 OFFCURVE",
"321 628 CURVE",
"426 628 LINE",
"411 728 OFFCURVE",
"407 787 OFFCURVE",
"404 853 CURVE",
"459 819 OFFCURVE",
"510 788 OFFCURVE",
"591 730 CURVE",
"647 823 LINE",
"553 860 OFFCURVE",
"496 882 OFFCURVE",
"438 913 CURVE",
"495 943 OFFCURVE",
"548 972 OFFCURVE",
"639 1014 CURVE",
"587 1107 LINE",
"508 1044 OFFCURVE",
"459 1009 OFFCURVE",
"404 973 CURVE",
"405 1037 OFFCURVE",
"408 1097 OFFCURVE",
"419 1197 CURVE",
"311 1197 LINE"
);
}
);
width = 769;
}
);
unicode = 002A;
},
{
glyphname = plus;
layers = (
{
layerId = UUID0;
paths = (
{
closed = 1;
nodes = (
"393 214 LINE",
"504 214 LINE",
"504 883 LINE",
"393 883 LINE"
);
},
{
closed = 1;
nodes = (
"782 494 LINE",
"782 605 LINE",
"116 605 LINE",
"116 494 LINE"
);
}
);
width = 898;
},
{
layerId = "58C4FD73-E369-47FC-BB2E-BA826F97CEB5";
paths = (
{
closed = 1;
nodes = (
"393 214 LINE",
"504 214 LINE",
"504 883 LINE",
"393 883 LINE"
);
},
{
closed = 1;
nodes = (
"782 494 LINE",
"782 605 LINE",
"116 605 LINE",
"116 494 LINE"
);
}
);
width = 898;
}
);
unicode = 002B;
},
{
glyphname = comma;
layers = (
{
layerId = UUID0;
paths = (
{
closed = 1;
nodes = (
"243 37 LINE",
"243 -38 OFFCURVE",
"185 -128 OFFCURVE",
"142 -173 CURVE",
"217 -202 LINE",
"304 -120 OFFCURVE",
"348 -28 OFFCURVE",
"348 64 CURVE SMOOTH",
"348 139 OFFCURVE",
"299 186 OFFCURVE",
"239 186 CURVE SMOOTH",
"197 186 OFFCURVE",
"147 160 OFFCURVE",
"139 112 CURVE",
"139 37 LINE"
);
}
);
width = 485;
},
{
layerId = "58C4FD73-E369-47FC-BB2E-BA826F97CEB5";
paths = (
{
closed = 1;
nodes = (
"243 37 LINE",
"243 -38 OFFCURVE",
"185 -128 OFFCURVE",
"142 -173 CURVE",
"217 -202 LINE",
"304 -120 OFFCURVE",
"348 -28 OFFCURVE",
"348 64 CURVE SMOOTH",
"348 139 OFFCURVE",
"299 186 OFFCURVE",
"239 186 CURVE SMOOTH",
"197 186 OFFCURVE",
"147 160 OFFCURVE",
"139 112 CURVE",
"139 37 LINE"
);
}
);
width = 485;
}
);
unicode = 002C;
},
{
glyphname = hyphentwo;
layers = (
{
layerId = UUID0;
paths = (
{
closed = 1;
nodes = (
"63 577 LINE",
"63 487 LINE",
"876 487 LINE",
"876 577 LINE"
);
}
);
width = 939;
},
{
layerId = "58C4FD73-E369-47FC-BB2E-BA826F97CEB5";
paths = (
{
closed = 1;
nodes = (
"63 577 LINE",
"63 487 LINE",
"876 487 LINE",
"876 577 LINE"
);
}
);
width = 939;
}
);
unicode = 2010;
},
{
glyphname = hyphen;
layers = (
{
anchors = (
{
name = U;
position = "{430, 1100}";
}
);
layerId = UUID0;
paths = (
{
closed = 1;
nodes = (
"780 555 LINE",
"780 705 LINE",
"80 705 LINE",
"80 555 LINE"
);
}
);
width = 860;
},
{
anchors = (
{
name = U;
position = "{430, 1100}";
}
);
layerId = "58C4FD73-E369-47FC-BB2E-BA826F97CEB5";
paths = (
{
closed = 1;
nodes = (
"780 555 LINE",
"780 705 LINE",
"80 705 LINE",
"80 555 LINE"
);
}
);
width = 860;
}
);
unicode = 002D;
},
{
glyphname = period;
layers = (
{
layerId = UUID0;
paths = (
{
closed = 1;
nodes = (
"183 -19 OFFCURVE",
"239 -19 CURVE SMOOTH",
"294 -19 OFFCURVE",
"340 27 OFFCURVE",
"340 82 CURVE SMOOTH",
"340 138 OFFCURVE",
"294 183 OFFCURVE",
"239 183 CURVE SMOOTH",
"183 183 OFFCURVE",
"139 138 OFFCURVE",
"139 82 CURVE SMOOTH",
"139 27 OFFCURVE"
);
}
);
width = 479;
},
{
layerId = "58C4FD73-E369-47FC-BB2E-BA826F97CEB5";
paths = (
{
closed = 1;
nodes = (
"183 -19 OFFCURVE",
"239 -19 CURVE SMOOTH",
"294 -19 OFFCURVE",
"340 27 OFFCURVE",
"340 82 CURVE SMOOTH",
"340 138 OFFCURVE",
"294 183 OFFCURVE",
"239 183 CURVE SMOOTH",
"183 183 OFFCURVE",
"139 138 OFFCURVE",
"139 82 CURVE SMOOTH",
"139 27 OFFCURVE"
);
}
);
width = 479;
}
);
unicode = 002E;
},
{
glyphname = period.test;
layers = (
{
layerId = UUID0;
paths = (
{
closed = 1;
nodes = (
"183 -19 OFFCURVE",
"239 -19 CURVE SMOOTH",
"294 -19 OFFCURVE",
"340 27 OFFCURVE",
"340 82 CURVE SMOOTH",
"340 138 OFFCURVE",
"294 183 OFFCURVE",
"239 183 CURVE SMOOTH",
"183 183 OFFCURVE",
"139 138 OFFCURVE",
"139 82 CURVE SMOOTH",
"139 27 OFFCURVE"
);
},
{
closed = 1;
nodes = (
"449 966 LINE",
"449 -371 LINE",
"30 -371 LINE",
"30 966 LINE"
);
}
);
width = 479;
},
{
layerId = "58C4FD73-E369-47FC-BB2E-BA826F97CEB5";
paths = (
{
closed = 1;
nodes = (
"183 -19 OFFCURVE",
"239 -19 CURVE SMOOTH",
"294 -19 OFFCURVE",
"340 27 OFFCURVE",
"340 82 CURVE SMOOTH",
"340 138 OFFCURVE",
"294 183 OFFCURVE",
"239 183 CURVE SMOOTH",
"183 183 OFFCURVE",
"139 138 OFFCURVE",
"139 82 CURVE SMOOTH",
"139 27 OFFCURVE"
);
},
{
closed = 1;
nodes = (
"449 966 LINE",
"449 -371 LINE",
"30 -371 LINE",
"30 966 LINE"
);
}
);
width = 479;
}
);
},
{
glyphname = slash;
layers = (
{
layerId = UUID0;
paths = (
{
closed = 1;
nodes = (
"7 -183 LINE",
"120 -183 LINE",
"740 1197 LINE",
"628 1197 LINE"
);
}
);
width = 748;
},
{
layerId = "58C4FD73-E369-47FC-BB2E-BA826F97CEB5";
paths = (
{
closed = 1;
nodes = (
"7 -183 LINE",
"120 -183 LINE",
"740 1197 LINE",
"628 1197 LINE"
);
}
);
width = 748;
}
);
unicode = 002F;
},
{
glyphname = zero;
layers = (
{
layerId = UUID0;
paths = (
{
closed = 1;
nodes = (
"593 108 OFFCURVE",
"448 108 CURVE SMOOTH",
"300 108 OFFCURVE",
"217 228 OFFCURVE",
"217 558 CURVE SMOOTH",
"217 863 OFFCURVE",
"304 983 OFFCURVE",
"448 983 CURVE SMOOTH",
"599 983 OFFCURVE",
"680 864 OFFCURVE",
"680 535 CURVE SMOOTH",
"680 231 OFFCURVE"
);
},
{
closed = 1;
nodes = (
"674 1111 OFFCURVE",
"456 1111 CURVE SMOOTH",
"240 1111 OFFCURVE",
"66 959 OFFCURVE",
"66 539 CURVE SMOOTH",
"66 116 OFFCURVE",
"225 -19 OFFCURVE",
"441 -19 CURVE SMOOTH",
"659 -19 OFFCURVE",
"830 113 OFFCURVE",
"830 554 CURVE SMOOTH",
"830 961 OFFCURVE"
);
}
);
width = 896;
},
{
layerId = "58C4FD73-E369-47FC-BB2E-BA826F97CEB5";
paths = (
{
closed = 1;
nodes = (
"593 108 OFFCURVE",
"448 108 CURVE SMOOTH",
"300 108 OFFCURVE",
"217 228 OFFCURVE",
"217 558 CURVE SMOOTH",
"217 863 OFFCURVE",
"304 983 OFFCURVE",
"448 983 CURVE SMOOTH",
"599 983 OFFCURVE",
"680 864 OFFCURVE",
"680 535 CURVE SMOOTH",
"680 231 OFFCURVE"
);
},
{
closed = 1;
nodes = (
"674 1111 OFFCURVE",
"456 1111 CURVE SMOOTH",
"240 1111 OFFCURVE",
"66 959 OFFCURVE",
"66 539 CURVE SMOOTH",
"66 116 OFFCURVE",
"225 -19 OFFCURVE",
"441 -19 CURVE SMOOTH",
"659 -19 OFFCURVE",
"830 113 OFFCURVE",
"830 554 CURVE SMOOTH",
"830 961 OFFCURVE"
);
}
);
width = 896;
}
);
unicode = 0030;
},
{
glyphname = zero.medium;
layers = (
{
anchors = (
{
name = _digit;
position = "{0, 0}";
},
{
name = digit;
position = "{674, 0}";
}
);
layerId = UUID0;
paths = (
{
closed = 1;
nodes = (
"446 331 OFFCURVE",
"337 331 CURVE SMOOTH",
"226 331 OFFCURVE",
"164 421 OFFCURVE",
"164 668 CURVE SMOOTH",
"164 897 OFFCURVE",
"229 987 OFFCURVE",
"337 987 CURVE SMOOTH",
"450 987 OFFCURVE",
"511 898 OFFCURVE",
"511 651 CURVE SMOOTH",
"511 423 OFFCURVE"
);
},
{
closed = 1;
nodes = (
"506 1083 OFFCURVE",
"343 1083 CURVE SMOOTH",
"181 1083 OFFCURVE",
"50 969 OFFCURVE",
"50 654 CURVE SMOOTH",
"50 337 OFFCURVE",
"170 236 OFFCURVE",
"332 236 CURVE SMOOTH",
"495 236 OFFCURVE",
"623 335 OFFCURVE",
"623 665 CURVE SMOOTH",
"623 971 OFFCURVE"
);
}
);
width = 674;
},
{
anchors = (
{
name = _digit;
position = "{0, 0}";
},
{
name = digit;
position = "{674, 0}";
}
);
layerId = "58C4FD73-E369-47FC-BB2E-BA826F97CEB5";
paths = (
{
closed = 1;
nodes = (
"446 331 OFFCURVE",
"337 331 CURVE SMOOTH",
"226 331 OFFCURVE",
"164 421 OFFCURVE",
"164 668 CURVE SMOOTH",
"164 897 OFFCURVE",
"229 987 OFFCURVE",
"337 987 CURVE SMOOTH",
"450 987 OFFCURVE",
"511 898 OFFCURVE",
"511 651 CURVE SMOOTH",
"511 423 OFFCURVE"
);
},
{
closed = 1;
nodes = (
"506 1083 OFFCURVE",
"343 1083 CURVE SMOOTH",
"181 1083 OFFCURVE",
"50 969 OFFCURVE",
"50 654 CURVE SMOOTH",
"50 337 OFFCURVE",
"170 236 OFFCURVE",
"332 236 CURVE SMOOTH",
"495 236 OFFCURVE",
"623 335 OFFCURVE",
"623 665 CURVE SMOOTH",
"623 971 OFFCURVE"
);
}
);
width = 674;
}
);
},
{
glyphname = zero.small;
layers = (
{
anchors = (
{
name = _digit;
position = "{0, 0}";
},
{
name = digit;
position = "{494, 0}";
}
);
layerId = UUID0;
paths = (
{
closed = 1;
nodes = (
"326 429 OFFCURVE",
"246 429 CURVE SMOOTH",
"165 429 OFFCURVE",
"119 495 OFFCURVE",
"119 677 CURVE SMOOTH",
"119 845 OFFCURVE",
"167 911 OFFCURVE",
"246 911 CURVE SMOOTH",
"329 911 OFFCURVE",
"374 845 OFFCURVE",
"374 664 CURVE SMOOTH",
"374 497 OFFCURVE"
);
},
{
closed = 1;
nodes = (
"371 981 OFFCURVE",
"251 981 CURVE SMOOTH",
"132 981 OFFCURVE",
"36 897 OFFCURVE",
"36 666 CURVE SMOOTH",
"36 434 OFFCURVE",
"124 360 OFFCURVE",
"243 360 CURVE SMOOTH",
"362 360 OFFCURVE",
"457 432 OFFCURVE",
"457 675 CURVE SMOOTH",
"457 899 OFFCURVE"
);
}
);
width = 494;
},
{
anchors = (
{
name = _digit;
position = "{0, 0}";
},
{
name = digit;
position = "{494, 0}";
}
);
layerId = "58C4FD73-E369-47FC-BB2E-BA826F97CEB5";
paths = (
{
closed = 1;
nodes = (
"326 429 OFFCURVE",
"246 429 CURVE SMOOTH",
"165 429 OFFCURVE",
"119 495 OFFCURVE",
"119 677 CURVE SMOOTH",
"119 845 OFFCURVE",
"167 911 OFFCURVE",
"246 911 CURVE SMOOTH",
"329 911 OFFCURVE",
"374 845 OFFCURVE",
"374 664 CURVE SMOOTH",
"374 497 OFFCURVE"
);
},
{
closed = 1;
nodes = (
"371 981 OFFCURVE",
"251 981 CURVE SMOOTH",
"132 981 OFFCURVE",
"36 897 OFFCURVE",
"36 666 CURVE SMOOTH",
"36 434 OFFCURVE",
"124 360 OFFCURVE",
"243 360 CURVE SMOOTH",
"362 360 OFFCURVE",
"457 432 OFFCURVE",
"457 675 CURVE SMOOTH",
"457 899 OFFCURVE"
);
}
);
width = 494;
}
);
},
{
glyphname = one;
layers = (
{
layerId = UUID0;
paths = (
{
closed = 1;
nodes = (
"411 1092 LINE",
"176 939 LINE",
"195 804 LINE",
"411 942 LINE",
"411 0 LINE",
"568 0 LINE",
"559 82 OFFCURVE",
"554 258 OFFCURVE",
"554 355 CURVE SMOOTH",
"554 1092 LINE"
);
}
);
width = 896;
},
{
layerId = "58C4FD73-E369-47FC-BB2E-BA826F97CEB5";
paths = (
{
closed = 1;
nodes = (
"411 1092 LINE",
"176 939 LINE",
"195 804 LINE",
"411 942 LINE",
"411 0 LINE",
"568 0 LINE",
"559 82 OFFCURVE",
"554 258 OFFCURVE",
"554 355 CURVE SMOOTH",
"554 1092 LINE"
);
}
);
width = 896;
}
);
unicode = 0031;
},
{
glyphname = one.medium;
layers = (
{
anchors = (
{
name = _digit;
position = "{0, 0}";
},
{
name = digit;
position = "{674, 0}";
}
);
layerId = UUID0;
paths = (
{
closed = 1;
nodes = (
"308 1069 LINE",
"132 954 LINE",
"146 853 LINE",
"308 956 LINE",
"308 250 LINE",
"426 250 LINE",
"419 311 OFFCURVE",
"415 443 OFFCURVE",
"415 516 CURVE SMOOTH",
"415 1069 LINE"
);
}
);
width = 674;
},
{
anchors = (
{
name = _digit;
position = "{0, 0}";
},
{
name = digit;
position = "{674, 0}";
}
);
layerId = "58C4FD73-E369-47FC-BB2E-BA826F97CEB5";
paths = (
{
closed = 1;
nodes = (
"308 1069 LINE",
"132 954 LINE",
"146 853 LINE",
"308 956 LINE",
"308 250 LINE",
"426 250 LINE",
"419 311 OFFCURVE",
"415 443 OFFCURVE",
"415 516 CURVE SMOOTH",
"415 1069 LINE"
);
}
);
width = 674;
}
);
},
{
glyphname = one.small;
layers = (
{
anchors = (
{
name = _digit;
position = "{0, 0}";
},
{
name = digit;
position = "{494, 0}";
}
);
layerId = UUID0;
paths = (
{
closed = 1;
nodes = (
"226 971 LINE",
"97 886 LINE",
"107 812 LINE",
"226 888 LINE",
"226 370 LINE",
"312 370 LINE",
"307 415 OFFCURVE",
"305 512 OFFCURVE",
"305 565 CURVE SMOOTH",
"305 971 LINE"
);
}
);
width = 494;
},
{
anchors = (
{
name = _digit;
position = "{0, 0}";
},
{
name = digit;
position = "{494, 0}";
}
);
layerId = "58C4FD73-E369-47FC-BB2E-BA826F97CEB5";
paths = (
{
closed = 1;
nodes = (
"226 971 LINE",
"97 886 LINE",
"107 812 LINE",
"226 888 LINE",
"226 370 LINE",
"312 370 LINE",
"307 415 OFFCURVE",
"305 512 OFFCURVE",
"305 565 CURVE SMOOTH",
"305 971 LINE"
);
}
);
width = 494;
}
);
},
{
glyphname = two;
layers = (
{
layerId = UUID0;
paths = (
{
closed = 1;
nodes = (
"748 123 OFFCURVE",
"630 123 OFFCURVE",
"483 123 CURVE SMOOTH",
"292 123 LINE",
"456 263 OFFCURVE",
"755 545 OFFCURVE",
"755 797 CURVE SMOOTH",
"755 990 OFFCURVE",
"598 1111 OFFCURVE",
"419 1111 CURVE SMOOTH",
"293 1111 OFFCURVE",
"154 1049 OFFCURVE",
"94 964 CURVE",
"126 838 LINE",
"194 919 OFFCURVE",
"300 977 OFFCURVE",
"393 977 CURVE SMOOTH",
"500 977 OFFCURVE",
"605 922 OFFCURVE",
"605 782 CURVE SMOOTH",
"605 575 OFFCURVE",
"293 274 OFFCURVE",
"89 126 CURVE",
"89 0 LINE",
"807 0 LINE",
"807 135 LINE"
);
}
);
width = 896;
},
{
layerId = "58C4FD73-E369-47FC-BB2E-BA826F97CEB5";
paths = (
{
closed = 1;
nodes = (
"748 123 OFFCURVE",
"630 123 OFFCURVE",
"483 123 CURVE SMOOTH",
"292 123 LINE",
"456 263 OFFCURVE",
"755 545 OFFCURVE",
"755 797 CURVE SMOOTH",
"755 990 OFFCURVE",
"598 1111 OFFCURVE",
"419 1111 CURVE SMOOTH",
"293 1111 OFFCURVE",
"154 1049 OFFCURVE",
"94 964 CURVE",
"126 838 LINE",
"194 919 OFFCURVE",
"300 977 OFFCURVE",
"393 977 CURVE SMOOTH",
"500 977 OFFCURVE",
"605 922 OFFCURVE",
"605 782 CURVE SMOOTH",
"605 575 OFFCURVE",
"293 274 OFFCURVE",
"89 126 CURVE",
"89 0 LINE",
"807 0 LINE",
"807 135 LINE"
);
}
);
width = 896;
}
);
unicode = 0032;
},
{
glyphname = two.medium;
layers = (
{
anchors = (
{
name = _digit;
position = "{0, 0}";
},
{
name = digit;
position = "{674, 0}";
}
);
layerId = UUID0;
paths = (
{
closed = 1;
nodes = (
"561 342 OFFCURVE",
"472 342 OFFCURVE",
"362 342 CURVE SMOOTH",
"219 342 LINE",
"342 447 OFFCURVE",
"566 659 OFFCURVE",
"566 848 CURVE SMOOTH",
"566 992 OFFCURVE",
"448 1083 OFFCURVE",
"314 1083 CURVE SMOOTH",
"220 1083 OFFCURVE",
"115 1037 OFFCURVE",
"70 973 CURVE",
"94 878 LINE",
"145 939 OFFCURVE",
"225 983 OFFCURVE",
"295 983 CURVE SMOOTH",
"375 983 OFFCURVE",
"454 941 OFFCURVE",
"454 836 CURVE SMOOTH",
"454 681 OFFCURVE",
"220 455 OFFCURVE",
"67 344 CURVE",
"67 250 LINE",
"605 250 LINE",
"605 351 LINE"
);
}
);
width = 674;
},
{
anchors = (
{
name = _digit;
position = "{0, 0}";
},
{
name = digit;
position = "{674, 0}";
}
);
layerId = "58C4FD73-E369-47FC-BB2E-BA826F97CEB5";
paths = (
{
closed = 1;
nodes = (
"561 342 OFFCURVE",
"472 342 OFFCURVE",
"362 342 CURVE SMOOTH",
"219 342 LINE",
"342 447 OFFCURVE",
"566 659 OFFCURVE",
"566 848 CURVE SMOOTH",
"566 992 OFFCURVE",
"448 1083 OFFCURVE",
"314 1083 CURVE SMOOTH",
"220 1083 OFFCURVE",
"115 1037 OFFCURVE",
"70 973 CURVE",
"94 878 LINE",
"145 939 OFFCURVE",
"225 983 OFFCURVE",
"295 983 CURVE SMOOTH",
"375 983 OFFCURVE",
"454 941 OFFCURVE",
"454 836 CURVE SMOOTH",
"454 681 OFFCURVE",
"220 455 OFFCURVE",
"67 344 CURVE",
"67 250 LINE",
"605 250 LINE",
"605 351 LINE"
);
}
);
width = 674;
}
);
},
{
glyphname = two.small;
layers = (
{
anchors = (
{
name = _digit;
position = "{0, 0}";
},
{
name = digit;
position = "{494, 0}";
}
);
layerId = UUID0;
paths = (
{
closed = 1;
nodes = (
"411 438 OFFCURVE",
"346 438 OFFCURVE",
"266 438 CURVE SMOOTH",
"161 438 LINE",
"251 515 OFFCURVE",
"415 670 OFFCURVE",
"415 808 CURVE SMOOTH",
"415 914 OFFCURVE",
"329 981 OFFCURVE",
"230 981 CURVE SMOOTH",
"161 981 OFFCURVE",
"85 947 OFFCURVE",
"52 900 CURVE",
"69 831 LINE",
"107 875 OFFCURVE",
"165 907 OFFCURVE",
"216 907 CURVE SMOOTH",
"275 907 OFFCURVE",
"333 877 OFFCURVE",
"333 800 CURVE SMOOTH",
"333 686 OFFCURVE",
"161 521 OFFCURVE",
"49 439 CURVE",
"49 370 LINE",
"444 370 LINE",
"444 444 LINE"
);
}
);
width = 494;
},
{
anchors = (
{
name = _digit;
position = "{0, 0}";
},
{
name = digit;
position = "{494, 0}";
}
);
layerId = "58C4FD73-E369-47FC-BB2E-BA826F97CEB5";
paths = (
{
closed = 1;
nodes = (
"411 438 OFFCURVE",
"346 438 OFFCURVE",
"266 438 CURVE SMOOTH",
"161 438 LINE",
"251 515 OFFCURVE",
"415 670 OFFCURVE",
"415 808 CURVE SMOOTH",
"415 914 OFFCURVE",
"329 981 OFFCURVE",
"230 981 CURVE SMOOTH",
"161 981 OFFCURVE",
"85 947 OFFCURVE",
"52 900 CURVE",
"69 831 LINE",
"107 875 OFFCURVE",
"165 907 OFFCURVE",
"216 907 CURVE SMOOTH",
"275 907 OFFCURVE",
"333 877 OFFCURVE",
"333 800 CURVE SMOOTH",
"333 686 OFFCURVE",
"161 521 OFFCURVE",
"49 439 CURVE",
"49 370 LINE",
"444 370 LINE",
"444 444 LINE"
);
}
);
width = 494;
}
);
},
{
glyphname = three;
layers = (
{
layerId = UUID0;
paths = (
{
closed = 1;
nodes = (
"306 523 LINE",
"359 523 LINE",
"536 523 OFFCURVE",
"670 440 OFFCURVE",
"670 318 CURVE SMOOTH",
"670 180 OFFCURVE",
"537 112 OFFCURVE",
"423 112 CURVE SMOOTH",
"288 112 OFFCURVE",
"182 174 OFFCURVE",
"101 265 CURVE",
"82 104 LINE",
"161 31 OFFCURVE",
"275 -19 OFFCURVE",
"408 -19 CURVE SMOOTH",
"623 -19 OFFCURVE",
"815 126 OFFCURVE",
"815 303 CURVE SMOOTH",
"815 503 OFFCURVE",
"644 580 OFFCURVE",
"539 598 CURVE",
"644 620 OFFCURVE",
"778 716 OFFCURVE",
"778 853 CURVE SMOOTH",
"778 1013 OFFCURVE",
"619 1111 OFFCURVE",
"434 1111 CURVE",
"309 1111 OFFCURVE",
"195 1059 OFFCURVE",
"135 992 CURVE",
"161 864 LINE",
"245 951 OFFCURVE",
"326 979 OFFCURVE",
"441 979 CURVE SMOOTH",
"532 979 OFFCURVE",
"636 935 OFFCURVE",
"636 834 CURVE SMOOTH",
"636 741 OFFCURVE",
"507 651 OFFCURVE",
"359 651 CURVE",
"306 651 LINE"
);
}
);
width = 896;
},
{
layerId = "58C4FD73-E369-47FC-BB2E-BA826F97CEB5";
paths = (
{
closed = 1;
nodes = (
"306 523 LINE",
"359 523 LINE",
"536 523 OFFCURVE",
"670 440 OFFCURVE",
"670 318 CURVE SMOOTH",
"670 180 OFFCURVE",
"537 112 OFFCURVE",
"423 112 CURVE SMOOTH",
"288 112 OFFCURVE",
"182 174 OFFCURVE",
"101 265 CURVE",
"82 104 LINE",
"161 31 OFFCURVE",
"275 -19 OFFCURVE",
"408 -19 CURVE SMOOTH",
"623 -19 OFFCURVE",
"815 126 OFFCURVE",
"815 303 CURVE SMOOTH",
"815 503 OFFCURVE",
"644 580 OFFCURVE",
"539 598 CURVE",
"644 620 OFFCURVE",
"778 716 OFFCURVE",
"778 853 CURVE SMOOTH",
"778 1013 OFFCURVE",
"619 1111 OFFCURVE",
"434 1111 CURVE",
"309 1111 OFFCURVE",
"195 1059 OFFCURVE",
"135 992 CURVE",
"161 864 LINE",
"245 951 OFFCURVE",
"326 979 OFFCURVE",
"441 979 CURVE SMOOTH",
"532 979 OFFCURVE",
"636 935 OFFCURVE",
"636 834 CURVE SMOOTH",
"636 741 OFFCURVE",
"507 651 OFFCURVE",
"359 651 CURVE",
"306 651 LINE"
);
}
);
width = 896;
}
);
unicode = 0033;
},
{
glyphname = three.medium;
layers = (
{
anchors = (
{
name = _digit;
position = "{0, 0}";
},
{
name = digit;
position = "{674, 0}";
}
);
layerId = UUID0;
paths = (
{
closed = 1;
nodes = (
"229 642 LINE",
"269 642 LINE",
"402 642 OFFCURVE",
"502 580 OFFCURVE",
"502 488 CURVE SMOOTH",
"502 385 OFFCURVE",
"403 334 OFFCURVE",
"317 334 CURVE SMOOTH",
"216 334 OFFCURVE",
"136 380 OFFCURVE",
"76 449 CURVE",
"61 328 LINE",
"121 273 OFFCURVE",
"206 236 OFFCURVE",
"306 236 CURVE SMOOTH",
"467 236 OFFCURVE",
"611 344 OFFCURVE",
"611 477 CURVE SMOOTH",
"611 627 OFFCURVE",
"483 685 OFFCURVE",
"404 698 CURVE",
"483 715 OFFCURVE",
"583 787 OFFCURVE",
"583 890 CURVE SMOOTH",
"583 1010 OFFCURVE",
"464 1083 OFFCURVE",
"325 1083 CURVE",
"232 1083 OFFCURVE",
"146 1044 OFFCURVE",
"101 994 CURVE",
"121 898 LINE",
"184 963 OFFCURVE",
"244 984 OFFCURVE",
"331 984 CURVE SMOOTH",
"399 984 OFFCURVE",
"477 951 OFFCURVE",
"477 875 CURVE SMOOTH",
"477 806 OFFCURVE",
"380 738 OFFCURVE",
"269 738 CURVE",
"229 738 LINE"
);
}
);
width = 674;
},
{
anchors = (
{
name = _digit;
position = "{0, 0}";
},
{
name = digit;
position = "{674, 0}";
}
);
layerId = "58C4FD73-E369-47FC-BB2E-BA826F97CEB5";
paths = (
{
closed = 1;
nodes = (
"229 642 LINE",
"269 642 LINE",
"402 642 OFFCURVE",
"502 580 OFFCURVE",
"502 488 CURVE SMOOTH",
"502 385 OFFCURVE",
"403 334 OFFCURVE",
"317 334 CURVE SMOOTH",
"216 334 OFFCURVE",
"136 380 OFFCURVE",
"76 449 CURVE",
"61 328 LINE",
"121 273 OFFCURVE",
"206 236 OFFCURVE",
"306 236 CURVE SMOOTH",
"467 236 OFFCURVE",
"611 344 OFFCURVE",
"611 477 CURVE SMOOTH",
"611 627 OFFCURVE",
"483 685 OFFCURVE",
"404 698 CURVE",
"483 715 OFFCURVE",
"583 787 OFFCURVE",
"583 890 CURVE SMOOTH",
"583 1010 OFFCURVE",
"464 1083 OFFCURVE",
"325 1083 CURVE",
"232 1083 OFFCURVE",
"146 1044 OFFCURVE",
"101 994 CURVE",
"121 898 LINE",
"184 963 OFFCURVE",
"244 984 OFFCURVE",
"331 984 CURVE SMOOTH",
"399 984 OFFCURVE",
"477 951 OFFCURVE",
"477 875 CURVE SMOOTH",
"477 806 OFFCURVE",
"380 738 OFFCURVE",
"269 738 CURVE",
"229 738 LINE"
);
}
);
width = 674;
}
);
},
{
glyphname = three.small;
layers = (
{
anchors = (
{
name = _digit;
position = "{0, 0}";
},
{
name = digit;
position = "{494, 0}";
}
);
layerId = UUID0;
paths = (
{
closed = 1;
nodes = (
"168 658 LINE",
"197 658 LINE",
"295 658 OFFCURVE",
"369 612 OFFCURVE",
"369 545 CURVE SMOOTH",
"369 469 OFFCURVE",
"295 432 OFFCURVE",
"233 432 CURVE SMOOTH",
"158 432 OFFCURVE",
"100 466 OFFCURVE",
"56 516 CURVE",
"45 427 LINE",
"89 387 OFFCURVE",
"151 360 OFFCURVE",
"224 360 CURVE SMOOTH",
"343 360 OFFCURVE",
"448 439 OFFCURVE",
"448 537 CURVE SMOOTH",
"448 647 OFFCURVE",
"354 689 OFFCURVE",
"296 699 CURVE",
"354 711 OFFCURVE",
"428 764 OFFCURVE",
"428 839 CURVE SMOOTH",
"428 927 OFFCURVE",
"340 981 OFFCURVE",
"239 981 CURVE",
"170 981 OFFCURVE",
"107 952 OFFCURVE",
"74 916 CURVE",
"89 845 LINE",
"135 893 OFFCURVE",
"179 908 OFFCURVE",
"243 908 CURVE SMOOTH",
"293 908 OFFCURVE",
"350 884 OFFCURVE",
"350 829 CURVE SMOOTH",
"350 778 OFFCURVE",
"279 728 OFFCURVE",
"197 728 CURVE",
"168 728 LINE"
);
}
);
width = 494;
},
{
anchors = (
{
name = _digit;
position = "{0, 0}";
},
{
name = digit;
position = "{494, 0}";
}
);
layerId = "58C4FD73-E369-47FC-BB2E-BA826F97CEB5";
paths = (
{
closed = 1;
nodes = (
"168 658 LINE",
"197 658 LINE",
"295 658 OFFCURVE",
"369 612 OFFCURVE",
"369 545 CURVE SMOOTH",
"369 469 OFFCURVE",
"295 432 OFFCURVE",
"233 432 CURVE SMOOTH",
"158 432 OFFCURVE",
"100 466 OFFCURVE",
"56 516 CURVE",
"45 427 LINE",
"89 387 OFFCURVE",
"151 360 OFFCURVE",
"224 360 CURVE SMOOTH",
"343 360 OFFCURVE",
"448 439 OFFCURVE",
"448 537 CURVE SMOOTH",
"448 647 OFFCURVE",
"354 689 OFFCURVE",
"296 699 CURVE",
"354 711 OFFCURVE",
"428 764 OFFCURVE",
"428 839 CURVE SMOOTH",
"428 927 OFFCURVE",
"340 981 OFFCURVE",
"239 981 CURVE",
"170 981 OFFCURVE",
"107 952 OFFCURVE",
"74 916 CURVE",
"89 845 LINE",
"135 893 OFFCURVE",
"179 908 OFFCURVE",
"243 908 CURVE SMOOTH",
"293 908 OFFCURVE",
"350 884 OFFCURVE",
"350 829 CURVE SMOOTH",
"350 778 OFFCURVE",
"279 728 OFFCURVE",
"197 728 CURVE",
"168 728 LINE"
);
}
);
width = 494;
}
);
},
{
glyphname = four;
layers = (
{
layerId = UUID0;
paths = (
{
closed = 1;
nodes = (
"842 411 LINE",
"699 411 LINE",
"699 1107 LINE",
"558 1107 LINE",
"66 411 LINE",
"66 295 LINE",
"558 295 LINE",
"558 0 LINE",
"699 0 LINE",
"699 295 LINE",
"842 295 LINE"
);
},
{
closed = 1;
nodes = (
"558 411 LINE",
"197 411 LINE",
"558 920 LINE"
);
}
);
width = 896;
},
{
layerId = "58C4FD73-E369-47FC-BB2E-BA826F97CEB5";
paths = (
{
closed = 1;
nodes = (
"842 411 LINE",
"699 411 LINE",
"699 1107 LINE",
"558 1107 LINE",
"66 411 LINE",
"66 295 LINE",
"558 295 LINE",
"558 0 LINE",
"699 0 LINE",
"699 295 LINE",
"842 295 LINE"
);
},
{
closed = 1;
nodes = (
"558 411 LINE",
"197 411 LINE",
"558 920 LINE"
);
}
);
width = 896;
}
);
unicode = 0034;
},
{
glyphname = four.medium;
layers = (
{
anchors = (
{
name = _digit;
position = "{0, 0}";
},
{
name = digit;
position = "{674, 0}";
}
);
layerId = UUID0;
paths = (
{
closed = 1;
nodes = (
"631 558 LINE",
"524 558 LINE",
"524 1080 LINE",
"418 1080 LINE",
"49 558 LINE",
"49 471 LINE",
"418 471 LINE",
"418 250 LINE",
"524 250 LINE",
"524 471 LINE",
"631 471 LINE"
);
},
{
closed = 1;
nodes = (
"418 558 LINE",
"148 558 LINE",
"418 940 LINE"
);
}
);
width = 674;
},
{
anchors = (
{
name = _digit;
position = "{0, 0}";
},
{
name = digit;
position = "{674, 0}";
}
);
layerId = "58C4FD73-E369-47FC-BB2E-BA826F97CEB5";
paths = (
{
closed = 1;
nodes = (
"631 558 LINE",
"524 558 LINE",
"524 1080 LINE",
"418 1080 LINE",
"49 558 LINE",
"49 471 LINE",
"418 471 LINE",
"418 250 LINE",
"524 250 LINE",
"524 471 LINE",
"631 471 LINE"
);
},
{
closed = 1;
nodes = (
"418 558 LINE",
"148 558 LINE",
"418 940 LINE"
);
}
);
width = 674;
}
);
},
{
glyphname = four.small;
layers = (
{
anchors = (
{
name = _digit;
position = "{0, 0}";
},
{
name = digit;
position = "{494, 0}";
}
);
layerId = UUID0;
paths = (
{
closed = 1;
nodes = (
"463 596 LINE",
"384 596 LINE",
"384 979 LINE",
"307 979 LINE",
"36 596 LINE",
"36 532 LINE",
"307 532 LINE",
"307 370 LINE",
"384 370 LINE",
"384 532 LINE",
"463 532 LINE"
);
},
{
closed = 1;
nodes = (
"307 596 LINE",
"108 596 LINE",
"307 876 LINE"
);
}
);
width = 494;
},
{
anchors = (
{
name = _digit;
position = "{0, 0}";
},
{
name = digit;
position = "{494, 0}";
}
);
layerId = "58C4FD73-E369-47FC-BB2E-BA826F97CEB5";
paths = (
{
closed = 1;
nodes = (
"463 596 LINE",
"384 596 LINE",
"384 979 LINE",
"307 979 LINE",
"36 596 LINE",
"36 532 LINE",
"307 532 LINE",
"307 370 LINE",
"384 370 LINE",
"384 532 LINE",
"463 532 LINE"
);
},
{
closed = 1;
nodes = (
"307 596 LINE",
"108 596 LINE",
"307 876 LINE"
);
}
);
width = 494;
}
);
},
{
glyphname = five;
layers = (
{
layerId = UUID0;
paths = (
{
closed = 1;
nodes = (
"238 548 OFFCURVE",
"302 560 OFFCURVE",
"381 560 CURVE SMOOTH",
"501 560 OFFCURVE",
"651 503 OFFCURVE",
"651 351 CURVE SMOOTH",
"651 200 OFFCURVE",
"545 116 OFFCURVE",
"396 116 CURVE SMOOTH",
"292 116 OFFCURVE",
"219 136 OFFCURVE",
"120 217 CURVE",
"97 60 LINE",
"191 1 OFFCURVE",
"272 -19 OFFCURVE",
"387 -19 CURVE SMOOTH",
"621 -19 OFFCURVE",
"793 122 OFFCURVE",
"793 355 CURVE SMOOTH",
"793 555 OFFCURVE",
"622 695 OFFCURVE",
"408 695 CURVE SMOOTH",
"353 695 OFFCURVE",
"307 692 OFFCURVE",
"284 688 CURVE",
"284 964 LINE",
"573 964 LINE",
"636 964 OFFCURVE",
"693 961 OFFCURVE",
"748 950 CURVE",
"748 1092 LINE",
"145 1092 LINE",
"145 513 LINE"
);
}
);
width = 896;
},
{
layerId = "58C4FD73-E369-47FC-BB2E-BA826F97CEB5";
paths = (
{
closed = 1;
nodes = (
"238 548 OFFCURVE",
"302 560 OFFCURVE",
"381 560 CURVE SMOOTH",
"501 560 OFFCURVE",
"651 503 OFFCURVE",
"651 351 CURVE SMOOTH",
"651 200 OFFCURVE",
"545 116 OFFCURVE",
"396 116 CURVE SMOOTH",
"292 116 OFFCURVE",
"219 136 OFFCURVE",
"120 217 CURVE",
"97 60 LINE",
"191 1 OFFCURVE",
"272 -19 OFFCURVE",
"387 -19 CURVE SMOOTH",
"621 -19 OFFCURVE",
"793 122 OFFCURVE",
"793 355 CURVE SMOOTH",
"793 555 OFFCURVE",
"622 695 OFFCURVE",
"408 695 CURVE SMOOTH",
"353 695 OFFCURVE",
"307 692 OFFCURVE",
"284 688 CURVE",
"284 964 LINE",
"573 964 LINE",
"636 964 OFFCURVE",
"693 961 OFFCURVE",
"748 950 CURVE",
"748 1092 LINE",
"145 1092 LINE",
"145 513 LINE"
);
}
);
width = 896;
}
);
unicode = 0035;
},
{
glyphname = five.medium;
layers = (
{
anchors = (
{
name = _digit;
position = "{0, 0}";
},
{
name = digit;
position = "{674, 0}";
}
);
layerId = UUID0;
paths = (
{
closed = 1;
nodes = (
"178 661 OFFCURVE",
"226 670 OFFCURVE",
"286 670 CURVE SMOOTH",
"376 670 OFFCURVE",
"488 627 OFFCURVE",
"488 513 CURVE SMOOTH",
"488 400 OFFCURVE",
"409 337 OFFCURVE",
"297 337 CURVE SMOOTH",
"219 337 OFFCURVE",
"164 352 OFFCURVE",
"90 413 CURVE",
"73 295 LINE",
"143 251 OFFCURVE",
"204 236 OFFCURVE",
"290 236 CURVE SMOOTH",
"466 236 OFFCURVE",
"595 341 OFFCURVE",
"595 516 CURVE SMOOTH",
"595 666 OFFCURVE",
"466 771 OFFCURVE",
"306 771 CURVE SMOOTH",
"265 771 OFFCURVE",
"230 769 OFFCURVE",
"213 766 CURVE",
"213 973 LINE",
"430 973 LINE",
"477 973 OFFCURVE",
"520 971 OFFCURVE",
"561 962 CURVE",
"561 1069 LINE",
"109 1069 LINE",
"109 635 LINE"
);
}
);
width = 674;
},
{
anchors = (
{
name = _digit;
position = "{0, 0}";
},
{
name = digit;
position = "{674, 0}";
}
);
layerId = "58C4FD73-E369-47FC-BB2E-BA826F97CEB5";
paths = (
{
closed = 1;
nodes = (
"178 661 OFFCURVE",
"226 670 OFFCURVE",
"286 670 CURVE SMOOTH",
"376 670 OFFCURVE",
"488 627 OFFCURVE",
"488 513 CURVE SMOOTH",
"488 400 OFFCURVE",
"409 337 OFFCURVE",
"297 337 CURVE SMOOTH",
"219 337 OFFCURVE",
"164 352 OFFCURVE",
"90 413 CURVE",
"73 295 LINE",
"143 251 OFFCURVE",
"204 236 OFFCURVE",
"290 236 CURVE SMOOTH",
"466 236 OFFCURVE",
"595 341 OFFCURVE",
"595 516 CURVE SMOOTH",
"595 666 OFFCURVE",
"466 771 OFFCURVE",
"306 771 CURVE SMOOTH",
"265 771 OFFCURVE",
"230 769 OFFCURVE",
"213 766 CURVE",
"213 973 LINE",
"430 973 LINE",
"477 973 OFFCURVE",
"520 971 OFFCURVE",
"561 962 CURVE",
"561 1069 LINE",
"109 1069 LINE",
"109 635 LINE"
);
}
);
width = 674;
}
);
},
{
glyphname = five.small;
layers = (
{
anchors = (
{
name = _digit;
position = "{0, 0}";
},
{
name = digit;
position = "{494, 0}";
}
);
layerId = UUID0;
paths = (
{
closed = 1;
nodes = (
"131 671 OFFCURVE",
"166 678 OFFCURVE",
"210 678 CURVE SMOOTH",
"276 678 OFFCURVE",
"358 647 OFFCURVE",
"358 563 CURVE SMOOTH",
"358 480 OFFCURVE",
"300 434 OFFCURVE",
"218 434 CURVE SMOOTH",
"161 434 OFFCURVE",
"120 445 OFFCURVE",
"66 489 CURVE",
"53 403 LINE",
"105 371 OFFCURVE",
"150 360 OFFCURVE",
"213 360 CURVE SMOOTH",
"342 360 OFFCURVE",
"436 437 OFFCURVE",
"436 565 CURVE SMOOTH",
"436 675 OFFCURVE",
"342 752 OFFCURVE",
"224 752 CURVE SMOOTH",
"194 752 OFFCURVE",
"169 751 OFFCURVE",
"156 748 CURVE",
"156 900 LINE",
"315 900 LINE",
"350 900 OFFCURVE",
"381 899 OFFCURVE",
"411 892 CURVE",
"411 971 LINE",
"80 971 LINE",
"80 652 LINE"
);
}
);
width = 494;
},
{
anchors = (
{
name = _digit;
position = "{0, 0}";
},
{
name = digit;
position = "{494, 0}";
}
);
layerId = "58C4FD73-E369-47FC-BB2E-BA826F97CEB5";
paths = (
{
closed = 1;
nodes = (
"131 671 OFFCURVE",
"166 678 OFFCURVE",
"210 678 CURVE SMOOTH",
"276 678 OFFCURVE",
"358 647 OFFCURVE",
"358 563 CURVE SMOOTH",
"358 480 OFFCURVE",
"300 434 OFFCURVE",
"218 434 CURVE SMOOTH",
"161 434 OFFCURVE",
"120 445 OFFCURVE",
"66 489 CURVE",
"53 403 LINE",
"105 371 OFFCURVE",
"150 360 OFFCURVE",
"213 360 CURVE SMOOTH",
"342 360 OFFCURVE",
"436 437 OFFCURVE",
"436 565 CURVE SMOOTH",
"436 675 OFFCURVE",
"342 752 OFFCURVE",
"224 752 CURVE SMOOTH",
"194 752 OFFCURVE",
"169 751 OFFCURVE",
"156 748 CURVE",
"156 900 LINE",
"315 900 LINE",
"350 900 OFFCURVE",
"381 899 OFFCURVE",
"411 892 CURVE",
"411 971 LINE",
"80 971 LINE",
"80 652 LINE"
);
}
);
width = 494;
}
);
},
{
glyphname = six;
layers = (
{
layerId = UUID0;
paths = (
{
closed = 1;
nodes = (
"695 1096 OFFCURVE",
"631 1111 OFFCURVE",
"542 1111 CURVE SMOOTH",
"186 1111 OFFCURVE",
"82 785 OFFCURVE",
"82 508 CURVE SMOOTH",
"82 180 OFFCURVE",
"217 -19 OFFCURVE",
"448 -19 CURVE SMOOTH",
"678 -19 OFFCURVE",
"834 123 OFFCURVE",
"834 351 CURVE SMOOTH",
"834 538 OFFCURVE",
"705 670 OFFCURVE",
"498 670 CURVE SMOOTH",
"354 670 OFFCURVE",
"245 583 OFFCURVE",
"161 467 CURVE",
"209 411 LINE",
"271 488 OFFCURVE",
"366 539 OFFCURVE",
"483 539 CURVE SMOOTH",
"617 539 OFFCURVE",
"688 457 OFFCURVE",
"688 325 CURVE SMOOTH",
"688 205 OFFCURVE",
"602 112 OFFCURVE",
"471 112 CURVE SMOOTH",
"306 112 OFFCURVE",
"228 294 OFFCURVE",
"228 483 CURVE SMOOTH",
"228 846 OFFCURVE",
"357 979 OFFCURVE",
"535 979 CURVE SMOOTH",
"606 979 OFFCURVE",
"675 961 OFFCURVE",
"740 898 CURVE",
"773 1043 LINE"
);
}
);
width = 896;
},
{
layerId = "58C4FD73-E369-47FC-BB2E-BA826F97CEB5";
paths = (
{
closed = 1;
nodes = (
"695 1096 OFFCURVE",
"631 1111 OFFCURVE",
"542 1111 CURVE SMOOTH",
"186 1111 OFFCURVE",
"82 785 OFFCURVE",
"82 508 CURVE SMOOTH",
"82 180 OFFCURVE",
"217 -19 OFFCURVE",
"448 -19 CURVE SMOOTH",
"678 -19 OFFCURVE",
"834 123 OFFCURVE",
"834 351 CURVE SMOOTH",
"834 538 OFFCURVE",
"705 670 OFFCURVE",
"498 670 CURVE SMOOTH",
"354 670 OFFCURVE",
"245 583 OFFCURVE",
"161 467 CURVE",
"209 411 LINE",
"271 488 OFFCURVE",
"366 539 OFFCURVE",
"483 539 CURVE SMOOTH",
"617 539 OFFCURVE",
"688 457 OFFCURVE",
"688 325 CURVE SMOOTH",
"688 205 OFFCURVE",
"602 112 OFFCURVE",
"471 112 CURVE SMOOTH",
"306 112 OFFCURVE",
"228 294 OFFCURVE",
"228 483 CURVE SMOOTH",
"228 846 OFFCURVE",
"357 979 OFFCURVE",
"535 979 CURVE SMOOTH",
"606 979 OFFCURVE",
"675 961 OFFCURVE",
"740 898 CURVE",
"773 1043 LINE"
);
}
);
width = 896;
}
);
unicode = 0036;
},
{
glyphname = six.medium;
layers = (
{
anchors = (
{
name = _digit;
position = "{0, 0}";
},
{
name = digit;
position = "{674, 0}";
}
);
layerId = UUID0;
paths = (
{
closed = 1;
nodes = (
"521 1072 OFFCURVE",
"473 1083 OFFCURVE",
"406 1083 CURVE SMOOTH",
"139 1083 OFFCURVE",
"61 839 OFFCURVE",
"61 631 CURVE SMOOTH",
"61 385 OFFCURVE",
"163 236 OFFCURVE",
"336 236 CURVE SMOOTH",
"508 236 OFFCURVE",
"625 342 OFFCURVE",
"625 513 CURVE SMOOTH",
"625 653 OFFCURVE",
"529 752 OFFCURVE",
"373 752 CURVE SMOOTH",
"265 752 OFFCURVE",
"184 687 OFFCURVE",
"121 600 CURVE",
"157 558 LINE",
"203 616 OFFCURVE",
"274 654 OFFCURVE",
"362 654 CURVE SMOOTH",
"463 654 OFFCURVE",
"516 593 OFFCURVE",
"516 494 CURVE SMOOTH",
"516 404 OFFCURVE",
"451 334 OFFCURVE",
"353 334 CURVE SMOOTH",
"229 334 OFFCURVE",
"171 470 OFFCURVE",
"171 612 CURVE SMOOTH",
"171 884 OFFCURVE",
"268 984 OFFCURVE",
"401 984 CURVE SMOOTH",
"454 984 OFFCURVE",
"506 971 OFFCURVE",
"555 923 CURVE",
"580 1032 LINE"
);
}
);
width = 674;
},
{
anchors = (
{
name = _digit;
position = "{0, 0}";
},
{
name = digit;
position = "{674, 0}";
}
);
layerId = "58C4FD73-E369-47FC-BB2E-BA826F97CEB5";
paths = (
{
closed = 1;
nodes = (
"521 1072 OFFCURVE",
"473 1083 OFFCURVE",
"406 1083 CURVE SMOOTH",
"139 1083 OFFCURVE",
"61 839 OFFCURVE",
"61 631 CURVE SMOOTH",
"61 385 OFFCURVE",
"163 236 OFFCURVE",
"336 236 CURVE SMOOTH",
"508 236 OFFCURVE",
"625 342 OFFCURVE",
"625 513 CURVE SMOOTH",
"625 653 OFFCURVE",
"529 752 OFFCURVE",
"373 752 CURVE SMOOTH",
"265 752 OFFCURVE",
"184 687 OFFCURVE",
"121 600 CURVE",
"157 558 LINE",
"203 616 OFFCURVE",
"274 654 OFFCURVE",
"362 654 CURVE SMOOTH",
"463 654 OFFCURVE",
"516 593 OFFCURVE",
"516 494 CURVE SMOOTH",
"516 404 OFFCURVE",
"451 334 OFFCURVE",
"353 334 CURVE SMOOTH",
"229 334 OFFCURVE",
"171 470 OFFCURVE",
"171 612 CURVE SMOOTH",
"171 884 OFFCURVE",
"268 984 OFFCURVE",
"401 984 CURVE SMOOTH",
"454 984 OFFCURVE",
"506 971 OFFCURVE",
"555 923 CURVE",
"580 1032 LINE"
);
}
);
width = 674;
}
);
},
{
glyphname = six.small;
layers = (
{
anchors = (
{
name = _digit;
position = "{0, 0}";
},
{
name = digit;
position = "{494, 0}";
}
);
layerId = UUID0;
paths = (
{
closed = 1;
nodes = (
"382 973 OFFCURVE",
"347 981 OFFCURVE",
"298 981 CURVE SMOOTH",
"102 981 OFFCURVE",
"45 802 OFFCURVE",
"45 649 CURVE SMOOTH",
"45 469 OFFCURVE",
"119 360 OFFCURVE",
"246 360 CURVE SMOOTH",
"373 360 OFFCURVE",
"459 438 OFFCURVE",
"459 563 CURVE SMOOTH",
"459 666 OFFCURVE",
"388 739 OFFCURVE",
"274 739 CURVE SMOOTH",
"195 739 OFFCURVE",
"135 691 OFFCURVE",
"89 627 CURVE",
"115 596 LINE",
"149 638 OFFCURVE",
"201 666 OFFCURVE",
"266 666 CURVE SMOOTH",
"339 666 OFFCURVE",
"378 621 OFFCURVE",
"378 549 CURVE SMOOTH",
"378 483 OFFCURVE",
"331 432 OFFCURVE",
"259 432 CURVE SMOOTH",
"168 432 OFFCURVE",
"125 532 OFFCURVE",
"125 636 CURVE SMOOTH",
"125 835 OFFCURVE",
"196 908 OFFCURVE",
"294 908 CURVE SMOOTH",
"333 908 OFFCURVE",
"371 899 OFFCURVE",
"407 864 CURVE",
"425 944 LINE"
);
}
);
width = 494;
},
{
anchors = (
{
name = _digit;
position = "{0, 0}";
},
{
name = digit;
position = "{494, 0}";
}
);
layerId = "58C4FD73-E369-47FC-BB2E-BA826F97CEB5";
paths = (
{
closed = 1;
nodes = (
"382 973 OFFCURVE",
"347 981 OFFCURVE",
"298 981 CURVE SMOOTH",
"102 981 OFFCURVE",
"45 802 OFFCURVE",
"45 649 CURVE SMOOTH",
"45 469 OFFCURVE",
"119 360 OFFCURVE",
"246 360 CURVE SMOOTH",
"373 360 OFFCURVE",
"459 438 OFFCURVE",
"459 563 CURVE SMOOTH",
"459 666 OFFCURVE",
"388 739 OFFCURVE",
"274 739 CURVE SMOOTH",
"195 739 OFFCURVE",
"135 691 OFFCURVE",
"89 627 CURVE",
"115 596 LINE",
"149 638 OFFCURVE",
"201 666 OFFCURVE",
"266 666 CURVE SMOOTH",
"339 666 OFFCURVE",
"378 621 OFFCURVE",
"378 549 CURVE SMOOTH",
"378 483 OFFCURVE",
"331 432 OFFCURVE",
"259 432 CURVE SMOOTH",
"168 432 OFFCURVE",
"125 532 OFFCURVE",
"125 636 CURVE SMOOTH",
"125 835 OFFCURVE",
"196 908 OFFCURVE",
"294 908 CURVE SMOOTH",
"333 908 OFFCURVE",
"371 899 OFFCURVE",
"407 864 CURVE",
"425 944 LINE"
);
}
);
width = 494;
}
);
},
{
glyphname = seven;
layers = (
{
layerId = UUID0;
paths = (
{
closed = 1;
nodes = (
"441 343 OFFCURVE",
"594 670 OFFCURVE",
"815 973 CURVE",
"815 1092 LINE",
"75 1092 LINE",
"75 954 LINE",
"132 965 OFFCURVE",
"218 969 OFFCURVE",
"359 969 CURVE SMOOTH",
"651 969 LINE",
"458 682 OFFCURVE",
"328 423 OFFCURVE",
"205 0 CURVE",
"344 0 LINE"
);
}
);
width = 896;
},
{
layerId = "58C4FD73-E369-47FC-BB2E-BA826F97CEB5";
paths = (
{
closed = 1;
nodes = (
"441 343 OFFCURVE",
"594 670 OFFCURVE",
"815 973 CURVE",
"815 1092 LINE",
"75 1092 LINE",
"75 954 LINE",
"132 965 OFFCURVE",
"218 969 OFFCURVE",
"359 969 CURVE SMOOTH",
"651 969 LINE",
"458 682 OFFCURVE",
"328 423 OFFCURVE",
"205 0 CURVE",
"344 0 LINE"
);
}
);
width = 896;
}
);
unicode = 0037;
},
{
glyphname = seven.medium;
layers = (
{
anchors = (
{
name = _digit;
position = "{0, 0}";
},
{
name = digit;
position = "{674, 0}";
}
);
layerId = UUID0;
paths = (
{
closed = 1;
nodes = (
"331 507 OFFCURVE",
"445 752 OFFCURVE",
"611 980 CURVE",
"611 1069 LINE",
"56 1069 LINE",
"56 965 LINE",
"99 974 OFFCURVE",
"163 977 OFFCURVE",
"269 977 CURVE SMOOTH",
"488 977 LINE",
"343 761 OFFCURVE",
"246 567 OFFCURVE",
"154 250 CURVE",
"258 250 LINE"
);
}
);
width = 674;
},
{
anchors = (
{
name = _digit;
position = "{0, 0}";
},
{
name = digit;
position = "{674, 0}";
}
);
layerId = "58C4FD73-E369-47FC-BB2E-BA826F97CEB5";
paths = (
{
closed = 1;
nodes = (
"331 507 OFFCURVE",
"445 752 OFFCURVE",
"611 980 CURVE",
"611 1069 LINE",
"56 1069 LINE",
"56 965 LINE",
"99 974 OFFCURVE",
"163 977 OFFCURVE",
"269 977 CURVE SMOOTH",
"488 977 LINE",
"343 761 OFFCURVE",
"246 567 OFFCURVE",
"154 250 CURVE",
"258 250 LINE"
);
}
);
width = 674;
}
);
},
{
glyphname = seven.small;
layers = (
{
anchors = (
{
name = _digit;
position = "{0, 0}";
},
{
name = digit;
position = "{494, 0}";
}
);
layerId = UUID0;
paths = (
{
closed = 1;
nodes = (
"243 559 OFFCURVE",
"327 739 OFFCURVE",
"448 905 CURVE",
"448 971 LINE",
"41 971 LINE",
"41 895 LINE",
"73 901 OFFCURVE",
"120 903 OFFCURVE",
"197 903 CURVE SMOOTH",
"358 903 LINE",
"252 745 OFFCURVE",
"180 603 OFFCURVE",
"113 370 CURVE",
"189 370 LINE"
);
}
);
width = 494;
},
{
anchors = (
{
name = _digit;
position = "{0, 0}";
},
{
name = digit;
position = "{494, 0}";
}
);
layerId = "58C4FD73-E369-47FC-BB2E-BA826F97CEB5";
paths = (
{
closed = 1;
nodes = (
"243 559 OFFCURVE",
"327 739 OFFCURVE",
"448 905 CURVE",
"448 971 LINE",
"41 971 LINE",
"41 895 LINE",
"73 901 OFFCURVE",
"120 903 OFFCURVE",
"197 903 CURVE SMOOTH",
"358 903 LINE",
"252 745 OFFCURVE",
"180 603 OFFCURVE",
"113 370 CURVE",
"189 370 LINE"
);
}
);
width = 494;
}
);
},
{
glyphname = eight;
layers = (
{
layerId = UUID0;
paths = (
{
closed = 1;
nodes = (
"830 100 OFFCURVE",
"830 303 CURVE SMOOTH",
"830 457 OFFCURVE",
"722 553 OFFCURVE",
"639 595 CURVE",
"698 632 OFFCURVE",
"785 691 OFFCURVE",
"785 826 CURVE SMOOTH",
"785 1010 OFFCURVE",
"628 1111 OFFCURVE",
"456 1111 CURVE SMOOTH",
"285 1111 OFFCURVE",
"112 1010 OFFCURVE",
"112 826 CURVE SMOOTH",
"112 691 OFFCURVE",
"203 626 OFFCURVE",
"261 595 CURVE",
"165 542 OFFCURVE",
"66 457 OFFCURVE",
"66 303 CURVE SMOOTH",
"66 100 OFFCURVE",
"257 -19 OFFCURVE",
"448 -19 CURVE SMOOTH",
"641 -19 OFFCURVE"
);
},
{
closed = 1;
nodes = (
"556 647 OFFCURVE",
"448 647 CURVE SMOOTH",
"342 647 OFFCURVE",
"255 711 OFFCURVE",
"255 826 CURVE SMOOTH",
"255 937 OFFCURVE",
"342 992 OFFCURVE",
"448 992 CURVE SMOOTH",
"556 992 OFFCURVE",
"643 937 OFFCURVE",
"643 826 CURVE SMOOTH",
"643 711 OFFCURVE"
);
},
{
closed = 1;
nodes = (
"581 108 OFFCURVE",
"448 108 CURVE SMOOTH",
"314 108 OFFCURVE",
"217 186 OFFCURVE",
"217 318 CURVE SMOOTH",
"217 443 OFFCURVE",
"314 531 OFFCURVE",
"448 531 CURVE SMOOTH",
"581 531 OFFCURVE",
"680 443 OFFCURVE",
"680 318 CURVE SMOOTH",
"680 186 OFFCURVE"
);
}
);
width = 896;
},
{
layerId = "58C4FD73-E369-47FC-BB2E-BA826F97CEB5";
paths = (
{
closed = 1;
nodes = (
"830 100 OFFCURVE",
"830 303 CURVE SMOOTH",
"830 457 OFFCURVE",
"722 553 OFFCURVE",
"639 595 CURVE",
"698 632 OFFCURVE",
"785 691 OFFCURVE",
"785 826 CURVE SMOOTH",
"785 1010 OFFCURVE",
"628 1111 OFFCURVE",
"456 1111 CURVE SMOOTH",
"285 1111 OFFCURVE",
"112 1010 OFFCURVE",
"112 826 CURVE SMOOTH",
"112 691 OFFCURVE",
"203 626 OFFCURVE",
"261 595 CURVE",
"165 542 OFFCURVE",
"66 457 OFFCURVE",
"66 303 CURVE SMOOTH",
"66 100 OFFCURVE",
"257 -19 OFFCURVE",
"448 -19 CURVE SMOOTH",
"641 -19 OFFCURVE"
);
},
{
closed = 1;
nodes = (
"556 647 OFFCURVE",
"448 647 CURVE SMOOTH",
"342 647 OFFCURVE",
"255 711 OFFCURVE",
"255 826 CURVE SMOOTH",
"255 937 OFFCURVE",
"342 992 OFFCURVE",
"448 992 CURVE SMOOTH",
"556 992 OFFCURVE",
"643 937 OFFCURVE",
"643 826 CURVE SMOOTH",
"643 711 OFFCURVE"
);
},
{
closed = 1;
nodes = (
"581 108 OFFCURVE",
"448 108 CURVE SMOOTH",
"314 108 OFFCURVE",
"217 186 OFFCURVE",
"217 318 CURVE SMOOTH",
"217 443 OFFCURVE",
"314 531 OFFCURVE",
"448 531 CURVE SMOOTH",
"581 531 OFFCURVE",
"680 443 OFFCURVE",
"680 318 CURVE SMOOTH",
"680 186 OFFCURVE"
);
}
);
width = 896;
}
);
unicode = 0038;
},
{
glyphname = eight.medium;
layers = (
{
anchors = (
{
name = _digit;
position = "{0, 0}";
},
{
name = digit;
position = "{674, 0}";
}
);
layerId = UUID0;
paths = (
{
closed = 1;
nodes = (
"622 325 OFFCURVE",
"622 477 CURVE SMOOTH",
"622 593 OFFCURVE",
"541 665 OFFCURVE",
"479 696 CURVE",
"523 724 OFFCURVE",
"589 768 OFFCURVE",
"589 869 CURVE SMOOTH",
"589 1007 OFFCURVE",
"471 1083 OFFCURVE",
"342 1083 CURVE SMOOTH",
"214 1083 OFFCURVE",
"84 1007 OFFCURVE",
"84 869 CURVE SMOOTH",
"84 768 OFFCURVE",
"152 719 OFFCURVE",
"196 696 CURVE",
"124 656 OFFCURVE",
"49 593 OFFCURVE",
"49 477 CURVE SMOOTH",
"49 325 OFFCURVE",
"193 236 OFFCURVE",
"336 236 CURVE SMOOTH",
"481 236 OFFCURVE"
);
},
{
closed = 1;
nodes = (
"417 735 OFFCURVE",
"336 735 CURVE SMOOTH",
"256 735 OFFCURVE",
"191 783 OFFCURVE",
"191 869 CURVE SMOOTH",
"191 953 OFFCURVE",
"256 994 OFFCURVE",
"336 994 CURVE SMOOTH",
"417 994 OFFCURVE",
"482 953 OFFCURVE",
"482 869 CURVE SMOOTH",
"482 783 OFFCURVE"
);
},
{
closed = 1;
nodes = (
"436 331 OFFCURVE",
"336 331 CURVE SMOOTH",
"235 331 OFFCURVE",
"163 389 OFFCURVE",
"163 488 CURVE SMOOTH",
"163 582 OFFCURVE",
"235 648 OFFCURVE",
"336 648 CURVE SMOOTH",
"436 648 OFFCURVE",
"510 582 OFFCURVE",
"510 488 CURVE SMOOTH",
"510 389 OFFCURVE"
);
}
);
width = 674;
},
{
anchors = (
{
name = _digit;
position = "{0, 0}";
},
{
name = digit;
position = "{674, 0}";
}
);
layerId = "58C4FD73-E369-47FC-BB2E-BA826F97CEB5";
paths = (
{
closed = 1;
nodes = (
"622 325 OFFCURVE",
"622 477 CURVE SMOOTH",
"622 593 OFFCURVE",
"541 665 OFFCURVE",
"479 696 CURVE",
"523 724 OFFCURVE",
"589 768 OFFCURVE",
"589 869 CURVE SMOOTH",
"589 1007 OFFCURVE",
"471 1083 OFFCURVE",
"342 1083 CURVE SMOOTH",
"214 1083 OFFCURVE",
"84 1007 OFFCURVE",
"84 869 CURVE SMOOTH",
"84 768 OFFCURVE",
"152 719 OFFCURVE",
"196 696 CURVE",
"124 656 OFFCURVE",
"49 593 OFFCURVE",
"49 477 CURVE SMOOTH",
"49 325 OFFCURVE",
"193 236 OFFCURVE",
"336 236 CURVE SMOOTH",
"481 236 OFFCURVE"
);
},
{
closed = 1;
nodes = (
"417 735 OFFCURVE",
"336 735 CURVE SMOOTH",
"256 735 OFFCURVE",
"191 783 OFFCURVE",
"191 869 CURVE SMOOTH",
"191 953 OFFCURVE",
"256 994 OFFCURVE",
"336 994 CURVE SMOOTH",
"417 994 OFFCURVE",
"482 953 OFFCURVE",
"482 869 CURVE SMOOTH",
"482 783 OFFCURVE"
);
},
{
closed = 1;
nodes = (
"436 331 OFFCURVE",
"336 331 CURVE SMOOTH",
"235 331 OFFCURVE",
"163 389 OFFCURVE",
"163 488 CURVE SMOOTH",
"163 582 OFFCURVE",
"235 648 OFFCURVE",
"336 648 CURVE SMOOTH",
"436 648 OFFCURVE",
"510 582 OFFCURVE",
"510 488 CURVE SMOOTH",
"510 389 OFFCURVE"
);
}
);
width = 674;
}
);
},
{
glyphname = eight.small;
layers = (
{
anchors = (
{
name = _digit;
position = "{0, 0}";
},
{
name = digit;
position = "{494, 0}";
}
);
layerId = UUID0;
paths = (
{
closed = 1;
nodes = (
"457 425 OFFCURVE",
"457 537 CURVE SMOOTH",
"457 621 OFFCURVE",
"397 674 OFFCURVE",
"351 697 CURVE",
"384 718 OFFCURVE",
"432 750 OFFCURVE",
"432 824 CURVE SMOOTH",
"432 925 OFFCURVE",
"345 981 OFFCURVE",
"251 981 CURVE SMOOTH",
"157 981 OFFCURVE",
"62 925 OFFCURVE",
"62 824 CURVE SMOOTH",
"62 750 OFFCURVE",
"112 714 OFFCURVE",
"144 697 CURVE",
"91 668 OFFCURVE",
"36 621 OFFCURVE",
"36 537 CURVE SMOOTH",
"36 425 OFFCURVE",
"141 360 OFFCURVE",
"246 360 CURVE SMOOTH",
"353 360 OFFCURVE"
);
},
{
closed = 1;
nodes = (
"306 726 OFFCURVE",
"246 726 CURVE SMOOTH",
"188 726 OFFCURVE",
"140 761 OFFCURVE",
"140 824 CURVE SMOOTH",
"140 885 OFFCURVE",
"188 916 OFFCURVE",
"246 916 CURVE SMOOTH",
"306 916 OFFCURVE",
"354 885 OFFCURVE",
"354 824 CURVE SMOOTH",
"354 761 OFFCURVE"
);
},
{
closed = 1;
nodes = (
"320 429 OFFCURVE",
"246 429 CURVE SMOOTH",
"173 429 OFFCURVE",
"119 472 OFFCURVE",
"119 545 CURVE SMOOTH",
"119 614 OFFCURVE",
"173 662 OFFCURVE",
"246 662 CURVE SMOOTH",
"320 662 OFFCURVE",
"374 614 OFFCURVE",
"374 545 CURVE SMOOTH",
"374 472 OFFCURVE"
);
}
);
width = 494;
},
{
anchors = (
{
name = _digit;
position = "{0, 0}";
},
{
name = digit;
position = "{494, 0}";
}
);
layerId = "58C4FD73-E369-47FC-BB2E-BA826F97CEB5";
paths = (
{
closed = 1;
nodes = (
"457 425 OFFCURVE",
"457 537 CURVE SMOOTH",
"457 621 OFFCURVE",
"397 674 OFFCURVE",
"351 697 CURVE",
"384 718 OFFCURVE",
"432 750 OFFCURVE",
"432 824 CURVE SMOOTH",
"432 925 OFFCURVE",
"345 981 OFFCURVE",
"251 981 CURVE SMOOTH",
"157 981 OFFCURVE",
"62 925 OFFCURVE",
"62 824 CURVE SMOOTH",
"62 750 OFFCURVE",
"112 714 OFFCURVE",
"144 697 CURVE",
"91 668 OFFCURVE",
"36 621 OFFCURVE",
"36 537 CURVE SMOOTH",
"36 425 OFFCURVE",
"141 360 OFFCURVE",
"246 360 CURVE SMOOTH",
"353 360 OFFCURVE"
);
},
{
closed = 1;
nodes = (
"306 726 OFFCURVE",
"246 726 CURVE SMOOTH",
"188 726 OFFCURVE",
"140 761 OFFCURVE",
"140 824 CURVE SMOOTH",
"140 885 OFFCURVE",
"188 916 OFFCURVE",
"246 916 CURVE SMOOTH",
"306 916 OFFCURVE",
"354 885 OFFCURVE",
"354 824 CURVE SMOOTH",
"354 761 OFFCURVE"
);
},
{
closed = 1;
nodes = (
"320 429 OFFCURVE",
"246 429 CURVE SMOOTH",
"173 429 OFFCURVE",
"119 472 OFFCURVE",
"119 545 CURVE SMOOTH",
"119 614 OFFCURVE",
"173 662 OFFCURVE",
"246 662 CURVE SMOOTH",
"320 662 OFFCURVE",
"374 614 OFFCURVE",
"374 545 CURVE SMOOTH",
"374 472 OFFCURVE"
);
}
);
width = 494;
}
);
},
{
glyphname = nine;
layers = (
{
layerId = UUID0;
paths = (
{
closed = 1;
nodes = (
"222 -4 OFFCURVE",
"286 -19 OFFCURVE",
"375 -19 CURVE SMOOTH",
"731 -19 OFFCURVE",
"833 307 OFFCURVE",
"833 583 CURVE SMOOTH",
"833 896 OFFCURVE",
"693 1111 OFFCURVE",
"461 1111 CURVE SMOOTH",
"261 1111 OFFCURVE",
"84 977 OFFCURVE",
"84 750 CURVE SMOOTH",
"84 579 OFFCURVE",
"211 438 OFFCURVE",
"418 438 CURVE SMOOTH",
"560 438 OFFCURVE",
"690 537 OFFCURVE",
"762 656 CURVE",
"710 719 LINE",
"654 634 OFFCURVE",
"552 568 OFFCURVE",
"436 568 CURVE SMOOTH",
"317 568 OFFCURVE",
"228 643 OFFCURVE",
"228 775 CURVE SMOOTH",
"228 895 OFFCURVE",
"314 979 OFFCURVE",
"446 979 CURVE SMOOTH",
"626 979 OFFCURVE",
"687 797 OFFCURVE",
"687 608 CURVE SMOOTH",
"687 243 OFFCURVE",
"560 112 OFFCURVE",
"382 112 CURVE SMOOTH",
"311 112 OFFCURVE",
"241 129 OFFCURVE",
"178 195 CURVE",
"144 48 LINE"
);
}
);
width = 896;
},
{
layerId = "58C4FD73-E369-47FC-BB2E-BA826F97CEB5";
paths = (
{
closed = 1;
nodes = (
"222 -4 OFFCURVE",
"286 -19 OFFCURVE",
"375 -19 CURVE SMOOTH",
"731 -19 OFFCURVE",
"833 307 OFFCURVE",
"833 583 CURVE SMOOTH",
"833 896 OFFCURVE",
"693 1111 OFFCURVE",
"461 1111 CURVE SMOOTH",
"261 1111 OFFCURVE",
"84 977 OFFCURVE",
"84 750 CURVE SMOOTH",
"84 579 OFFCURVE",
"211 438 OFFCURVE",
"418 438 CURVE SMOOTH",
"560 438 OFFCURVE",
"690 537 OFFCURVE",
"762 656 CURVE",
"710 719 LINE",
"654 634 OFFCURVE",
"552 568 OFFCURVE",
"436 568 CURVE SMOOTH",
"317 568 OFFCURVE",
"228 643 OFFCURVE",
"228 775 CURVE SMOOTH",
"228 895 OFFCURVE",
"314 979 OFFCURVE",
"446 979 CURVE SMOOTH",
"626 979 OFFCURVE",
"687 797 OFFCURVE",
"687 608 CURVE SMOOTH",
"687 243 OFFCURVE",
"560 112 OFFCURVE",
"382 112 CURVE SMOOTH",
"311 112 OFFCURVE",
"241 129 OFFCURVE",
"178 195 CURVE",
"144 48 LINE"
);
}
);
width = 896;
}
);
unicode = 0039;
},
{
glyphname = nine.medium;
layers = (
{
anchors = (
{
name = _digit;
position = "{0, 0}";
},
{
name = digit;
position = "{674, 0}";
}
);
layerId = UUID0;
paths = (
{
closed = 1;
nodes = (
"166 247 OFFCURVE",
"214 236 OFFCURVE",
"281 236 CURVE SMOOTH",
"548 236 OFFCURVE",
"625 480 OFFCURVE",
"625 687 CURVE SMOOTH",
"625 922 OFFCURVE",
"520 1083 OFFCURVE",
"346 1083 CURVE SMOOTH",
"196 1083 OFFCURVE",
"63 983 OFFCURVE",
"63 812 CURVE SMOOTH",
"63 684 OFFCURVE",
"158 578 OFFCURVE",
"313 578 CURVE SMOOTH",
"420 578 OFFCURVE",
"517 653 OFFCURVE",
"571 742 CURVE",
"532 789 LINE",
"490 725 OFFCURVE",
"414 676 OFFCURVE",
"327 676 CURVE SMOOTH",
"238 676 OFFCURVE",
"171 732 OFFCURVE",
"171 831 CURVE SMOOTH",
"171 921 OFFCURVE",
"235 984 OFFCURVE",
"334 984 CURVE SMOOTH",
"469 984 OFFCURVE",
"515 848 OFFCURVE",
"515 706 CURVE SMOOTH",
"515 432 OFFCURVE",
"420 334 OFFCURVE",
"286 334 CURVE SMOOTH",
"233 334 OFFCURVE",
"181 347 OFFCURVE",
"133 396 CURVE",
"108 286 LINE"
);
}
);
width = 674;
},
{
anchors = (
{
name = _digit;
position = "{0, 0}";
},
{
name = digit;
position = "{674, 0}";
}
);
layerId = "58C4FD73-E369-47FC-BB2E-BA826F97CEB5";
paths = (
{
closed = 1;
nodes = (
"166 247 OFFCURVE",
"214 236 OFFCURVE",
"281 236 CURVE SMOOTH",
"548 236 OFFCURVE",
"625 480 OFFCURVE",
"625 687 CURVE SMOOTH",
"625 922 OFFCURVE",
"520 1083 OFFCURVE",
"346 1083 CURVE SMOOTH",
"196 1083 OFFCURVE",
"63 983 OFFCURVE",
"63 812 CURVE SMOOTH",
"63 684 OFFCURVE",
"158 578 OFFCURVE",
"313 578 CURVE SMOOTH",
"420 578 OFFCURVE",
"517 653 OFFCURVE",
"571 742 CURVE",
"532 789 LINE",
"490 725 OFFCURVE",
"414 676 OFFCURVE",
"327 676 CURVE SMOOTH",
"238 676 OFFCURVE",
"171 732 OFFCURVE",
"171 831 CURVE SMOOTH",
"171 921 OFFCURVE",
"235 984 OFFCURVE",
"334 984 CURVE SMOOTH",
"469 984 OFFCURVE",
"515 848 OFFCURVE",
"515 706 CURVE SMOOTH",
"515 432 OFFCURVE",
"420 334 OFFCURVE",
"286 334 CURVE SMOOTH",
"233 334 OFFCURVE",
"181 347 OFFCURVE",
"133 396 CURVE",
"108 286 LINE"
);
}
);
width = 674;
}
);
},
{
glyphname = nine.small;
layers = (
{
anchors = (
{
name = _digit;
position = "{0, 0}";
},
{
name = digit;
position = "{494, 0}";
}
);
layerId = UUID0;
paths = (
{
closed = 1;
nodes = (
"122 368 OFFCURVE",
"157 360 OFFCURVE",
"206 360 CURVE SMOOTH",
"402 360 OFFCURVE",
"458 539 OFFCURVE",
"458 691 CURVE SMOOTH",
"458 863 OFFCURVE",
"381 981 OFFCURVE",
"254 981 CURVE SMOOTH",
"144 981 OFFCURVE",
"46 907 OFFCURVE",
"46 783 CURVE SMOOTH",
"46 688 OFFCURVE",
"116 611 OFFCURVE",
"230 611 CURVE SMOOTH",
"308 611 OFFCURVE",
"380 665 OFFCURVE",
"419 731 CURVE",
"391 765 LINE",
"360 719 OFFCURVE",
"304 682 OFFCURVE",
"240 682 CURVE SMOOTH",
"174 682 OFFCURVE",
"125 724 OFFCURVE",
"125 796 CURVE SMOOTH",
"125 862 OFFCURVE",
"173 908 OFFCURVE",
"245 908 CURVE SMOOTH",
"344 908 OFFCURVE",
"378 808 OFFCURVE",
"378 704 CURVE SMOOTH",
"378 504 OFFCURVE",
"308 432 OFFCURVE",
"210 432 CURVE SMOOTH",
"171 432 OFFCURVE",
"133 441 OFFCURVE",
"98 477 CURVE",
"79 396 LINE"
);
}
);
width = 494;
},
{
anchors = (
{
name = _digit;
position = "{0, 0}";
},
{
name = digit;
position = "{494, 0}";
}
);
layerId = "58C4FD73-E369-47FC-BB2E-BA826F97CEB5";
paths = (
{
closed = 1;
nodes = (
"122 368 OFFCURVE",
"157 360 OFFCURVE",
"206 360 CURVE SMOOTH",
"402 360 OFFCURVE",
"458 539 OFFCURVE",
"458 691 CURVE SMOOTH",
"458 863 OFFCURVE",
"381 981 OFFCURVE",
"254 981 CURVE SMOOTH",
"144 981 OFFCURVE",
"46 907 OFFCURVE",
"46 783 CURVE SMOOTH",
"46 688 OFFCURVE",
"116 611 OFFCURVE",
"230 611 CURVE SMOOTH",
"308 611 OFFCURVE",
"380 665 OFFCURVE",
"419 731 CURVE",
"391 765 LINE",
"360 719 OFFCURVE",
"304 682 OFFCURVE",
"240 682 CURVE SMOOTH",
"174 682 OFFCURVE",
"125 724 OFFCURVE",
"125 796 CURVE SMOOTH",
"125 862 OFFCURVE",
"173 908 OFFCURVE",
"245 908 CURVE SMOOTH",
"344 908 OFFCURVE",
"378 808 OFFCURVE",
"378 704 CURVE SMOOTH",
"378 504 OFFCURVE",
"308 432 OFFCURVE",
"210 432 CURVE SMOOTH",
"171 432 OFFCURVE",
"133 441 OFFCURVE",
"98 477 CURVE",
"79 396 LINE"
);
}
);
width = 494;
}
);
},
{
glyphname = colon;
layers = (
{
layerId = UUID0;
paths = (
{
closed = 1;
nodes = (
"183 490 OFFCURVE",
"239 490 CURVE SMOOTH",
"294 490 OFFCURVE",
"340 536 OFFCURVE",
"340 591 CURVE SMOOTH",
"340 646 OFFCURVE",
"294 693 OFFCURVE",
"239 693 CURVE SMOOTH",
"183 693 OFFCURVE",
"139 646 OFFCURVE",
"139 591 CURVE SMOOTH",
"139 536 OFFCURVE"
);
},
{
closed = 1;
nodes = (
"183 -19 OFFCURVE",
"239 -19 CURVE SMOOTH",
"294 -19 OFFCURVE",
"340 27 OFFCURVE",
"340 82 CURVE SMOOTH",
"340 138 OFFCURVE",
"294 183 OFFCURVE",
"239 183 CURVE SMOOTH",
"183 183 OFFCURVE",
"139 138 OFFCURVE",
"139 82 CURVE SMOOTH",
"139 27 OFFCURVE"
);
}
);
width = 479;
},
{
layerId = "58C4FD73-E369-47FC-BB2E-BA826F97CEB5";
paths = (
{
closed = 1;
nodes = (
"183 490 OFFCURVE",
"239 490 CURVE SMOOTH",
"294 490 OFFCURVE",
"340 536 OFFCURVE",
"340 591 CURVE SMOOTH",
"340 646 OFFCURVE",
"294 693 OFFCURVE",
"239 693 CURVE SMOOTH",
"183 693 OFFCURVE",
"139 646 OFFCURVE",
"139 591 CURVE SMOOTH",
"139 536 OFFCURVE"
);
},
{
closed = 1;
nodes = (
"183 -19 OFFCURVE",
"239 -19 CURVE SMOOTH",
"294 -19 OFFCURVE",
"340 27 OFFCURVE",
"340 82 CURVE SMOOTH",
"340 138 OFFCURVE",
"294 183 OFFCURVE",
"239 183 CURVE SMOOTH",
"183 183 OFFCURVE",
"139 138 OFFCURVE",
"139 82 CURVE SMOOTH",
"139 27 OFFCURVE"
);
}
);
width = 479;
}
);
unicode = 003A;
},
{
glyphname = semicolon;
layers = (
{
layerId = UUID0;
paths = (
{
closed = 1;
nodes = (
"183 490 OFFCURVE",
"239 490 CURVE SMOOTH",
"294 490 OFFCURVE",
"340 536 OFFCURVE",
"340 591 CURVE SMOOTH",
"340 646 OFFCURVE",
"294 693 OFFCURVE",
"239 693 CURVE SMOOTH",
"183 693 OFFCURVE",
"139 646 OFFCURVE",
"139 591 CURVE SMOOTH",
"139 536 OFFCURVE"
);
},
{
closed = 1;
nodes = (
"243 37 LINE",
"243 -38 OFFCURVE",
"185 -128 OFFCURVE",
"142 -173 CURVE",
"217 -202 LINE",
"304 -120 OFFCURVE",
"348 -28 OFFCURVE",
"348 64 CURVE SMOOTH",
"348 139 OFFCURVE",
"299 186 OFFCURVE",
"239 186 CURVE SMOOTH",
"197 186 OFFCURVE",
"147 160 OFFCURVE",
"139 112 CURVE",
"139 37 LINE"
);
}
);
width = 485;
},
{
layerId = "58C4FD73-E369-47FC-BB2E-BA826F97CEB5";
paths = (
{
closed = 1;
nodes = (
"183 490 OFFCURVE",
"239 490 CURVE SMOOTH",
"294 490 OFFCURVE",
"340 536 OFFCURVE",
"340 591 CURVE SMOOTH",
"340 646 OFFCURVE",
"294 693 OFFCURVE",
"239 693 CURVE SMOOTH",
"183 693 OFFCURVE",
"139 646 OFFCURVE",
"139 591 CURVE SMOOTH",
"139 536 OFFCURVE"
);
},
{
closed = 1;
nodes = (
"243 37 LINE",
"243 -38 OFFCURVE",
"185 -128 OFFCURVE",
"142 -173 CURVE",
"217 -202 LINE",
"304 -120 OFFCURVE",
"348 -28 OFFCURVE",
"348 64 CURVE SMOOTH",
"348 139 OFFCURVE",
"299 186 OFFCURVE",
"239 186 CURVE SMOOTH",
"197 186 OFFCURVE",
"147 160 OFFCURVE",
"139 112 CURVE",
"139 37 LINE"
);
}
);
width = 485;
}
);
unicode = 003B;
},
{
glyphname = less;
layers = (
{
layerId = UUID0;
paths = (
{
closed = 1;
nodes = (
"217 545 LINE",
"807 774 LINE",
"807 909 LINE",
"75 610 LINE",
"75 483 LINE",
"807 183 LINE",
"807 318 LINE"
);
}
);
width = 898;
},
{
layerId = "58C4FD73-E369-47FC-BB2E-BA826F97CEB5";
paths = (
{
closed = 1;
nodes = (
"217 545 LINE",
"807 774 LINE",
"807 909 LINE",
"75 610 LINE",
"75 483 LINE",
"807 183 LINE",
"807 318 LINE"
);
}
);
width = 898;
}
);
unicode = 003C;
},
{
glyphname = equal;
layers = (
{
layerId = UUID0;
paths = (
{
closed = 1;
nodes = (
"807 359 LINE",
"807 471 LINE",
"89 471 LINE",
"89 359 LINE"
);
},
{
closed = 1;
nodes = (
"807 620 LINE",
"807 733 LINE",
"89 733 LINE",
"89 620 LINE"
);
}
);
width = 898;
},
{
layerId = "58C4FD73-E369-47FC-BB2E-BA826F97CEB5";
paths = (
{
closed = 1;
nodes = (
"807 359 LINE",
"807 471 LINE",
"89 471 LINE",
"89 359 LINE"
);
},
{
closed = 1;
nodes = (
"807 620 LINE",
"807 733 LINE",
"89 733 LINE",
"89 620 LINE"
);
}
);
width = 898;
}
);
unicode = 003D;
},
{
glyphname = greater;
layers = (
{
layerId = UUID0;
paths = (
{
closed = 1;
nodes = (
"680 545 LINE",
"89 318 LINE",
"89 183 LINE",
"823 483 LINE",
"823 610 LINE",
"89 909 LINE",
"89 774 LINE"
);
}
);
width = 898;
},
{
layerId = "58C4FD73-E369-47FC-BB2E-BA826F97CEB5";
paths = (
{
closed = 1;
nodes = (
"680 545 LINE",
"89 318 LINE",
"89 183 LINE",
"823 483 LINE",
"823 610 LINE",
"89 909 LINE",
"89 774 LINE"
);
}
);
width = 898;
}
);
unicode = 003E;
},
{
glyphname = question;
layers = (
{
layerId = UUID0;
paths = (
{
closed = 1;
nodes = (
"154 1117 OFFCURVE",
"104 1070 CURVE",
"139 936 LINE",
"196 995 OFFCURVE",
"263 1021 OFFCURVE",
"323 1021 CURVE SMOOTH",
"433 1021 OFFCURVE",
"467 964 OFFCURVE",
"467 920 CURVE SMOOTH",
"467 866 OFFCURVE",
"427 815 OFFCURVE",
"363 733 CURVE SMOOTH",
"297 648 OFFCURVE",
"265 545 OFFCURVE",
"265 329 CURVE",
"404 329 LINE",
"404 540 OFFCURVE",
"420 602 OFFCURVE",
"498 693 CURVE SMOOTH",
"563 769 OFFCURVE",
"620 836 OFFCURVE",
"620 927 CURVE SMOOTH",
"620 1063 OFFCURVE",
"522 1152 OFFCURVE",
"344 1152 CURVE SMOOTH",
"251 1152 OFFCURVE"
);
},
{
closed = 1;
nodes = (
"281 -19 OFFCURVE",
"336 -19 CURVE SMOOTH",
"392 -19 OFFCURVE",
"438 27 OFFCURVE",
"438 82 CURVE SMOOTH",
"438 138 OFFCURVE",
"392 183 OFFCURVE",
"336 183 CURVE SMOOTH",
"281 183 OFFCURVE",
"236 138 OFFCURVE",
"236 82 CURVE SMOOTH",
"236 27 OFFCURVE"
);
}
);
width = 785;
},
{
layerId = "58C4FD73-E369-47FC-BB2E-BA826F97CEB5";
paths = (
{
closed = 1;
nodes = (
"154 1117 OFFCURVE",
"104 1070 CURVE",
"139 936 LINE",
"196 995 OFFCURVE",
"263 1021 OFFCURVE",
"323 1021 CURVE SMOOTH",
"433 1021 OFFCURVE",
"467 964 OFFCURVE",
"467 920 CURVE SMOOTH",
"467 866 OFFCURVE",
"427 815 OFFCURVE",
"363 733 CURVE SMOOTH",
"297 648 OFFCURVE",
"265 545 OFFCURVE",
"265 329 CURVE",
"404 329 LINE",
"404 540 OFFCURVE",
"420 602 OFFCURVE",
"498 693 CURVE SMOOTH",
"563 769 OFFCURVE",
"620 836 OFFCURVE",
"620 927 CURVE SMOOTH",
"620 1063 OFFCURVE",
"522 1152 OFFCURVE",
"344 1152 CURVE SMOOTH",
"251 1152 OFFCURVE"
);
},
{
closed = 1;
nodes = (
"281 -19 OFFCURVE",
"336 -19 CURVE SMOOTH",
"392 -19 OFFCURVE",
"438 27 OFFCURVE",
"438 82 CURVE SMOOTH",
"438 138 OFFCURVE",
"392 183 OFFCURVE",
"336 183 CURVE SMOOTH",
"281 183 OFFCURVE",
"236 138 OFFCURVE",
"236 82 CURVE SMOOTH",
"236 27 OFFCURVE"
);
}
);
width = 785;
}
);
unicode = 003F;
},
{
glyphname = at;
layers = (
{
layerId = UUID0;
paths = (
{
closed = 1;
nodes = (
"978 1052 OFFCURVE",
"658 1052 CURVE SMOOTH",
"348 1052 OFFCURVE",
"71 842 OFFCURVE",
"71 430 CURVE SMOOTH",
"71 36 OFFCURVE",
"347 -176 OFFCURVE",
"639 -176 CURVE SMOOTH",
"740 -176 OFFCURVE",
"860 -141 OFFCURVE",
"935 -88 CURVE",
"857 -8 LINE",
"791 -53 OFFCURVE",
"720 -71 OFFCURVE",
"651 -71 CURVE SMOOTH",
"391 -71 OFFCURVE",
"180 129 OFFCURVE",
"180 453 CURVE SMOOTH",
"180 750 OFFCURVE",
"405 950 OFFCURVE",
"651 950 CURVE SMOOTH",
"944 950 OFFCURVE",
"1096 750 OFFCURVE",
"1096 501 CURVE SMOOTH",
"1096 323 OFFCURVE",
"1009 236 OFFCURVE",
"958 236 CURVE SMOOTH",
"914 236 OFFCURVE",
"879 306 OFFCURVE",
"879 471 CURVE SMOOTH",
"879 733 LINE",
"814 759 OFFCURVE",
"719 778 OFFCURVE",
"658 778 CURVE SMOOTH",
"451 778 OFFCURVE",
"340 596 OFFCURVE",
"340 396 CURVE SMOOTH",
"340 219 OFFCURVE",
"450 137 OFFCURVE",
"550 137 CURVE SMOOTH",
"637 137 OFFCURVE",
"739 274 OFFCURVE",
"778 366 CURVE",
"785 240 OFFCURVE",
"844 135 OFFCURVE",
"935 135 CURVE SMOOTH",
"1066 135 OFFCURVE",
"1201 275 OFFCURVE",
"1201 523 CURVE SMOOTH",
"1201 843 OFFCURVE"
);
},
{
closed = 1;
nodes = (
"742 662 OFFCURVE",
"767 651 CURVE",
"767 539 LINE",
"743 435 OFFCURVE",
"626 239 OFFCURVE",
"560 239 CURVE SMOOTH",
"505 239 OFFCURVE",
"453 297 OFFCURVE",
"453 430 CURVE SMOOTH",
"453 555 OFFCURVE",
"511 677 OFFCURVE",
"636 677 CURVE SMOOTH",
"692 677 OFFCURVE"
);
}
);
width = 1273;
},
{
layerId = "58C4FD73-E369-47FC-BB2E-BA826F97CEB5";
paths = (
{
closed = 1;
nodes = (
"978 1052 OFFCURVE",
"658 1052 CURVE SMOOTH",
"348 1052 OFFCURVE",
"71 842 OFFCURVE",
"71 430 CURVE SMOOTH",
"71 36 OFFCURVE",
"347 -176 OFFCURVE",
"639 -176 CURVE SMOOTH",
"740 -176 OFFCURVE",
"860 -141 OFFCURVE",
"935 -88 CURVE",
"857 -8 LINE",
"791 -53 OFFCURVE",
"720 -71 OFFCURVE",
"651 -71 CURVE SMOOTH",
"391 -71 OFFCURVE",
"180 129 OFFCURVE",
"180 453 CURVE SMOOTH",
"180 750 OFFCURVE",
"405 950 OFFCURVE",
"651 950 CURVE SMOOTH",
"944 950 OFFCURVE",
"1096 750 OFFCURVE",
"1096 501 CURVE SMOOTH",
"1096 323 OFFCURVE",
"1009 236 OFFCURVE",
"958 236 CURVE SMOOTH",
"914 236 OFFCURVE",
"879 306 OFFCURVE",
"879 471 CURVE SMOOTH",
"879 733 LINE",
"814 759 OFFCURVE",
"719 778 OFFCURVE",
"658 778 CURVE SMOOTH",
"451 778 OFFCURVE",
"340 596 OFFCURVE",
"340 396 CURVE SMOOTH",
"340 219 OFFCURVE",
"450 137 OFFCURVE",
"550 137 CURVE SMOOTH",
"637 137 OFFCURVE",
"739 274 OFFCURVE",
"778 366 CURVE",
"785 240 OFFCURVE",
"844 135 OFFCURVE",
"935 135 CURVE SMOOTH",
"1066 135 OFFCURVE",
"1201 275 OFFCURVE",
"1201 523 CURVE SMOOTH",
"1201 843 OFFCURVE"
);
},
{
closed = 1;
nodes = (
"742 662 OFFCURVE",
"767 651 CURVE",
"767 539 LINE",
"743 435 OFFCURVE",
"626 239 OFFCURVE",
"560 239 CURVE SMOOTH",
"505 239 OFFCURVE",
"453 297 OFFCURVE",
"453 430 CURVE SMOOTH",
"453 555 OFFCURVE",
"511 677 OFFCURVE",
"636 677 CURVE SMOOTH",
"692 677 OFFCURVE"
);
}
);
width = 1273;
}
);
unicode = 0040;
},
{
glyphname = A;
layers = (
{
anchors = (
{
name = above;
position = "{514, 1150}";
}
);
layerId = UUID0;
paths = (
{
closed = 1;
nodes = (
"283 288 LINE",
"743 288 LINE",
"845 0 LINE",
"998 0 LINE",
"973 60 OFFCURVE",
"944 127 OFFCURVE",
"894 265 CURVE SMOOTH",
"595 1092 LINE",
"434 1092 LINE",
"135 265 LINE SMOOTH",
"84 125 OFFCURVE",
"57 61 OFFCURVE",
"29 0 CURVE",
"183 0 LINE"
);
},
{
closed = 1;
nodes = (
"324 404 LINE",
"513 946 LINE",
"703 404 LINE"
);
}
);
width = 1043;
},
{
anchors = (
{
name = above;
position = "{514, 1150}";
}
);
layerId = "58C4FD73-E369-47FC-BB2E-BA826F97CEB5";
paths = (
{
closed = 1;
nodes = (
"283 288 LINE",
"743 288 LINE",
"845 0 LINE",
"998 0 LINE",
"973 60 OFFCURVE",
"944 127 OFFCURVE",
"894 265 CURVE SMOOTH",
"595 1092 LINE",
"434 1092 LINE",
"135 265 LINE SMOOTH",
"84 125 OFFCURVE",
"57 61 OFFCURVE",
"29 0 CURVE",
"183 0 LINE"
);
},
{
closed = 1;
nodes = (
"324 404 LINE",
"513 946 LINE",
"703 404 LINE"
);
}
);
width = 1043;
}
);
unicode = 0041;
},
{
glyphname = B;
layers = (
{
layerId = UUID0;
paths = (
{
closed = 1;
nodes = (
"304 981 OFFCURVE",
"383 983 OFFCURVE",
"441 983 CURVE SMOOTH",
"592 983 OFFCURVE",
"651 926 OFFCURVE",
"651 815 CURVE SMOOTH",
"651 712 OFFCURVE",
"579 639 OFFCURVE",
"419 639 CURVE SMOOTH",
"274 639 LINE",
"274 979 LINE"
);
},
{
closed = 1;
nodes = (
"131 193 OFFCURVE",
"131 60 OFFCURVE",
"120 0 CURVE",
"160 -4 OFFCURVE",
"300 -8 OFFCURVE",
"453 -8 CURVE SMOOTH",
"739 -8 OFFCURVE",
"853 133 OFFCURVE",
"853 314 CURVE SMOOTH",
"853 501 OFFCURVE",
"728 567 OFFCURVE",
"614 598 CURVE",
"715 637 OFFCURVE",
"797 712 OFFCURVE",
"797 838 CURVE SMOOTH",
"797 1034 OFFCURVE",
"672 1099 OFFCURVE",
"448 1099 CURVE SMOOTH",
"322 1099 OFFCURVE",
"185 1096 OFFCURVE",
"120 1092 CURVE",
"131 1033 OFFCURVE",
"131 895 OFFCURVE",
"131 748 CURVE SMOOTH",
"131 340 LINE"
);
},
{
closed = 1;
nodes = (
"448 523 LINE SMOOTH",
"623 523 OFFCURVE",
"707 452 OFFCURVE",
"707 314 CURVE SMOOTH",
"707 159 OFFCURVE",
"584 112 OFFCURVE",
"456 112 CURVE SMOOTH",
"372 112 OFFCURVE",
"300 115 OFFCURVE",
"274 116 CURVE",
"274 523 LINE"
);
}
);
width = 961;
},
{
layerId = "58C4FD73-E369-47FC-BB2E-BA826F97CEB5";
paths = (
{
closed = 1;
nodes = (
"304 981 OFFCURVE",
"383 983 OFFCURVE",
"441 983 CURVE SMOOTH",
"592 983 OFFCURVE",
"651 926 OFFCURVE",
"651 815 CURVE SMOOTH",
"651 712 OFFCURVE",
"579 639 OFFCURVE",
"419 639 CURVE SMOOTH",
"274 639 LINE",
"274 979 LINE"
);
},
{
closed = 1;
nodes = (
"131 193 OFFCURVE",
"131 60 OFFCURVE",
"120 0 CURVE",
"160 -4 OFFCURVE",
"300 -8 OFFCURVE",
"453 -8 CURVE SMOOTH",
"739 -8 OFFCURVE",
"853 133 OFFCURVE",
"853 314 CURVE SMOOTH",
"853 501 OFFCURVE",
"728 567 OFFCURVE",
"614 598 CURVE",
"715 637 OFFCURVE",
"797 712 OFFCURVE",
"797 838 CURVE SMOOTH",
"797 1034 OFFCURVE",
"672 1099 OFFCURVE",
"448 1099 CURVE SMOOTH",
"322 1099 OFFCURVE",
"185 1096 OFFCURVE",
"120 1092 CURVE",
"131 1033 OFFCURVE",
"131 895 OFFCURVE",
"131 748 CURVE SMOOTH",
"131 340 LINE"
);
},
{
closed = 1;
nodes = (
"448 523 LINE SMOOTH",
"623 523 OFFCURVE",
"707 452 OFFCURVE",
"707 314 CURVE SMOOTH",
"707 159 OFFCURVE",
"584 112 OFFCURVE",
"456 112 CURVE SMOOTH",
"372 112 OFFCURVE",
"300 115 OFFCURVE",
"274 116 CURVE",
"274 523 LINE"
);
}
);
width = 961;
}
);
unicode = 0042;
},
{
glyphname = C;
layers = (
{
anchors = (
{
name = below;
position = "{559, -1}";
}
);
layerId = UUID0;
paths = (
{
closed = 1;
nodes = (
"806 166 OFFCURVE",
"682 112 OFFCURVE",
"568 112 CURVE SMOOTH",
"366 112 OFFCURVE",
"217 281 OFFCURVE",
"217 550 CURVE SMOOTH",
"217 837 OFFCURVE",
"367 983 OFFCURVE",
"576 983 CURVE SMOOTH",
"666 983 OFFCURVE",
"770 956 OFFCURVE",
"864 872 CURVE",
"909 1006 LINE",
"802 1086 OFFCURVE",
"683 1111 OFFCURVE",
"576 1111 CURVE SMOOTH",
"313 1111 OFFCURVE",
"71 917 OFFCURVE",
"71 531 CURVE SMOOTH",
"71 195 OFFCURVE",
"258 -19 OFFCURVE",
"560 -19 CURVE SMOOTH",
"674 -19 OFFCURVE",
"833 24 OFFCURVE",
"920 104 CURVE",
"890 251 LINE"
);
}
);
width = 1014;
},
{
anchors = (
{
name = below;
position = "{559, -1}";
}
);
layerId = "58C4FD73-E369-47FC-BB2E-BA826F97CEB5";
paths = (
{
closed = 1;
nodes = (
"806 166 OFFCURVE",
"682 112 OFFCURVE",
"568 112 CURVE SMOOTH",
"366 112 OFFCURVE",
"217 281 OFFCURVE",
"217 550 CURVE SMOOTH",
"217 837 OFFCURVE",
"367 983 OFFCURVE",
"576 983 CURVE SMOOTH",
"666 983 OFFCURVE",
"770 956 OFFCURVE",
"864 872 CURVE",
"909 1006 LINE",
"802 1086 OFFCURVE",
"683 1111 OFFCURVE",
"576 1111 CURVE SMOOTH",
"313 1111 OFFCURVE",
"71 917 OFFCURVE",
"71 531 CURVE SMOOTH",
"71 195 OFFCURVE",
"258 -19 OFFCURVE",
"560 -19 CURVE SMOOTH",
"674 -19 OFFCURVE",
"833 24 OFFCURVE",
"920 104 CURVE",
"890 251 LINE"
);
}
);
width = 1014;
}
);
unicode = 0043;
},
{
glyphname = D;
layers = (
{
layerId = UUID0;
paths = (
{
closed = 1;
nodes = (
"129 193 OFFCURVE",
"131 60 OFFCURVE",
"120 0 CURVE",
"120 0 OFFCURVE",
"349 -8 OFFCURVE",
"445 -8 CURVE SMOOTH",
"664 -8 OFFCURVE",
"983 108 OFFCURVE",
"983 554 CURVE SMOOTH",
"983 1042 OFFCURVE",
"620 1099 OFFCURVE",
"460 1099 CURVE SMOOTH",
"359 1099 OFFCURVE",
"183 1096 OFFCURVE",
"120 1092 CURVE",
"131 1033 OFFCURVE",
"131 895 OFFCURVE",
"131 748 CURVE SMOOTH",
"131 340 LINE"
);
},
{
closed = 1;
nodes = (
"311 978 OFFCURVE",
"392 979 OFFCURVE",
"441 979 CURVE SMOOTH",
"656 979 OFFCURVE",
"838 873 OFFCURVE",
"838 539 CURVE SMOOTH",
"838 231 OFFCURVE",
"638 116 OFFCURVE",
"438 116 CURVE SMOOTH",
"366 116 OFFCURVE",
"308 121 OFFCURVE",
"274 123 CURVE",
"274 977 LINE"
);
}
);
width = 1073;
},
{
layerId = "58C4FD73-E369-47FC-BB2E-BA826F97CEB5";
paths = (
{
closed = 1;
nodes = (
"129 193 OFFCURVE",
"131 60 OFFCURVE",
"120 0 CURVE",
"120 0 OFFCURVE",
"349 -8 OFFCURVE",
"445 -8 CURVE SMOOTH",
"664 -8 OFFCURVE",
"983 108 OFFCURVE",
"983 554 CURVE SMOOTH",
"983 1042 OFFCURVE",
"620 1099 OFFCURVE",
"460 1099 CURVE SMOOTH",
"359 1099 OFFCURVE",
"183 1096 OFFCURVE",
"120 1092 CURVE",
"131 1033 OFFCURVE",
"131 895 OFFCURVE",
"131 748 CURVE SMOOTH",
"131 340 LINE"
);
},
{
closed = 1;
nodes = (
"311 978 OFFCURVE",
"392 979 OFFCURVE",
"441 979 CURVE SMOOTH",
"656 979 OFFCURVE",
"838 873 OFFCURVE",
"838 539 CURVE SMOOTH",
"838 231 OFFCURVE",
"638 116 OFFCURVE",
"438 116 CURVE SMOOTH",
"366 116 OFFCURVE",
"308 121 OFFCURVE",
"274 123 CURVE",
"274 977 LINE"
);
}
);
width = 1073;
}
);
unicode = 0044;
},
{
glyphname = E;
layers = (
{
anchors = (
{
name = above;
position = "{442, 1150}";
}
);
layerId = UUID0;
paths = (
{
closed = 1;
nodes = (
"274 969 LINE",
"755 969 LINE",
"755 1092 LINE",
"120 1092 LINE",
"131 1033 OFFCURVE",
"131 914 OFFCURVE",
"131 767 CURVE SMOOTH",
"131 325 LINE SMOOTH",
"131 178 OFFCURVE",
"131 60 OFFCURVE",
"120 0 CURVE",
"778 0 LINE",
"778 135 LINE",
"718 123 OFFCURVE",
"617 123 OFFCURVE",
"471 123 CURVE SMOOTH",
"274 123 LINE",
"274 513 LINE",
"699 513 LINE",
"699 633 LINE",
"274 633 LINE"
);
}
);
width = 867;
},
{
anchors = (
{
name = above;
position = "{442, 1150}";
}
);
layerId = "58C4FD73-E369-47FC-BB2E-BA826F97CEB5";
paths = (
{
closed = 1;
nodes = (
"274 969 LINE",
"755 969 LINE",
"755 1092 LINE",
"120 1092 LINE",
"131 1033 OFFCURVE",
"131 914 OFFCURVE",
"131 767 CURVE SMOOTH",
"131 325 LINE SMOOTH",
"131 178 OFFCURVE",
"131 60 OFFCURVE",
"120 0 CURVE",
"778 0 LINE",
"778 135 LINE",
"718 123 OFFCURVE",
"617 123 OFFCURVE",
"471 123 CURVE SMOOTH",
"274 123 LINE",
"274 513 LINE",
"699 513 LINE",
"699 633 LINE",
"274 633 LINE"
);
}
);
width = 867;
}
);
unicode = 0045;
},
{
glyphname = F;
layers = (
{
layerId = UUID0;
paths = (
{
closed = 1;
nodes = (
"274 969 LINE",
"770 969 LINE",
"770 1092 LINE",
"120 1092 LINE",
"131 1033 OFFCURVE",
"131 911 OFFCURVE",
"131 763 CURVE SMOOTH",
"131 325 LINE SMOOTH",
"131 178 OFFCURVE",
"131 60 OFFCURVE",
"120 0 CURVE",
"284 0 LINE",
"274 58 OFFCURVE",
"274 178 OFFCURVE",
"274 325 CURVE SMOOTH",
"274 504 LINE",
"707 504 LINE",
"707 624 LINE",
"274 624 LINE"
);
}
);
width = 860;
},
{
layerId = "58C4FD73-E369-47FC-BB2E-BA826F97CEB5";
paths = (
{
closed = 1;
nodes = (
"274 969 LINE",
"770 969 LINE",
"770 1092 LINE",
"120 1092 LINE",
"131 1033 OFFCURVE",
"131 911 OFFCURVE",
"131 763 CURVE SMOOTH",
"131 325 LINE SMOOTH",
"131 178 OFFCURVE",
"131 60 OFFCURVE",
"120 0 CURVE",
"284 0 LINE",
"274 58 OFFCURVE",
"274 178 OFFCURVE",
"274 325 CURVE SMOOTH",
"274 504 LINE",
"707 504 LINE",
"707 624 LINE",
"274 624 LINE"
);
}
);
width = 860;
}
);
unicode = 0046;
},
{
glyphname = G;
layers = (
{
layerId = UUID0;
paths = (
{
closed = 1;
nodes = (
"550 558 LINE",
"550 434 LINE",
"812 434 LINE",
"812 183 LINE",
"720 127 OFFCURVE",
"655 112 OFFCURVE",
"566 112 CURVE SMOOTH",
"352 112 OFFCURVE",
"217 282 OFFCURVE",
"217 558 CURVE SMOOTH",
"217 818 OFFCURVE",
"359 983 OFFCURVE",
"587 983 CURVE SMOOTH",
"686 983 OFFCURVE",
"782 961 OFFCURVE",
"894 872 CURVE",
"942 1006 LINE",
"812 1093 OFFCURVE",
"708 1111 OFFCURVE",
"587 1111 CURVE SMOOTH",
"300 1111 OFFCURVE",
"71 897 OFFCURVE",
"71 539 CURVE SMOOTH",
"71 180 OFFCURVE",
"275 -19 OFFCURVE",
"558 -19 CURVE SMOOTH",
"686 -19 OFFCURVE",
"800 8 OFFCURVE",
"954 116 CURVE",
"954 558 LINE"
);
}
);
width = 1062;
},
{
layerId = "58C4FD73-E369-47FC-BB2E-BA826F97CEB5";
paths = (
{
closed = 1;
nodes = (
"550 558 LINE",
"550 434 LINE",
"812 434 LINE",
"812 183 LINE",
"720 127 OFFCURVE",
"655 112 OFFCURVE",
"566 112 CURVE SMOOTH",
"352 112 OFFCURVE",
"217 282 OFFCURVE",
"217 558 CURVE SMOOTH",
"217 818 OFFCURVE",
"359 983 OFFCURVE",
"587 983 CURVE SMOOTH",
"686 983 OFFCURVE",
"782 961 OFFCURVE",
"894 872 CURVE",
"942 1006 LINE",
"812 1093 OFFCURVE",
"708 1111 OFFCURVE",
"587 1111 CURVE SMOOTH",
"300 1111 OFFCURVE",
"71 897 OFFCURVE",
"71 539 CURVE SMOOTH",
"71 180 OFFCURVE",
"275 -19 OFFCURVE",
"558 -19 CURVE SMOOTH",
"686 -19 OFFCURVE",
"800 8 OFFCURVE",
"954 116 CURVE",
"954 558 LINE"
);
}
);
width = 1062;
}
);
unicode = 0047;
},
{
glyphname = H;
layers = (
{
layerId = UUID0;
paths = (
{
closed = 1;
nodes = (
"954 60 OFFCURVE",
"954 178 OFFCURVE",
"954 325 CURVE SMOOTH",
"954 767 LINE SMOOTH",
"954 914 OFFCURVE",
"954 1033 OFFCURVE",
"964 1092 CURVE",
"812 1092 LINE",
"812 624 LINE",
"274 624 LINE",
"274 1092 LINE",
"120 1092 LINE",
"131 1033 OFFCURVE",
"131 914 OFFCURVE",
"131 767 CURVE SMOOTH",
"131 325 LINE SMOOTH",
"131 178 OFFCURVE",
"131 60 OFFCURVE",
"120 0 CURVE",
"274 0 LINE",
"274 504 LINE",
"812 504 LINE",
"812 0 LINE",
"964 0 LINE"
);
}
);
width = 1103;
},
{
layerId = "58C4FD73-E369-47FC-BB2E-BA826F97CEB5";
paths = (
{
closed = 1;
nodes = (
"954 60 OFFCURVE",
"954 178 OFFCURVE",
"954 325 CURVE SMOOTH",
"954 767 LINE SMOOTH",
"954 914 OFFCURVE",
"954 1033 OFFCURVE",
"964 1092 CURVE",
"812 1092 LINE",
"812 624 LINE",
"274 624 LINE",
"274 1092 LINE",
"120 1092 LINE",
"131 1033 OFFCURVE",
"131 914 OFFCURVE",
"131 767 CURVE SMOOTH",
"131 325 LINE SMOOTH",
"131 178 OFFCURVE",
"131 60 OFFCURVE",
"120 0 CURVE",
"274 0 LINE",
"274 504 LINE",
"812 504 LINE",
"812 0 LINE",
"964 0 LINE"
);
}
);
width = 1103;
}
);
unicode = 0048;
},
{
glyphname = I;
layers = (
{
anchors = (
{
name = above;
position = "{360, 1150}";
}
);
layerId = UUID0;
paths = (
{
closed = 1;
nodes = (
"104 983 LINE",
"284 983 LINE",
"284 108 LINE",
"104 108 LINE",
"104 0 LINE",
"610 0 LINE",
"610 108 LINE",
"426 108 LINE",
"426 983 LINE",
"610 983 LINE",
"610 1092 LINE",
"104 1092 LINE"
);
}
);
width = 730;
},
{
anchors = (
{
name = above;
position = "{360, 1150}";
}
);
layerId = "58C4FD73-E369-47FC-BB2E-BA826F97CEB5";
paths = (
{
closed = 1;
nodes = (
"104 983 LINE",
"284 983 LINE",
"284 108 LINE",
"104 108 LINE",
"104 0 LINE",
"610 0 LINE",
"610 108 LINE",
"426 108 LINE",
"426 983 LINE",
"610 983 LINE",
"610 1092 LINE",
"104 1092 LINE"
);
}
);
width = 730;
}
);
unicode = 0049;
},
{
glyphname = J;
layers = (
{
layerId = UUID0;
paths = (
{
closed = 1;
nodes = (
"440 1013 OFFCURVE",
"441 879 OFFCURVE",
"441 733 CURVE",
"441 363 LINE SMOOTH",
"441 192 OFFCURVE",
"364 116 OFFCURVE",
"255 116 CURVE SMOOTH",
"185 116 OFFCURVE",
"109 147 OFFCURVE",
"60 205 CURVE",
"26 66 LINE",
"79 7 OFFCURVE",
"186 -19 OFFCURVE",
"258 -19 CURVE SMOOTH",
"450 -19 OFFCURVE",
"583 88 OFFCURVE",
"583 400 CURVE SMOOTH",
"583 1092 LINE",
"430 1092 LINE"
);
}
);
width = 722;
},
{
layerId = "58C4FD73-E369-47FC-BB2E-BA826F97CEB5";
paths = (
{
closed = 1;
nodes = (
"440 1013 OFFCURVE",
"441 879 OFFCURVE",
"441 733 CURVE",
"441 363 LINE SMOOTH",
"441 192 OFFCURVE",
"364 116 OFFCURVE",
"255 116 CURVE SMOOTH",
"185 116 OFFCURVE",
"109 147 OFFCURVE",
"60 205 CURVE",
"26 66 LINE",
"79 7 OFFCURVE",
"186 -19 OFFCURVE",
"258 -19 CURVE SMOOTH",
"450 -19 OFFCURVE",
"583 88 OFFCURVE",
"583 400 CURVE SMOOTH",
"583 1092 LINE",
"430 1092 LINE"
);
}
);
width = 722;
}
);
unicode = 004A;
},
{
glyphname = K;
layers = (
{
layerId = UUID0;
paths = (
{
closed = 1;
nodes = (
"220 525 LINE",
"318 558 LINE",
"396 554 LINE",
"872 1092 LINE",
"693 1092 LINE"
);
},
{
closed = 1;
nodes = (
"737 0 LINE",
"920 0 LINE",
"363 643 LINE",
"261 550 LINE"
);
},
{
closed = 1;
nodes = (
"120 1092 LINE",
"131 1033 OFFCURVE",
"131 914 OFFCURVE",
"131 767 CURVE SMOOTH",
"131 325 LINE SMOOTH",
"131 178 OFFCURVE",
"131 60 OFFCURVE",
"120 0 CURVE",
"274 0 LINE",
"274 1092 LINE"
);
}
);
width = 979;
},
{
layerId = "58C4FD73-E369-47FC-BB2E-BA826F97CEB5";
paths = (
{
closed = 1;
nodes = (
"220 525 LINE",
"318 558 LINE",
"396 554 LINE",
"872 1092 LINE",
"693 1092 LINE"
);
},
{
closed = 1;
nodes = (
"737 0 LINE",
"920 0 LINE",
"363 643 LINE",
"261 550 LINE"
);
},
{
closed = 1;
nodes = (
"120 1092 LINE",
"131 1033 OFFCURVE",
"131 914 OFFCURVE",
"131 767 CURVE SMOOTH",
"131 325 LINE SMOOTH",
"131 178 OFFCURVE",
"131 60 OFFCURVE",
"120 0 CURVE",
"274 0 LINE",
"274 1092 LINE"
);
}
);
width = 979;
}
);
unicode = 004B;
},
{
glyphname = L;
layers = (
{
layerId = UUID0;
paths = (
{
closed = 1;
nodes = (
"274 1092 LINE",
"120 1092 LINE",
"131 1033 OFFCURVE",
"131 914 OFFCURVE",
"131 767 CURVE SMOOTH",
"131 325 LINE SMOOTH",
"131 178 OFFCURVE",
"131 60 OFFCURVE",
"120 0 CURVE",
"767 0 LINE",
"767 135 LINE",
"707 123 OFFCURVE",
"587 123 OFFCURVE",
"441 123 CURVE SMOOTH",
"274 123 LINE"
);
}
);
width = 807;
},
{
layerId = "58C4FD73-E369-47FC-BB2E-BA826F97CEB5";
paths = (
{
closed = 1;
nodes = (
"274 1092 LINE",
"120 1092 LINE",
"131 1033 OFFCURVE",
"131 914 OFFCURVE",
"131 767 CURVE SMOOTH",
"131 325 LINE SMOOTH",
"131 178 OFFCURVE",
"131 60 OFFCURVE",
"120 0 CURVE",
"767 0 LINE",
"767 135 LINE",
"707 123 OFFCURVE",
"587 123 OFFCURVE",
"441 123 CURVE SMOOTH",
"274 123 LINE"
);
}
);
width = 807;
}
);
unicode = 004C;
},
{
glyphname = M;
layers = (
{
layerId = UUID0;
paths = (
{
closed = 1;
nodes = (
"340 1092 LINE",
"214 1092 LINE",
"591 0 LINE",
"737 0 LINE",
"1112 1092 LINE",
"987 1092 LINE",
"662 154 LINE"
);
},
{
closed = 1;
nodes = (
"172 1092 OFFCURVE",
"139 147 OFFCURVE",
"120 0 CURVE",
"258 0 LINE",
"282 902 LINE",
"303 1092 LINE",
"172 1092 LINE"
);
},
{
closed = 1;
nodes = (
"1183 147 OFFCURVE",
"1152 1092 OFFCURVE",
"1152 1092 CURVE",
"1021 1092 LINE",
"1045 902 LINE",
"1066 0 LINE",
"1204 0 LINE"
);
}
);
width = 1342;
},
{
layerId = "58C4FD73-E369-47FC-BB2E-BA826F97CEB5";
paths = (
{
closed = 1;
nodes = (
"340 1092 LINE",
"214 1092 LINE",
"591 0 LINE",
"737 0 LINE",
"1112 1092 LINE",
"987 1092 LINE",
"662 154 LINE"
);
},
{
closed = 1;
nodes = (
"172 1092 OFFCURVE",
"139 147 OFFCURVE",
"120 0 CURVE",
"258 0 LINE",
"282 902 LINE",
"303 1092 LINE",
"172 1092 LINE"
);
},
{
closed = 1;
nodes = (
"1183 147 OFFCURVE",
"1152 1092 OFFCURVE",
"1152 1092 CURVE",
"1021 1092 LINE",
"1045 902 LINE",
"1066 0 LINE",
"1204 0 LINE"
);
}
);
width = 1342;
}
);
unicode = 004D;
},
{
glyphname = N;
layers = (
{
anchors = (
{
name = above;
position = "{546, 1150}";
}
);
layerId = UUID0;
paths = (
{
closed = 1;
nodes = (
"849 0 LINE",
"954 75 LINE",
"255 1092 LINE",
"149 1014 LINE"
);
},
{
closed = 1;
nodes = (
"973 0 LINE",
"973 767 LINE SMOOTH",
"973 914 OFFCURVE",
"974 1033 OFFCURVE",
"983 1092 CURVE",
"849 1092 LINE",
"849 0 LINE"
);
},
{
closed = 1;
nodes = (
"120 1092 LINE",
"131 1033 OFFCURVE",
"131 914 OFFCURVE",
"131 767 CURVE SMOOTH",
"131 325 LINE SMOOTH",
"131 178 OFFCURVE",
"131 60 OFFCURVE",
"120 0 CURVE",
"255 0 LINE",
"255 1092 LINE"
);
}
);
width = 1122;
},
{
anchors = (
{
name = above;
position = "{546, 1150}";
}
);
layerId = "58C4FD73-E369-47FC-BB2E-BA826F97CEB5";
paths = (
{
closed = 1;
nodes = (
"849 0 LINE",
"954 75 LINE",
"255 1092 LINE",
"149 1014 LINE"
);
},
{
closed = 1;
nodes = (
"973 0 LINE",
"973 767 LINE SMOOTH",
"973 914 OFFCURVE",
"974 1033 OFFCURVE",
"983 1092 CURVE",
"849 1092 LINE",
"849 0 LINE"
);
},
{
closed = 1;
nodes = (
"120 1092 LINE",
"131 1033 OFFCURVE",
"131 914 OFFCURVE",
"131 767 CURVE SMOOTH",
"131 325 LINE SMOOTH",
"131 178 OFFCURVE",
"131 60 OFFCURVE",
"120 0 CURVE",
"255 0 LINE",
"255 1092 LINE"
);
}
);
width = 1122;
}
);
unicode = 004E;
},
{
glyphname = O;
layers = (
{
anchors = (
{
name = above;
position = "{545, 1150}";
}
);
layerId = UUID0;
paths = (
{
closed = 1;
nodes = (
"722 112 OFFCURVE",
"539 112 CURVE SMOOTH",
"344 112 OFFCURVE",
"217 284 OFFCURVE",
"217 558 CURVE SMOOTH",
"217 816 OFFCURVE",
"349 979 OFFCURVE",
"539 979 CURVE SMOOTH",
"728 979 OFFCURVE",
"857 811 OFFCURVE",
"857 535 CURVE SMOOTH",
"857 269 OFFCURVE"
);
},
{
closed = 1;
nodes = (
"784 1111 OFFCURVE",
"545 1111 CURVE SMOOTH",
"304 1111 OFFCURVE",
"71 897 OFFCURVE",
"71 539 CURVE SMOOTH",
"71 180 OFFCURVE",
"291 -19 OFFCURVE",
"531 -19 CURVE SMOOTH",
"770 -19 OFFCURVE",
"1002 195 OFFCURVE",
"1002 554 CURVE SMOOTH",
"1002 912 OFFCURVE"
);
}
);
width = 1092;
},
{
anchors = (
{
name = above;
position = "{545, 1150}";
}
);
layerId = "58C4FD73-E369-47FC-BB2E-BA826F97CEB5";
paths = (
{
closed = 1;
nodes = (
"722 112 OFFCURVE",
"539 112 CURVE SMOOTH",
"344 112 OFFCURVE",
"217 284 OFFCURVE",
"217 558 CURVE SMOOTH",
"217 816 OFFCURVE",
"349 979 OFFCURVE",
"539 979 CURVE SMOOTH",
"728 979 OFFCURVE",
"857 811 OFFCURVE",
"857 535 CURVE SMOOTH",
"857 269 OFFCURVE"
);
},
{
closed = 1;
nodes = (
"784 1111 OFFCURVE",
"545 1111 CURVE SMOOTH",
"304 1111 OFFCURVE",
"71 897 OFFCURVE",
"71 539 CURVE SMOOTH",
"71 180 OFFCURVE",
"291 -19 OFFCURVE",
"531 -19 CURVE SMOOTH",
"770 -19 OFFCURVE",
"1002 195 OFFCURVE",
"1002 554 CURVE SMOOTH",
"1002 912 OFFCURVE"
);
}
);
width = 1092;
}
);
unicode = 004F;
},
{
glyphname = P;
layers = (
{
layerId = UUID0;
paths = (
{
closed = 1;
nodes = (
"321 417 OFFCURVE",
"383 415 OFFCURVE",
"438 415 CURVE SMOOTH",
"683 415 OFFCURVE",
"834 551 OFFCURVE",
"834 770 CURVE SMOOTH",
"834 989 OFFCURVE",
"679 1099 OFFCURVE",
"438 1099 CURVE SMOOTH",
"278 1099 OFFCURVE",
"120 1092 OFFCURVE",
"120 1092 CURVE",
"131 1033 OFFCURVE",
"131 895 OFFCURVE",
"131 748 CURVE",
"131 325 LINE SMOOTH",
"131 178 OFFCURVE",
"131 60 OFFCURVE",
"120 0 CURVE",
"284 0 LINE",
"274 58 OFFCURVE",
"274 178 OFFCURVE",
"274 325 CURVE SMOOTH",
"274 423 LINE"
);
},
{
closed = 1;
nodes = (
"324 978 OFFCURVE",
"360 979 OFFCURVE",
"430 979 CURVE SMOOTH",
"630 979 OFFCURVE",
"693 875 OFFCURVE",
"693 755 CURVE SMOOTH",
"693 636 OFFCURVE",
"636 531 OFFCURVE",
"426 531 CURVE SMOOTH",
"370 531 OFFCURVE",
"320 533 OFFCURVE",
"274 539 CURVE",
"274 977 LINE"
);
}
);
width = 894;
},
{
layerId = "58C4FD73-E369-47FC-BB2E-BA826F97CEB5";
paths = (
{
closed = 1;
nodes = (
"321 417 OFFCURVE",
"383 415 OFFCURVE",
"438 415 CURVE SMOOTH",
"683 415 OFFCURVE",
"834 551 OFFCURVE",
"834 770 CURVE SMOOTH",
"834 989 OFFCURVE",
"679 1099 OFFCURVE",
"438 1099 CURVE SMOOTH",
"278 1099 OFFCURVE",
"120 1092 OFFCURVE",
"120 1092 CURVE",
"131 1033 OFFCURVE",
"131 895 OFFCURVE",
"131 748 CURVE",
"131 325 LINE SMOOTH",
"131 178 OFFCURVE",
"131 60 OFFCURVE",
"120 0 CURVE",
"284 0 LINE",
"274 58 OFFCURVE",
"274 178 OFFCURVE",
"274 325 CURVE SMOOTH",
"274 423 LINE"
);
},
{
closed = 1;
nodes = (
"324 978 OFFCURVE",
"360 979 OFFCURVE",
"430 979 CURVE SMOOTH",
"630 979 OFFCURVE",
"693 875 OFFCURVE",
"693 755 CURVE SMOOTH",
"693 636 OFFCURVE",
"636 531 OFFCURVE",
"426 531 CURVE SMOOTH",
"370 531 OFFCURVE",
"320 533 OFFCURVE",
"274 539 CURVE",
"274 977 LINE"
);
}
);
width = 894;
}
);
unicode = 0050;
},
{
glyphname = Q;
layers = (
{
layerId = UUID0;
paths = (
{
closed = 1;
nodes = (
"788 1111 OFFCURVE",
"545 1111 CURVE SMOOTH",
"304 1111 OFFCURVE",
"71 897 OFFCURVE",
"71 539 CURVE SMOOTH",
"71 180 OFFCURVE",
"286 -19 OFFCURVE",
"527 -19 CURVE SMOOTH",
"574 -19 OFFCURVE",
"612 -14 OFFCURVE",
"655 0 CURVE",
"706 0 OFFCURVE",
"924 -143 OFFCURVE",
"987 -143 CURVE SMOOTH",
"1027 -143 OFFCURVE",
"1071 -61 OFFCURVE",
"1089 -34 CURVE",
"989 -21 OFFCURVE",
"902 21 OFFCURVE",
"807 79 CURVE",
"940 177 OFFCURVE",
"1002 358 OFFCURVE",
"1002 554 CURVE SMOOTH",
"1002 912 OFFCURVE"
);
},
{
closed = 1;
nodes = (
"722 112 OFFCURVE",
"539 112 CURVE SMOOTH",
"344 112 OFFCURVE",
"217 284 OFFCURVE",
"217 558 CURVE SMOOTH",
"217 816 OFFCURVE",
"349 979 OFFCURVE",
"539 979 CURVE SMOOTH",
"728 979 OFFCURVE",
"857 811 OFFCURVE",
"857 535 CURVE SMOOTH",
"857 269 OFFCURVE"
);
}
);
width = 1103;
},
{
layerId = "58C4FD73-E369-47FC-BB2E-BA826F97CEB5";
paths = (
{
closed = 1;
nodes = (
"788 1111 OFFCURVE",
"545 1111 CURVE SMOOTH",
"304 1111 OFFCURVE",
"71 897 OFFCURVE",
"71 539 CURVE SMOOTH",
"71 180 OFFCURVE",
"286 -19 OFFCURVE",
"527 -19 CURVE SMOOTH",
"574 -19 OFFCURVE",
"612 -14 OFFCURVE",
"655 0 CURVE",
"706 0 OFFCURVE",
"924 -143 OFFCURVE",
"987 -143 CURVE SMOOTH",
"1027 -143 OFFCURVE",
"1071 -61 OFFCURVE",
"1089 -34 CURVE",
"989 -21 OFFCURVE",
"902 21 OFFCURVE",
"807 79 CURVE",
"940 177 OFFCURVE",
"1002 358 OFFCURVE",
"1002 554 CURVE SMOOTH",
"1002 912 OFFCURVE"
);
},
{
closed = 1;
nodes = (
"722 112 OFFCURVE",
"539 112 CURVE SMOOTH",
"344 112 OFFCURVE",
"217 284 OFFCURVE",
"217 558 CURVE SMOOTH",
"217 816 OFFCURVE",
"349 979 OFFCURVE",
"539 979 CURVE SMOOTH",
"728 979 OFFCURVE",
"857 811 OFFCURVE",
"857 535 CURVE SMOOTH",
"857 269 OFFCURVE"
);
}
);
width = 1103;
}
);
unicode = 0051;
},
{
glyphname = R;
layers = (
{
layerId = UUID0;
paths = (
{
closed = 1;
nodes = (
"464 467 LINE",
"602 467 OFFCURVE",
"815 556 OFFCURVE",
"815 793 CURVE SMOOTH",
"815 1010 OFFCURVE",
"655 1099 OFFCURVE",
"423 1099 CURVE SMOOTH",
"247 1099 OFFCURVE",
"120 1092 OFFCURVE",
"120 1092 CURVE",
"131 1033 OFFCURVE",
"131 895 OFFCURVE",
"131 748 CURVE SMOOTH",
"131 325 LINE",
"131 178 OFFCURVE",
"131 60 OFFCURVE",
"120 0 CURVE",
"284 0 LINE",
"274 58 OFFCURVE",
"274 178 OFFCURVE",
"274 325 CURVE",
"274 467 LINE"
);
},
{
closed = 1;
nodes = (
"313 978 OFFCURVE",
"363 979 OFFCURVE",
"415 979 CURVE SMOOTH",
"598 979 OFFCURVE",
"674 910 OFFCURVE",
"674 782 CURVE SMOOTH",
"674 657 OFFCURVE",
"583 583 OFFCURVE",
"415 583 CURVE",
"274 583 LINE",
"274 977 LINE"
);
},
{
closed = 1;
nodes = (
"740 0 LINE",
"932 0 LINE",
"881 55 OFFCURVE",
"535 531 OFFCURVE",
"535 531 CURVE",
"420 475 LINE"
);
}
);
width = 977;
},
{
layerId = "58C4FD73-E369-47FC-BB2E-BA826F97CEB5";
paths = (
{
closed = 1;
nodes = (
"464 467 LINE",
"602 467 OFFCURVE",
"815 556 OFFCURVE",
"815 793 CURVE SMOOTH",
"815 1010 OFFCURVE",
"655 1099 OFFCURVE",
"423 1099 CURVE SMOOTH",
"247 1099 OFFCURVE",
"120 1092 OFFCURVE",
"120 1092 CURVE",
"131 1033 OFFCURVE",
"131 895 OFFCURVE",
"131 748 CURVE SMOOTH",
"131 325 LINE",
"131 178 OFFCURVE",
"131 60 OFFCURVE",
"120 0 CURVE",
"284 0 LINE",
"274 58 OFFCURVE",
"274 178 OFFCURVE",
"274 325 CURVE",
"274 467 LINE"
);
},
{
closed = 1;
nodes = (
"313 978 OFFCURVE",
"363 979 OFFCURVE",
"415 979 CURVE SMOOTH",
"598 979 OFFCURVE",
"674 910 OFFCURVE",
"674 782 CURVE SMOOTH",
"674 657 OFFCURVE",
"583 583 OFFCURVE",
"415 583 CURVE",
"274 583 LINE",
"274 977 LINE"
);
},
{
closed = 1;
nodes = (
"740 0 LINE",
"932 0 LINE",
"881 55 OFFCURVE",
"535 531 OFFCURVE",
"535 531 CURVE",
"420 475 LINE"
);
}
);
width = 977;
}
);
unicode = 0052;
},
{
glyphname = S;
layers = (
{
anchors = (
{
name = above;
position = "{452, 1150}";
}
);
layerId = UUID0;
paths = (
{
closed = 1;
nodes = (
"651 1091 OFFCURVE",
"567 1111 OFFCURVE",
"453 1111 CURVE SMOOTH",
"204 1111 OFFCURVE",
"101 935 OFFCURVE",
"101 807 CURVE SMOOTH",
"101 680 OFFCURVE",
"152 581 OFFCURVE",
"385 512 CURVE SMOOTH",
"618 442 OFFCURVE",
"655 381 OFFCURVE",
"655 303 CURVE SMOOTH",
"655 181 OFFCURVE",
"542 112 OFFCURVE",
"423 112 CURVE SMOOTH",
"313 112 OFFCURVE",
"203 149 OFFCURVE",
"104 236 CURVE",
"71 82 LINE",
"147 23 OFFCURVE",
"278 -19 OFFCURVE",
"423 -19 CURVE SMOOTH",
"626 -19 OFFCURVE",
"797 118 OFFCURVE",
"797 318 CURVE SMOOTH",
"797 480 OFFCURVE",
"688 570 OFFCURVE",
"490 628 CURVE SMOOTH",
"276 691 OFFCURVE",
"243 737 OFFCURVE",
"243 819 CURVE SMOOTH",
"243 902 OFFCURVE",
"325 979 OFFCURVE",
"445 979 CURVE SMOOTH",
"541 979 OFFCURVE",
"612 957 OFFCURVE",
"718 898 CURVE",
"748 1043 LINE"
);
}
);
width = 879;
},
{
anchors = (
{
name = above;
position = "{452, 1150}";
}
);
layerId = "58C4FD73-E369-47FC-BB2E-BA826F97CEB5";
paths = (
{
closed = 1;
nodes = (
"651 1091 OFFCURVE",
"567 1111 OFFCURVE",
"453 1111 CURVE SMOOTH",
"204 1111 OFFCURVE",
"101 935 OFFCURVE",
"101 807 CURVE SMOOTH",
"101 680 OFFCURVE",
"152 581 OFFCURVE",
"385 512 CURVE SMOOTH",
"618 442 OFFCURVE",
"655 381 OFFCURVE",
"655 303 CURVE SMOOTH",
"655 181 OFFCURVE",
"542 112 OFFCURVE",
"423 112 CURVE SMOOTH",
"313 112 OFFCURVE",
"203 149 OFFCURVE",
"104 236 CURVE",
"71 82 LINE",
"147 23 OFFCURVE",
"278 -19 OFFCURVE",
"423 -19 CURVE SMOOTH",
"626 -19 OFFCURVE",
"797 118 OFFCURVE",
"797 318 CURVE SMOOTH",
"797 480 OFFCURVE",
"688 570 OFFCURVE",
"490 628 CURVE SMOOTH",
"276 691 OFFCURVE",
"243 737 OFFCURVE",
"243 819 CURVE SMOOTH",
"243 902 OFFCURVE",
"325 979 OFFCURVE",
"445 979 CURVE SMOOTH",
"541 979 OFFCURVE",
"612 957 OFFCURVE",
"718 898 CURVE",
"748 1043 LINE"
);
}
);
width = 879;
}
);
unicode = 0053;
},
{
glyphname = T;
layers = (
{
layerId = UUID0;
paths = (
{
closed = 1;
nodes = (
"34 954 LINE",
"94 966 OFFCURVE",
"151 969 OFFCURVE",
"217 969 CURVE SMOOTH",
"393 969 LINE",
"393 325 LINE SMOOTH",
"393 178 OFFCURVE",
"390 60 OFFCURVE",
"378 0 CURVE",
"550 0 LINE",
"537 60 OFFCURVE",
"535 178 OFFCURVE",
"535 325 CURVE SMOOTH",
"535 969 LINE",
"714 969 LINE SMOOTH",
"782 969 OFFCURVE",
"838 966 OFFCURVE",
"898 954 CURVE",
"898 1092 LINE",
"34 1092 LINE"
);
}
);
width = 946;
},
{
layerId = "58C4FD73-E369-47FC-BB2E-BA826F97CEB5";
paths = (
{
closed = 1;
nodes = (
"34 954 LINE",
"94 966 OFFCURVE",
"151 969 OFFCURVE",
"217 969 CURVE SMOOTH",
"393 969 LINE",
"393 325 LINE SMOOTH",
"393 178 OFFCURVE",
"390 60 OFFCURVE",
"378 0 CURVE",
"550 0 LINE",
"537 60 OFFCURVE",
"535 178 OFFCURVE",
"535 325 CURVE SMOOTH",
"535 969 LINE",
"714 969 LINE SMOOTH",
"782 969 OFFCURVE",
"838 966 OFFCURVE",
"898 954 CURVE",
"898 1092 LINE",
"34 1092 LINE"
);
}
);
width = 946;
}
);
unicode = 0054;
},
{
glyphname = U;
layers = (
{
anchors = (
{
name = above;
position = "{531, 1150}";
}
);
layerId = UUID0;
paths = (
{
closed = 1;
nodes = (
"785 419 LINE SMOOTH",
"785 223 OFFCURVE",
"724 101 OFFCURVE",
"531 101 CURVE SMOOTH",
"334 101 OFFCURVE",
"274 223 OFFCURVE",
"274 419 CURVE SMOOTH",
"274 1092 LINE",
"120 1092 LINE",
"129 1033 OFFCURVE",
"131 914 OFFCURVE",
"131 767 CURVE SMOOTH",
"131 385 LINE",
"131 142 OFFCURVE",
"258 -19 OFFCURVE",
"531 -19 CURVE SMOOTH",
"801 -19 OFFCURVE",
"927 142 OFFCURVE",
"927 385 CURVE",
"927 767 LINE SMOOTH",
"927 921 OFFCURVE",
"929 1033 OFFCURVE",
"939 1092 CURVE",
"785 1092 LINE"
);
}
);
width = 1077;
},
{
anchors = (
{
name = above;
position = "{531, 1150}";
}
);
layerId = "58C4FD73-E369-47FC-BB2E-BA826F97CEB5";
paths = (
{
closed = 1;
nodes = (
"785 419 LINE SMOOTH",
"785 223 OFFCURVE",
"724 101 OFFCURVE",
"531 101 CURVE SMOOTH",
"334 101 OFFCURVE",
"274 223 OFFCURVE",
"274 419 CURVE SMOOTH",
"274 1092 LINE",
"120 1092 LINE",
"129 1033 OFFCURVE",
"131 914 OFFCURVE",
"131 767 CURVE SMOOTH",
"131 385 LINE",
"131 142 OFFCURVE",
"258 -19 OFFCURVE",
"531 -19 CURVE SMOOTH",
"801 -19 OFFCURVE",
"927 142 OFFCURVE",
"927 385 CURVE",
"927 767 LINE SMOOTH",
"927 921 OFFCURVE",
"929 1033 OFFCURVE",
"939 1092 CURVE",
"785 1092 LINE"
);
}
);
width = 1077;
}
);
unicode = 0055;
},
{
glyphname = V;
layers = (
{
layerId = UUID0;
paths = (
{
closed = 1;
nodes = (
"503 145 LINE",
"186 1092 LINE",
"26 1092 LINE",
"51 1031 OFFCURVE",
"75 962 OFFCURVE",
"126 819 CURVE SMOOTH",
"419 0 LINE",
"587 0 LINE",
"875 819 LINE SMOOTH",
"926 963 OFFCURVE",
"953 1031 OFFCURVE",
"979 1092 CURVE",
"819 1092 LINE"
);
}
);
width = 1021;
},
{
layerId = "58C4FD73-E369-47FC-BB2E-BA826F97CEB5";
paths = (
{
closed = 1;
nodes = (
"503 145 LINE",
"186 1092 LINE",
"26 1092 LINE",
"51 1031 OFFCURVE",
"75 962 OFFCURVE",
"126 819 CURVE SMOOTH",
"419 0 LINE",
"587 0 LINE",
"875 819 LINE SMOOTH",
"926 963 OFFCURVE",
"953 1031 OFFCURVE",
"979 1092 CURVE",
"819 1092 LINE"
);
}
);
width = 1021;
}
);
unicode = 0056;
},
{
glyphname = W;
layers = (
{
layerId = UUID0;
paths = (
{
closed = 1;
nodes = (
"1193 0 LINE",
"1421 819 LINE SMOOTH",
"1461 964 OFFCURVE",
"1483 1031 OFFCURVE",
"1508 1092 CURVE",
"1342 1092 LINE",
"1099 97 LINE",
"1107 0 LINE"
);
},
{
closed = 1;
nodes = (
"699 1092 LINE",
"740 977 LINE",
"1024 0 LINE",
"1107 0 LINE",
"1122 97 LINE",
"838 1092 LINE"
);
},
{
closed = 1;
nodes = (
"513 0 LINE",
"797 977 LINE",
"838 1092 LINE",
"699 1092 LINE",
"419 97 LINE",
"434 0 LINE"
);
},
{
closed = 1;
nodes = (
"29 1092 LINE",
"53 1034 OFFCURVE",
"76 961 OFFCURVE",
"116 819 CURVE SMOOTH",
"344 0 LINE",
"434 0 LINE",
"441 97 LINE",
"195 1092 LINE"
);
}
);
width = 1556;
},
{
layerId = "58C4FD73-E369-47FC-BB2E-BA826F97CEB5";
paths = (
{
closed = 1;
nodes = (
"1193 0 LINE",
"1421 819 LINE SMOOTH",
"1461 964 OFFCURVE",
"1483 1031 OFFCURVE",
"1508 1092 CURVE",
"1342 1092 LINE",
"1099 97 LINE",
"1107 0 LINE"
);
},
{
closed = 1;
nodes = (
"699 1092 LINE",
"740 977 LINE",
"1024 0 LINE",
"1107 0 LINE",
"1122 97 LINE",
"838 1092 LINE"
);
},
{
closed = 1;
nodes = (
"513 0 LINE",
"797 977 LINE",
"838 1092 LINE",
"699 1092 LINE",
"419 97 LINE",
"434 0 LINE"
);
},
{
closed = 1;
nodes = (
"29 1092 LINE",
"53 1034 OFFCURVE",
"76 961 OFFCURVE",
"116 819 CURVE SMOOTH",
"344 0 LINE",
"434 0 LINE",
"441 97 LINE",
"195 1092 LINE"
);
}
);
width = 1556;
}
);
unicode = 0057;
},
{
glyphname = X;
layers = (
{
layerId = UUID0;
paths = (
{
closed = 1;
nodes = (
"199 255 LINE SMOOTH",
"102 99 OFFCURVE",
"77 64 OFFCURVE",
"29 0 CURVE",
"201 0 LINE",
"480 459 LINE",
"770 0 LINE",
"942 0 LINE",
"897 61 OFFCURVE",
"872 95 OFFCURVE",
"773 252 CURVE SMOOTH",
"570 574 LINE",
"727 830 LINE SMOOTH",
"821 982 OFFCURVE",
"859 1035 OFFCURVE",
"904 1092 CURVE",
"730 1092 LINE",
"491 698 LINE",
"243 1092 LINE",
"66 1092 LINE",
"115 1030 OFFCURVE",
"151 981 OFFCURVE",
"246 830 CURVE",
"402 584 LINE"
);
}
);
width = 992;
},
{
layerId = "58C4FD73-E369-47FC-BB2E-BA826F97CEB5";
paths = (
{
closed = 1;
nodes = (
"199 255 LINE SMOOTH",
"102 99 OFFCURVE",
"77 64 OFFCURVE",
"29 0 CURVE",
"201 0 LINE",
"480 459 LINE",
"770 0 LINE",
"942 0 LINE",
"897 61 OFFCURVE",
"872 95 OFFCURVE",
"773 252 CURVE SMOOTH",
"570 574 LINE",
"727 830 LINE SMOOTH",
"821 982 OFFCURVE",
"859 1035 OFFCURVE",
"904 1092 CURVE",
"730 1092 LINE",
"491 698 LINE",
"243 1092 LINE",
"66 1092 LINE",
"115 1030 OFFCURVE",
"151 981 OFFCURVE",
"246 830 CURVE",
"402 584 LINE"
);
}
);
width = 992;
}
);
unicode = 0058;
},
{
glyphname = Y;
layers = (
{
anchors = (
{
name = above;
position = "{490, 1150}";
}
);
layerId = UUID0;
paths = (
{
closed = 1;
nodes = (
"109 980 OFFCURVE",
"160 896 OFFCURVE",
"217 797 CURVE SMOOTH",
"415 457 LINE",
"415 325 LINE SMOOTH",
"415 178 OFFCURVE",
"415 60 OFFCURVE",
"404 0 CURVE",
"568 0 LINE",
"558 60 OFFCURVE",
"558 178 OFFCURVE",
"558 325 CURVE SMOOTH",
"558 451 LINE",
"759 797 LINE SMOOTH",
"816 894 OFFCURVE",
"858 965 OFFCURVE",
"946 1092 CURVE",
"774 1092 LINE",
"494 598 LINE",
"199 1092 LINE",
"26 1092 LINE"
);
}
);
width = 987;
},
{
anchors = (
{
name = above;
position = "{490, 1150}";
}
);
layerId = "58C4FD73-E369-47FC-BB2E-BA826F97CEB5";
paths = (
{
closed = 1;
nodes = (
"109 980 OFFCURVE",
"160 896 OFFCURVE",
"217 797 CURVE SMOOTH",
"415 457 LINE",
"415 325 LINE SMOOTH",
"415 178 OFFCURVE",
"415 60 OFFCURVE",
"404 0 CURVE",
"568 0 LINE",
"558 60 OFFCURVE",
"558 178 OFFCURVE",
"558 325 CURVE SMOOTH",
"558 451 LINE",
"759 797 LINE SMOOTH",
"816 894 OFFCURVE",
"858 965 OFFCURVE",
"946 1092 CURVE",
"774 1092 LINE",
"494 598 LINE",
"199 1092 LINE",
"26 1092 LINE"
);
}
);
width = 987;
}
);
unicode = 0059;
},
{
glyphname = Z;
layers = (
{
anchors = (
{
name = above;
position = "{450, 1150}";
}
);
layerId = UUID0;
paths = (
{
closed = 1;
nodes = (
"101 1092 LINE",
"101 954 LINE",
"161 966 OFFCURVE",
"249 969 OFFCURVE",
"396 969 CURVE SMOOTH",
"651 969 LINE",
"56 94 LINE",
"56 0 LINE",
"849 0 LINE",
"849 139 LINE",
"789 127 OFFCURVE",
"671 123 OFFCURVE",
"523 123 CURVE SMOOTH",
"232 123 LINE",
"826 995 LINE",
"826 1092 LINE"
);
}
);
width = 920;
},
{
anchors = (
{
name = above;
position = "{450, 1150}";
}
);
layerId = "58C4FD73-E369-47FC-BB2E-BA826F97CEB5";
paths = (
{
closed = 1;
nodes = (
"101 1092 LINE",
"101 954 LINE",
"161 966 OFFCURVE",
"249 969 OFFCURVE",
"396 969 CURVE SMOOTH",
"651 969 LINE",
"56 94 LINE",
"56 0 LINE",
"849 0 LINE",
"849 139 LINE",
"789 127 OFFCURVE",
"671 123 OFFCURVE",
"523 123 CURVE SMOOTH",
"232 123 LINE",
"826 995 LINE",
"826 1092 LINE"
);
}
);
width = 920;
}
);
unicode = 005A;
},
{
glyphname = bracketleft;
layers = (
{
layerId = UUID0;
paths = (
{
closed = 1;
nodes = (
"479 -195 LINE",
"288 -195 LINE",
"288 1084 LINE",
"479 1084 LINE",
"479 1197 LINE",
"149 1197 LINE",
"149 -307 LINE",
"479 -307 LINE"
);
}
);
width = 591;
},
{
layerId = "58C4FD73-E369-47FC-BB2E-BA826F97CEB5";
paths = (
{
closed = 1;
nodes = (
"479 -195 LINE",
"288 -195 LINE",
"288 1084 LINE",
"479 1084 LINE",
"479 1197 LINE",
"149 1197 LINE",
"149 -307 LINE",
"479 -307 LINE"
);
}
);
width = 591;
}
);
unicode = 005B;
},
{
glyphname = bracketright;
layers = (
{
layerId = UUID0;
paths = (
{
closed = 1;
nodes = (
"441 1197 LINE",
"112 1197 LINE",
"112 1084 LINE",
"303 1084 LINE",
"303 -195 LINE",
"112 -195 LINE",
"112 -307 LINE",
"441 -307 LINE"
);
}
);
width = 591;
},
{
layerId = "58C4FD73-E369-47FC-BB2E-BA826F97CEB5";
paths = (
{
closed = 1;
nodes = (
"441 1197 LINE",
"112 1197 LINE",
"112 1084 LINE",
"303 1084 LINE",
"303 -195 LINE",
"112 -195 LINE",
"112 -307 LINE",
"441 -307 LINE"
);
}
);
width = 591;
}
);
unicode = 005D;
},
{
glyphname = backslash;
layers = (
{
layerId = UUID0;
paths = (
{
closed = 1;
nodes = (
"120 1197 LINE",
"7 1197 LINE",
"628 -183 LINE",
"740 -183 LINE"
);
}
);
width = 748;
},
{
layerId = "58C4FD73-E369-47FC-BB2E-BA826F97CEB5";
paths = (
{
closed = 1;
nodes = (
"120 1197 LINE",
"7 1197 LINE",
"628 -183 LINE",
"740 -183 LINE"
);
}
);
width = 748;
}
);
unicode = 005C;
},
{
glyphname = underscore;
layers = (
{
layerId = UUID0;
paths = (
{
closed = 1;
nodes = (
"953 -239 LINE",
"953 -127 LINE",
"0 -127 LINE",
"0 -239 LINE"
);
}
);
width = 953;
},
{
layerId = "58C4FD73-E369-47FC-BB2E-BA826F97CEB5";
paths = (
{
closed = 1;
nodes = (
"953 -239 LINE",
"953 -127 LINE",
"0 -127 LINE",
"0 -239 LINE"
);
}
);
width = 953;
}
);
unicode = 005F;
},
{
glyphname = a;
layers = (
{
anchors = (
{
name = above;
position = "{405, 850}";
}
);
layerId = UUID0;
paths = (
{
closed = 1;
nodes = (
"711 687 OFFCURVE",
"598 778 OFFCURVE",
"426 778 CURVE SMOOTH",
"313 778 OFFCURVE",
"233 743 OFFCURVE",
"157 711 CURVE",
"153 678 OFFCURVE",
"151 598 OFFCURVE",
"149 564 CURVE",
"237 626 OFFCURVE",
"313 658 OFFCURVE",
"393 658 CURVE SMOOTH",
"504 658 OFFCURVE",
"573 621 OFFCURVE",
"573 531 CURVE SMOOTH",
"573 475 LINE",
"541 473 OFFCURVE",
"422 462 OFFCURVE",
"370 457 CURVE SMOOTH",
"139 434 OFFCURVE",
"71 304 OFFCURVE",
"71 191 CURVE SMOOTH",
"71 80 OFFCURVE",
"174 -19 OFFCURVE",
"314 -19 CURVE SMOOTH",
"407 -19 OFFCURVE",
"506 22 OFFCURVE",
"595 116 CURVE",
"605 67 OFFCURVE",
"623 24 OFFCURVE",
"633 0 CURVE",
"767 0 LINE",
"734 84 OFFCURVE",
"711 168 OFFCURVE",
"711 276 CURVE",
"711 568 LINE"
);
},
{
closed = 1;
nodes = (
"482 123 OFFCURVE",
"413 104 OFFCURVE",
"336 104 CURVE SMOOTH",
"255 104 OFFCURVE",
"205 142 OFFCURVE",
"205 209 CURVE SMOOTH",
"205 278 OFFCURVE",
"251 336 OFFCURVE",
"378 351 CURVE SMOOTH",
"425 357 OFFCURVE",
"535 369 OFFCURVE",
"573 370 CURVE",
"573 243 LINE"
);
}
);
width = 838;
},
{
anchors = (
{
name = above;
position = "{405, 850}";
}
);
layerId = "58C4FD73-E369-47FC-BB2E-BA826F97CEB5";
paths = (
{
closed = 1;
nodes = (
"711 687 OFFCURVE",
"598 778 OFFCURVE",
"426 778 CURVE SMOOTH",
"313 778 OFFCURVE",
"233 743 OFFCURVE",
"157 711 CURVE",
"153 678 OFFCURVE",
"151 598 OFFCURVE",
"149 564 CURVE",
"237 626 OFFCURVE",
"313 658 OFFCURVE",
"393 658 CURVE SMOOTH",
"504 658 OFFCURVE",
"573 621 OFFCURVE",
"573 531 CURVE SMOOTH",
"573 475 LINE",
"541 473 OFFCURVE",
"422 462 OFFCURVE",
"370 457 CURVE SMOOTH",
"139 434 OFFCURVE",
"71 304 OFFCURVE",
"71 191 CURVE SMOOTH",
"71 80 OFFCURVE",
"174 -19 OFFCURVE",
"314 -19 CURVE SMOOTH",
"407 -19 OFFCURVE",
"506 22 OFFCURVE",
"595 116 CURVE",
"605 67 OFFCURVE",
"623 24 OFFCURVE",
"633 0 CURVE",
"767 0 LINE",
"734 84 OFFCURVE",
"711 168 OFFCURVE",
"711 276 CURVE",
"711 568 LINE"
);
},
{
closed = 1;
nodes = (
"482 123 OFFCURVE",
"413 104 OFFCURVE",
"336 104 CURVE SMOOTH",
"255 104 OFFCURVE",
"205 142 OFFCURVE",
"205 209 CURVE SMOOTH",
"205 278 OFFCURVE",
"251 336 OFFCURVE",
"378 351 CURVE SMOOTH",
"425 357 OFFCURVE",
"535 369 OFFCURVE",
"573 370 CURVE",
"573 243 LINE"
);
}
);
width = 838;
}
);
unicode = 0061;
},
{
glyphname = b;
layers = (
{
layerId = UUID0;
paths = (
{
closed = 1;
nodes = (
"108 1113 OFFCURVE",
"108 953 OFFCURVE",
"108 845 CURVE",
"108 48 LINE",
"203 19 OFFCURVE",
"309 -19 OFFCURVE",
"430 -19 CURVE SMOOTH",
"651 -19 OFFCURVE",
"793 147 OFFCURVE",
"793 404 CURVE SMOOTH",
"793 622 OFFCURVE",
"686 778 OFFCURVE",
"535 778 CURVE SMOOTH",
"408 778 OFFCURVE",
"316 708 OFFCURVE",
"246 617 CURVE",
"246 685 OFFCURVE",
"246 1197 OFFCURVE",
"246 1197 CURVE",
"97 1197 LINE"
);
},
{
closed = 1;
nodes = (
"297 561 OFFCURVE",
"397 647 OFFCURVE",
"490 647 CURVE SMOOTH",
"598 647 OFFCURVE",
"658 543 OFFCURVE",
"658 378 CURVE SMOOTH",
"658 209 OFFCURVE",
"562 97 OFFCURVE",
"430 97 CURVE SMOOTH",
"366 97 OFFCURVE",
"320 107 OFFCURVE",
"246 139 CURVE",
"246 438 LINE"
);
}
);
width = 864;
},
{
layerId = "58C4FD73-E369-47FC-BB2E-BA826F97CEB5";
paths = (
{
closed = 1;
nodes = (
"108 1113 OFFCURVE",
"108 953 OFFCURVE",
"108 845 CURVE",
"108 48 LINE",
"203 19 OFFCURVE",
"309 -19 OFFCURVE",
"430 -19 CURVE SMOOTH",
"651 -19 OFFCURVE",
"793 147 OFFCURVE",
"793 404 CURVE SMOOTH",
"793 622 OFFCURVE",
"686 778 OFFCURVE",
"535 778 CURVE SMOOTH",
"408 778 OFFCURVE",
"316 708 OFFCURVE",
"246 617 CURVE",
"246 685 OFFCURVE",
"246 1197 OFFCURVE",
"246 1197 CURVE",
"97 1197 LINE"
);
},
{
closed = 1;
nodes = (
"297 561 OFFCURVE",
"397 647 OFFCURVE",
"490 647 CURVE SMOOTH",
"598 647 OFFCURVE",
"658 543 OFFCURVE",
"658 378 CURVE SMOOTH",
"658 209 OFFCURVE",
"562 97 OFFCURVE",
"430 97 CURVE SMOOTH",
"366 97 OFFCURVE",
"320 107 OFFCURVE",
"246 139 CURVE",
"246 438 LINE"
);
}
);
width = 864;
}
);
unicode = 0062;
},
{
glyphname = c;
layers = (
{
anchors = (
{
name = below;
position = "{408, 0}";
}
);
layerId = UUID0;
paths = (
{
closed = 1;
nodes = (
"612 137 OFFCURVE",
"539 104 OFFCURVE",
"448 104 CURVE SMOOTH",
"303 104 OFFCURVE",
"214 214 OFFCURVE",
"214 374 CURVE SMOOTH",
"214 551 OFFCURVE",
"315 655 OFFCURVE",
"448 655 CURVE SMOOTH",
"525 655 OFFCURVE",
"591 630 OFFCURVE",
"658 579 CURVE",
"684 714 LINE",
"630 752 OFFCURVE",
"560 778 OFFCURVE",
"460 778 CURVE SMOOTH",
"222 778 OFFCURVE",
"71 593 OFFCURVE",
"71 366 CURVE SMOOTH",
"71 127 OFFCURVE",
"234 -19 OFFCURVE",
"434 -19 CURVE SMOOTH",
"545 -19 OFFCURVE",
"617 7 OFFCURVE",
"693 64 CURVE",
"677 195 LINE"
);
}
);
width = 763;
},
{
anchors = (
{
name = below;
position = "{408, 0}";
}
);
layerId = "58C4FD73-E369-47FC-BB2E-BA826F97CEB5";
paths = (
{
closed = 1;
nodes = (
"612 137 OFFCURVE",
"539 104 OFFCURVE",
"448 104 CURVE SMOOTH",
"303 104 OFFCURVE",
"214 214 OFFCURVE",
"214 374 CURVE SMOOTH",
"214 551 OFFCURVE",
"315 655 OFFCURVE",
"448 655 CURVE SMOOTH",
"525 655 OFFCURVE",
"591 630 OFFCURVE",
"658 579 CURVE",
"684 714 LINE",
"630 752 OFFCURVE",
"560 778 OFFCURVE",
"460 778 CURVE SMOOTH",
"222 778 OFFCURVE",
"71 593 OFFCURVE",
"71 366 CURVE SMOOTH",
"71 127 OFFCURVE",
"234 -19 OFFCURVE",
"434 -19 CURVE SMOOTH",
"545 -19 OFFCURVE",
"617 7 OFFCURVE",
"693 64 CURVE",
"677 195 LINE"
);
}
);
width = 763;
}
);
unicode = 0063;
},
{
glyphname = d;
layers = (
{
layerId = UUID0;
paths = (
{
closed = 1;
nodes = (
"614 1197 LINE",
"627 1134 OFFCURVE",
"633 1043 OFFCURVE",
"633 923 CURVE",
"633 714 LINE",
"574 747 OFFCURVE",
"498 778 OFFCURVE",
"434 778 CURVE SMOOTH",
"234 778 OFFCURVE",
"79 608 OFFCURVE",
"79 344 CURVE SMOOTH",
"79 124 OFFCURVE",
"196 -19 OFFCURVE",
"378 -19 CURVE SMOOTH",
"487 -19 OFFCURVE",
"579 37 OFFCURVE",
"651 139 CURVE",
"663 83 OFFCURVE",
"680 25 OFFCURVE",
"693 0 CURVE",
"826 0 LINE",
"794 84 OFFCURVE",
"770 207 OFFCURVE",
"770 396 CURVE",
"770 1197 LINE"
);
},
{
closed = 1;
nodes = (
"591 200 OFFCURVE",
"495 101 OFFCURVE",
"404 101 CURVE SMOOTH",
"274 101 OFFCURVE",
"217 193 OFFCURVE",
"217 366 CURVE SMOOTH",
"217 543 OFFCURVE",
"321 651 OFFCURVE",
"434 651 CURVE SMOOTH",
"510 651 OFFCURVE",
"558 635 OFFCURVE",
"633 595 CURVE",
"633 299 LINE"
);
}
);
width = 890;
},
{
layerId = "58C4FD73-E369-47FC-BB2E-BA826F97CEB5";
paths = (
{
closed = 1;
nodes = (
"614 1197 LINE",
"627 1134 OFFCURVE",
"633 1043 OFFCURVE",
"633 923 CURVE",
"633 714 LINE",
"574 747 OFFCURVE",
"498 778 OFFCURVE",
"434 778 CURVE SMOOTH",
"234 778 OFFCURVE",
"79 608 OFFCURVE",
"79 344 CURVE SMOOTH",
"79 124 OFFCURVE",
"196 -19 OFFCURVE",
"378 -19 CURVE SMOOTH",
"487 -19 OFFCURVE",
"579 37 OFFCURVE",
"651 139 CURVE",
"663 83 OFFCURVE",
"680 25 OFFCURVE",
"693 0 CURVE",
"826 0 LINE",
"794 84 OFFCURVE",
"770 207 OFFCURVE",
"770 396 CURVE",
"770 1197 LINE"
);
},
{
closed = 1;
nodes = (
"591 200 OFFCURVE",
"495 101 OFFCURVE",
"404 101 CURVE SMOOTH",
"274 101 OFFCURVE",
"217 193 OFFCURVE",
"217 366 CURVE SMOOTH",
"217 543 OFFCURVE",
"321 651 OFFCURVE",
"434 651 CURVE SMOOTH",
"510 651 OFFCURVE",
"558 635 OFFCURVE",
"633 595 CURVE",
"633 299 LINE"
);
}
);
width = 890;
}
);
unicode = 0064;
},
{
glyphname = e;
layers = (
{
anchors = (
{
name = above;
position = "{423, 850}";
}
);
layerId = UUID0;
paths = (
{
closed = 1;
nodes = (
"740 376 OFFCURVE",
"740 408 OFFCURVE",
"740 421 CURVE SMOOTH",
"740 590 OFFCURVE",
"677 778 OFFCURVE",
"430 778 CURVE SMOOTH",
"208 778 OFFCURVE",
"71 617 OFFCURVE",
"71 370 CURVE SMOOTH",
"71 116 OFFCURVE",
"239 -19 OFFCURVE",
"430 -19 CURVE SMOOTH",
"545 -19 OFFCURVE",
"638 1 OFFCURVE",
"744 56 CURVE",
"730 180 LINE",
"638 123 OFFCURVE",
"545 104 OFFCURVE",
"448 104 CURVE SMOOTH",
"309 104 OFFCURVE",
"209 193 OFFCURVE",
"209 378 CURVE SMOOTH",
"209 576 OFFCURVE",
"288 665 OFFCURVE",
"419 665 CURVE SMOOTH",
"527 665 OFFCURVE",
"605 597 OFFCURVE",
"605 467 CURVE",
"183 467 LINE",
"183 363 LINE",
"740 363 LINE"
);
}
);
width = 819;
},
{
anchors = (
{
name = above;
position = "{423, 850}";
}
);
layerId = "58C4FD73-E369-47FC-BB2E-BA826F97CEB5";
paths = (
{
closed = 1;
nodes = (
"740 376 OFFCURVE",
"740 408 OFFCURVE",
"740 421 CURVE SMOOTH",
"740 590 OFFCURVE",
"677 778 OFFCURVE",
"430 778 CURVE SMOOTH",
"208 778 OFFCURVE",
"71 617 OFFCURVE",
"71 370 CURVE SMOOTH",
"71 116 OFFCURVE",
"239 -19 OFFCURVE",
"430 -19 CURVE SMOOTH",
"545 -19 OFFCURVE",
"638 1 OFFCURVE",
"744 56 CURVE",
"730 180 LINE",
"638 123 OFFCURVE",
"545 104 OFFCURVE",
"448 104 CURVE SMOOTH",
"309 104 OFFCURVE",
"209 193 OFFCURVE",
"209 378 CURVE SMOOTH",
"209 576 OFFCURVE",
"288 665 OFFCURVE",
"419 665 CURVE SMOOTH",
"527 665 OFFCURVE",
"605 597 OFFCURVE",
"605 467 CURVE",
"183 467 LINE",
"183 363 LINE",
"740 363 LINE"
);
}
);
width = 819;
}
);
unicode = 0065;
},
{
glyphname = f;
layers = (
{
layerId = UUID0;
paths = (
{
closed = 1;
nodes = (
"180 636 LINE",
"180 0 LINE",
"340 0 LINE",
"324 79 OFFCURVE",
"318 224 OFFCURVE",
"318 369 CURVE SMOOTH",
"318 636 LINE",
"520 636 LINE",
"520 744 LINE",
"318 744 LINE",
"318 904 LINE SMOOTH",
"318 1034 OFFCURVE",
"360 1084 OFFCURVE",
"438 1084 CURVE SMOOTH",
"481 1084 OFFCURVE",
"531 1067 OFFCURVE",
"568 1039 CURVE",
"602 1159 LINE",
"556 1192 OFFCURVE",
"496 1212 OFFCURVE",
"438 1212 CURVE SMOOTH",
"276 1212 OFFCURVE",
"180 1099 OFFCURVE",
"180 875 CURVE SMOOTH",
"180 744 LINE",
"29 744 LINE",
"29 636 LINE"
);
}
);
width = 560;
},
{
layerId = "58C4FD73-E369-47FC-BB2E-BA826F97CEB5";
paths = (
{
closed = 1;
nodes = (
"180 636 LINE",
"180 0 LINE",
"340 0 LINE",
"324 79 OFFCURVE",
"318 224 OFFCURVE",
"318 369 CURVE SMOOTH",
"318 636 LINE",
"520 636 LINE",
"520 744 LINE",
"318 744 LINE",
"318 904 LINE SMOOTH",
"318 1034 OFFCURVE",
"360 1084 OFFCURVE",
"438 1084 CURVE SMOOTH",
"481 1084 OFFCURVE",
"531 1067 OFFCURVE",
"568 1039 CURVE",
"602 1159 LINE",
"556 1192 OFFCURVE",
"496 1212 OFFCURVE",
"438 1212 CURVE SMOOTH",
"276 1212 OFFCURVE",
"180 1099 OFFCURVE",
"180 875 CURVE SMOOTH",
"180 744 LINE",
"29 744 LINE",
"29 636 LINE"
);
}
);
width = 560;
}
);
unicode = 0066;
},
{
glyphname = g;
layers = (
{
layerId = UUID0;
paths = (
{
closed = 1;
nodes = (
"175 267 OFFCURVE",
"135 205 OFFCURVE",
"135 161 CURVE SMOOTH",
"135 91 OFFCURVE",
"197 20 OFFCURVE",
"408 -4 CURVE SMOOTH",
"602 -26 OFFCURVE",
"658 -67 OFFCURVE",
"658 -127 CURVE SMOOTH",
"658 -191 OFFCURVE",
"546 -270 OFFCURVE",
"411 -270 CURVE SMOOTH",
"241 -270 OFFCURVE",
"161 -196 OFFCURVE",
"161 -135 CURVE SMOOTH",
"161 -91 OFFCURVE",
"182 -42 OFFCURVE",
"348 15 CURVE",
"343 37 OFFCURVE",
"217 56 OFFCURVE",
"217 56 CURVE",
"85 1 OFFCURVE",
"22 -67 OFFCURVE",
"22 -150 CURVE SMOOTH",
"22 -306 OFFCURVE",
"226 -378 OFFCURVE",
"400 -378 CURVE SMOOTH",
"581 -378 OFFCURVE",
"797 -280 OFFCURVE",
"797 -120 CURVE SMOOTH",
"797 -6 OFFCURVE",
"723 66 OFFCURVE",
"501 93 CURVE SMOOTH",
"306 117 OFFCURVE",
"258 147 OFFCURVE",
"258 176 CURVE SMOOTH",
"258 202 OFFCURVE",
"287 237 OFFCURVE",
"374 261 CURVE",
"246 295 LINE"
);
},
{
closed = 1;
nodes = (
"712 773 OFFCURVE",
"613 746 OFFCURVE",
"545 703 CURVE",
"595 617 LINE",
"663 645 OFFCURVE",
"723 656 OFFCURVE",
"778 658 CURVE",
"785 778 LINE"
);
},
{
closed = 1;
nodes = (
"217 243 OFFCURVE",
"385 243 CURVE SMOOTH",
"555 243 OFFCURVE",
"684 356 OFFCURVE",
"684 508 CURVE SMOOTH",
"684 661 OFFCURVE",
"555 778 OFFCURVE",
"385 778 CURVE SMOOTH",
"217 778 OFFCURVE",
"85 661 OFFCURVE",
"85 508 CURVE SMOOTH",
"85 356 OFFCURVE"
);
},
{
closed = 1;
nodes = (
"285 670 OFFCURVE",
"385 670 CURVE SMOOTH",
"485 670 OFFCURVE",
"558 600 OFFCURVE",
"558 508 CURVE SMOOTH",
"558 417 OFFCURVE",
"485 348 OFFCURVE",
"385 348 CURVE SMOOTH",
"285 348 OFFCURVE",
"214 417 OFFCURVE",
"214 508 CURVE SMOOTH",
"214 600 OFFCURVE"
);
}
);
width = 819;
},
{
layerId = "58C4FD73-E369-47FC-BB2E-BA826F97CEB5";
paths = (
{
closed = 1;
nodes = (
"175 267 OFFCURVE",
"135 205 OFFCURVE",
"135 161 CURVE SMOOTH",
"135 91 OFFCURVE",
"197 20 OFFCURVE",
"408 -4 CURVE SMOOTH",
"602 -26 OFFCURVE",
"658 -67 OFFCURVE",
"658 -127 CURVE SMOOTH",
"658 -191 OFFCURVE",
"546 -270 OFFCURVE",
"411 -270 CURVE SMOOTH",
"241 -270 OFFCURVE",
"161 -196 OFFCURVE",
"161 -135 CURVE SMOOTH",
"161 -91 OFFCURVE",
"182 -42 OFFCURVE",
"348 15 CURVE",
"343 37 OFFCURVE",
"217 56 OFFCURVE",
"217 56 CURVE",
"85 1 OFFCURVE",
"22 -67 OFFCURVE",
"22 -150 CURVE SMOOTH",
"22 -306 OFFCURVE",
"226 -378 OFFCURVE",
"400 -378 CURVE SMOOTH",
"581 -378 OFFCURVE",
"797 -280 OFFCURVE",
"797 -120 CURVE SMOOTH",
"797 -6 OFFCURVE",
"723 66 OFFCURVE",
"501 93 CURVE SMOOTH",
"306 117 OFFCURVE",
"258 147 OFFCURVE",
"258 176 CURVE SMOOTH",
"258 202 OFFCURVE",
"287 237 OFFCURVE",
"374 261 CURVE",
"246 295 LINE"
);
},
{
closed = 1;
nodes = (
"712 773 OFFCURVE",
"613 746 OFFCURVE",
"545 703 CURVE",
"595 617 LINE",
"663 645 OFFCURVE",
"723 656 OFFCURVE",
"778 658 CURVE",
"785 778 LINE"
);
},
{
closed = 1;
nodes = (
"217 243 OFFCURVE",
"385 243 CURVE SMOOTH",
"555 243 OFFCURVE",
"684 356 OFFCURVE",
"684 508 CURVE SMOOTH",
"684 661 OFFCURVE",
"555 778 OFFCURVE",
"385 778 CURVE SMOOTH",
"217 778 OFFCURVE",
"85 661 OFFCURVE",
"85 508 CURVE SMOOTH",
"85 356 OFFCURVE"
);
},
{
closed = 1;
nodes = (
"285 670 OFFCURVE",
"385 670 CURVE SMOOTH",
"485 670 OFFCURVE",
"558 600 OFFCURVE",
"558 508 CURVE SMOOTH",
"558 417 OFFCURVE",
"485 348 OFFCURVE",
"385 348 CURVE SMOOTH",
"285 348 OFFCURVE",
"214 417 OFFCURVE",
"214 508 CURVE SMOOTH",
"214 600 OFFCURVE"
);
}
);
width = 819;
}
);
unicode = 0067;
},
{
glyphname = h;
layers = (
{
layerId = UUID0;
paths = (
{
closed = 1;
nodes = (
"778 0 OFFCURVE",
"778 343 OFFCURVE",
"778 467 CURVE SMOOTH",
"778 674 OFFCURVE",
"691 778 OFFCURVE",
"531 778 CURVE SMOOTH",
"426 778 OFFCURVE",
"320 725 OFFCURVE",
"246 620 CURVE",
"246 656 OFFCURVE",
"246 1197 OFFCURVE",
"246 1197 CURVE",
"97 1197 LINE",
"108 1132 OFFCURVE",
"108 1006 OFFCURVE",
"108 845 CURVE SMOOTH",
"108 699 OFFCURVE",
"108 0 OFFCURVE",
"108 0 CURVE",
"246 0 LINE",
"246 434 LINE",
"279 536 OFFCURVE",
"382 647 OFFCURVE",
"490 647 CURVE SMOOTH",
"591 647 OFFCURVE",
"639 598 OFFCURVE",
"639 411 CURVE SMOOTH",
"639 309 OFFCURVE",
"639 0 OFFCURVE",
"639 0 CURVE",
"778 0 LINE"
);
}
);
width = 879;
},
{
layerId = "58C4FD73-E369-47FC-BB2E-BA826F97CEB5";
paths = (
{
closed = 1;
nodes = (
"778 0 OFFCURVE",
"778 343 OFFCURVE",
"778 467 CURVE SMOOTH",
"778 674 OFFCURVE",
"691 778 OFFCURVE",
"531 778 CURVE SMOOTH",
"426 778 OFFCURVE",
"320 725 OFFCURVE",
"246 620 CURVE",
"246 656 OFFCURVE",
"246 1197 OFFCURVE",
"246 1197 CURVE",
"97 1197 LINE",
"108 1132 OFFCURVE",
"108 1006 OFFCURVE",
"108 845 CURVE SMOOTH",
"108 699 OFFCURVE",
"108 0 OFFCURVE",
"108 0 CURVE",
"246 0 LINE",
"246 434 LINE",
"279 536 OFFCURVE",
"382 647 OFFCURVE",
"490 647 CURVE SMOOTH",
"591 647 OFFCURVE",
"639 598 OFFCURVE",
"639 411 CURVE SMOOTH",
"639 309 OFFCURVE",
"639 0 OFFCURVE",
"639 0 CURVE",
"778 0 LINE"
);
}
);
width = 879;
}
);
unicode = 0068;
},
{
glyphname = i;
layers = (
{
layerId = UUID0;
paths = (
{
closed = 1;
nodes = (
"131 763 LINE",
"141 684 OFFCURVE",
"142 542 OFFCURVE",
"142 396 CURVE SMOOTH",
"142 252 OFFCURVE",
"142 0 OFFCURVE",
"142 0 CURVE",
"295 0 LINE",
"285 80 OFFCURVE",
"280 258 OFFCURVE",
"280 355 CURVE SMOOTH",
"280 763 LINE"
);
},
{
closed = 1;
nodes = (
"154 904 OFFCURVE",
"209 904 CURVE SMOOTH",
"265 904 OFFCURVE",
"306 951 OFFCURVE",
"306 1006 CURVE SMOOTH",
"306 1061 OFFCURVE",
"265 1107 OFFCURVE",
"209 1107 CURVE SMOOTH",
"154 1107 OFFCURVE",
"116 1061 OFFCURVE",
"116 1006 CURVE SMOOTH",
"116 951 OFFCURVE"
);
}
);
width = 423;
},
{
layerId = "58C4FD73-E369-47FC-BB2E-BA826F97CEB5";
paths = (
{
closed = 1;
nodes = (
"131 763 LINE",
"141 684 OFFCURVE",
"142 542 OFFCURVE",
"142 396 CURVE SMOOTH",
"142 252 OFFCURVE",
"142 0 OFFCURVE",
"142 0 CURVE",
"295 0 LINE",
"285 80 OFFCURVE",
"280 258 OFFCURVE",
"280 355 CURVE SMOOTH",
"280 763 LINE"
);
},
{
closed = 1;
nodes = (
"154 904 OFFCURVE",
"209 904 CURVE SMOOTH",
"265 904 OFFCURVE",
"306 951 OFFCURVE",
"306 1006 CURVE SMOOTH",
"306 1061 OFFCURVE",
"265 1107 OFFCURVE",
"209 1107 CURVE SMOOTH",
"154 1107 OFFCURVE",
"116 1061 OFFCURVE",
"116 1006 CURVE SMOOTH",
"116 951 OFFCURVE"
);
}
);
width = 423;
}
);
unicode = 0069;
},
{
glyphname = j;
layers = (
{
layerId = UUID0;
paths = (
{
closed = 1;
nodes = (
"154 763 LINE",
"162 684 OFFCURVE",
"164 542 OFFCURVE",
"164 396 CURVE",
"164 -19 LINE",
"164 -166 OFFCURVE",
"109 -224 OFFCURVE",
"29 -224 CURVE SMOOTH",
"-12 -224 OFFCURVE",
"-83 -204 OFFCURVE",
"-116 -180 CURVE",
"-143 -303 LINE",
"-98 -334 OFFCURVE",
"-20 -352 OFFCURVE",
"22 -352 CURVE SMOOTH",
"193 -352 OFFCURVE",
"303 -260 OFFCURVE",
"303 19 CURVE SMOOTH",
"303 763 LINE"
);
},
{
closed = 1;
nodes = (
"177 904 OFFCURVE",
"232 904 CURVE SMOOTH",
"288 904 OFFCURVE",
"329 951 OFFCURVE",
"329 1006 CURVE SMOOTH",
"329 1061 OFFCURVE",
"288 1107 OFFCURVE",
"232 1107 CURVE SMOOTH",
"177 1107 OFFCURVE",
"139 1061 OFFCURVE",
"139 1006 CURVE SMOOTH",
"139 951 OFFCURVE"
);
}
);
width = 445;
},
{
layerId = "58C4FD73-E369-47FC-BB2E-BA826F97CEB5";
paths = (
{
closed = 1;
nodes = (
"154 763 LINE",
"162 684 OFFCURVE",
"164 542 OFFCURVE",
"164 396 CURVE",
"164 -19 LINE",
"164 -166 OFFCURVE",
"109 -224 OFFCURVE",
"29 -224 CURVE SMOOTH",
"-12 -224 OFFCURVE",
"-83 -204 OFFCURVE",
"-116 -180 CURVE",
"-143 -303 LINE",
"-98 -334 OFFCURVE",
"-20 -352 OFFCURVE",
"22 -352 CURVE SMOOTH",
"193 -352 OFFCURVE",
"303 -260 OFFCURVE",
"303 19 CURVE SMOOTH",
"303 763 LINE"
);
},
{
closed = 1;
nodes = (
"177 904 OFFCURVE",
"232 904 CURVE SMOOTH",
"288 904 OFFCURVE",
"329 951 OFFCURVE",
"329 1006 CURVE SMOOTH",
"329 1061 OFFCURVE",
"288 1107 OFFCURVE",
"232 1107 CURVE SMOOTH",
"177 1107 OFFCURVE",
"139 1061 OFFCURVE",
"139 1006 CURVE SMOOTH",
"139 951 OFFCURVE"
);
}
);
width = 445;
}
);
unicode = 006A;
},
{
glyphname = k;
layers = (
{
layerId = UUID0;
paths = (
{
closed = 1;
nodes = (
"246 1197 LINE",
"97 1197 LINE",
"108 1132 OFFCURVE",
"108 1006 OFFCURVE",
"108 845 CURVE SMOOTH",
"108 698 OFFCURVE",
"108 0 OFFCURVE",
"108 0 CURVE",
"246 0 LINE"
);
},
{
closed = 1;
nodes = (
"209 411 LINE",
"326 392 LINE",
"737 763 LINE",
"550 763 LINE"
);
},
{
closed = 1;
nodes = (
"576 0 LINE",
"759 0 LINE",
"306 494 LINE",
"228 411 LINE"
);
}
);
width = 774;
},
{
layerId = "58C4FD73-E369-47FC-BB2E-BA826F97CEB5";
paths = (
{
closed = 1;
nodes = (
"246 1197 LINE",
"97 1197 LINE",
"108 1132 OFFCURVE",
"108 1006 OFFCURVE",
"108 845 CURVE SMOOTH",
"108 698 OFFCURVE",
"108 0 OFFCURVE",
"108 0 CURVE",
"246 0 LINE"
);
},
{
closed = 1;
nodes = (
"209 411 LINE",
"326 392 LINE",
"737 763 LINE",
"550 763 LINE"
);
},
{
closed = 1;
nodes = (
"576 0 LINE",
"759 0 LINE",
"306 494 LINE",
"228 411 LINE"
);
}
);
width = 774;
}
);
unicode = 006B;
},
{
glyphname = l;
layers = (
{
layerId = UUID0;
paths = (
{
closed = 1;
nodes = (
"126 1197 LINE",
"137 1111 OFFCURVE",
"142 991 OFFCURVE",
"142 845 CURVE",
"142 0 LINE",
"295 0 LINE",
"285 82 OFFCURVE",
"280 258 OFFCURVE",
"280 355 CURVE SMOOTH",
"280 1197 LINE"
);
}
);
width = 423;
},
{
layerId = "58C4FD73-E369-47FC-BB2E-BA826F97CEB5";
paths = (
{
closed = 1;
nodes = (
"126 1197 LINE",
"137 1111 OFFCURVE",
"142 991 OFFCURVE",
"142 845 CURVE",
"142 0 LINE",
"295 0 LINE",
"285 82 OFFCURVE",
"280 258 OFFCURVE",
"280 355 CURVE SMOOTH",
"280 1197 LINE"
);
}
);
width = 423;
}
);
unicode = 006C;
},
{
glyphname = m;
layers = (
{
layerId = UUID0;
paths = (
{
closed = 1;
nodes = (
"750 587 OFFCURVE",
"824 647 OFFCURVE",
"898 647 CURVE SMOOTH",
"981 647 OFFCURVE",
"1006 604 OFFCURVE",
"1006 411 CURVE SMOOTH",
"1006 0 LINE",
"1144 0 LINE",
"1144 494 LINE SMOOTH",
"1144 678 OFFCURVE",
"1094 778 OFFCURVE",
"942 778 CURVE SMOOTH",
"864 778 OFFCURVE",
"782 753 OFFCURVE",
"690 653 CURVE",
"664 718 OFFCURVE",
"602 778 OFFCURVE",
"504 778 CURVE SMOOTH",
"419 778 OFFCURVE",
"343 752 OFFCURVE",
"253 647 CURVE",
"246 683 OFFCURVE",
"239 731 OFFCURVE",
"228 763 CURVE",
"94 763 LINE",
"108 712 OFFCURVE",
"131 606 OFFCURVE",
"131 460 CURVE SMOOTH",
"131 0 LINE",
"269 0 LINE",
"269 494 LINE",
"309 583 OFFCURVE",
"387 647 OFFCURVE",
"460 647 CURVE SMOOTH",
"543 647 OFFCURVE",
"568 612 OFFCURVE",
"568 426 CURVE SMOOTH",
"568 0 LINE",
"707 0 LINE",
"707 494 LINE"
);
}
);
width = 1261;
},
{
layerId = "58C4FD73-E369-47FC-BB2E-BA826F97CEB5";
paths = (
{
closed = 1;
nodes = (
"750 587 OFFCURVE",
"824 647 OFFCURVE",
"898 647 CURVE SMOOTH",
"981 647 OFFCURVE",
"1006 604 OFFCURVE",
"1006 411 CURVE SMOOTH",
"1006 0 LINE",
"1144 0 LINE",
"1144 494 LINE SMOOTH",
"1144 678 OFFCURVE",
"1094 778 OFFCURVE",
"942 778 CURVE SMOOTH",
"864 778 OFFCURVE",
"782 753 OFFCURVE",
"690 653 CURVE",
"664 718 OFFCURVE",
"602 778 OFFCURVE",
"504 778 CURVE SMOOTH",
"419 778 OFFCURVE",
"343 752 OFFCURVE",
"253 647 CURVE",
"246 683 OFFCURVE",
"239 731 OFFCURVE",
"228 763 CURVE",
"94 763 LINE",
"108 712 OFFCURVE",
"131 606 OFFCURVE",
"131 460 CURVE SMOOTH",
"131 0 LINE",
"269 0 LINE",
"269 494 LINE",
"309 583 OFFCURVE",
"387 647 OFFCURVE",
"460 647 CURVE SMOOTH",
"543 647 OFFCURVE",
"568 612 OFFCURVE",
"568 426 CURVE SMOOTH",
"568 0 LINE",
"707 0 LINE",
"707 494 LINE"
);
}
);
width = 1261;
}
);
unicode = 006D;
},
{
glyphname = n;
layers = (
{
anchors = (
{
name = above;
position = "{442, 850}";
}
);
layerId = UUID0;
paths = (
{
closed = 1;
nodes = (
"785 0 OFFCURVE",
"785 343 OFFCURVE",
"785 467 CURVE SMOOTH",
"785 674 OFFCURVE",
"698 778 OFFCURVE",
"539 778 CURVE SMOOTH",
"433 778 OFFCURVE",
"338 731 OFFCURVE",
"243 617 CURVE",
"237 654 OFFCURVE",
"224 731 OFFCURVE",
"214 763 CURVE",
"79 763 LINE",
"95 712 OFFCURVE",
"116 606 OFFCURVE",
"116 460 CURVE SMOOTH",
"116 314 OFFCURVE",
"116 0 OFFCURVE",
"116 0 CURVE",
"255 0 LINE",
"255 434 LINE",
"287 536 OFFCURVE",
"390 647 OFFCURVE",
"498 647 CURVE SMOOTH",
"598 647 OFFCURVE",
"647 598 OFFCURVE",
"647 411 CURVE SMOOTH",
"647 309 OFFCURVE",
"647 0 OFFCURVE",
"647 0 CURVE",
"785 0 LINE"
);
}
);
width = 886;
},
{
anchors = (
{
name = above;
position = "{442, 850}";
}
);
layerId = "58C4FD73-E369-47FC-BB2E-BA826F97CEB5";
paths = (
{
closed = 1;
nodes = (
"785 0 OFFCURVE",
"785 343 OFFCURVE",
"785 467 CURVE SMOOTH",
"785 674 OFFCURVE",
"698 778 OFFCURVE",
"539 778 CURVE SMOOTH",
"433 778 OFFCURVE",
"338 731 OFFCURVE",
"243 617 CURVE",
"237 654 OFFCURVE",
"224 731 OFFCURVE",
"214 763 CURVE",
"79 763 LINE",
"95 712 OFFCURVE",
"116 606 OFFCURVE",
"116 460 CURVE SMOOTH",
"116 314 OFFCURVE",
"116 0 OFFCURVE",
"116 0 CURVE",
"255 0 LINE",
"255 434 LINE",
"287 536 OFFCURVE",
"390 647 OFFCURVE",
"498 647 CURVE SMOOTH",
"598 647 OFFCURVE",
"647 598 OFFCURVE",
"647 411 CURVE SMOOTH",
"647 309 OFFCURVE",
"647 0 OFFCURVE",
"647 0 CURVE",
"785 0 LINE"
);
}
);
width = 886;
}
);
unicode = 006E;
},
{
glyphname = o;
layers = (
{
anchors = (
{
name = above;
position = "{430, 850}";
}
);
layerId = UUID0;
paths = (
{
closed = 1;
nodes = (
"214 -19 OFFCURVE",
"419 -19 CURVE SMOOTH",
"616 -19 OFFCURVE",
"782 121 OFFCURVE",
"782 378 CURVE SMOOTH",
"782 636 OFFCURVE",
"639 778 OFFCURVE",
"434 778 CURVE SMOOTH",
"237 778 OFFCURVE",
"71 636 OFFCURVE",
"71 378 CURVE SMOOTH",
"71 121 OFFCURVE"
);
},
{
closed = 1;
nodes = (
"305 658 OFFCURVE",
"426 658 CURVE SMOOTH",
"555 658 OFFCURVE",
"643 553 OFFCURVE",
"643 378 CURVE SMOOTH",
"643 203 OFFCURVE",
"546 101 OFFCURVE",
"426 101 CURVE SMOOTH",
"297 101 OFFCURVE",
"209 203 OFFCURVE",
"209 378 CURVE SMOOTH",
"209 553 OFFCURVE"
);
}
);
width = 853;
},
{
anchors = (
{
name = above;
position = "{430, 850}";
}
);
layerId = "58C4FD73-E369-47FC-BB2E-BA826F97CEB5";
paths = (
{
closed = 1;
nodes = (
"214 -19 OFFCURVE",
"419 -19 CURVE SMOOTH",
"616 -19 OFFCURVE",
"782 121 OFFCURVE",
"782 378 CURVE SMOOTH",
"782 636 OFFCURVE",
"639 778 OFFCURVE",
"434 778 CURVE SMOOTH",
"237 778 OFFCURVE",
"71 636 OFFCURVE",
"71 378 CURVE SMOOTH",
"71 121 OFFCURVE"
);
},
{
closed = 1;
nodes = (
"305 658 OFFCURVE",
"426 658 CURVE SMOOTH",
"555 658 OFFCURVE",
"643 553 OFFCURVE",
"643 378 CURVE SMOOTH",
"643 203 OFFCURVE",
"546 101 OFFCURVE",
"426 101 CURVE SMOOTH",
"297 101 OFFCURVE",
"209 203 OFFCURVE",
"209 378 CURVE SMOOTH",
"209 553 OFFCURVE"
);
}
);
width = 853;
}
);
unicode = 006F;
},
{
glyphname = p;
layers = (
{
layerId = UUID0;
paths = (
{
closed = 1;
nodes = (
"112 678 OFFCURVE",
"116 548 OFFCURVE",
"116 363 CURVE SMOOTH",
"116 218 OFFCURVE",
"116 -367 OFFCURVE",
"116 -367 CURVE",
"274 -367 LINE",
"260 -303 OFFCURVE",
"255 -233 OFFCURVE",
"255 -113 CURVE",
"255 64 LINE",
"325 13 OFFCURVE",
"384 -19 OFFCURVE",
"464 -19 CURVE SMOOTH",
"652 -19 OFFCURVE",
"804 144 OFFCURVE",
"804 400 CURVE SMOOTH",
"804 619 OFFCURVE",
"691 778 OFFCURVE",
"520 778 CURVE SMOOTH",
"408 778 OFFCURVE",
"313 713 OFFCURVE",
"243 620 CURVE",
"237 690 OFFCURVE",
"224 737 OFFCURVE",
"214 763 CURVE",
"79 763 LINE"
);
},
{
closed = 1;
nodes = (
"309 575 OFFCURVE",
"408 651 OFFCURVE",
"494 651 CURVE SMOOTH",
"601 651 OFFCURVE",
"665 543 OFFCURVE",
"665 378 CURVE SMOOTH",
"665 208 OFFCURVE",
"570 104 OFFCURVE",
"464 104 CURVE SMOOTH",
"395 104 OFFCURVE",
"357 123 OFFCURVE",
"255 195 CURVE",
"255 430 LINE"
);
}
);
width = 875;
},
{
layerId = "58C4FD73-E369-47FC-BB2E-BA826F97CEB5";
paths = (
{
closed = 1;
nodes = (
"112 678 OFFCURVE",
"116 548 OFFCURVE",
"116 363 CURVE SMOOTH",
"116 218 OFFCURVE",
"116 -367 OFFCURVE",
"116 -367 CURVE",
"274 -367 LINE",
"260 -303 OFFCURVE",
"255 -233 OFFCURVE",
"255 -113 CURVE",
"255 64 LINE",
"325 13 OFFCURVE",
"384 -19 OFFCURVE",
"464 -19 CURVE SMOOTH",
"652 -19 OFFCURVE",
"804 144 OFFCURVE",
"804 400 CURVE SMOOTH",
"804 619 OFFCURVE",
"691 778 OFFCURVE",
"520 778 CURVE SMOOTH",
"408 778 OFFCURVE",
"313 713 OFFCURVE",
"243 620 CURVE",
"237 690 OFFCURVE",
"224 737 OFFCURVE",
"214 763 CURVE",
"79 763 LINE"
);
},
{
closed = 1;
nodes = (
"309 575 OFFCURVE",
"408 651 OFFCURVE",
"494 651 CURVE SMOOTH",
"601 651 OFFCURVE",
"665 543 OFFCURVE",
"665 378 CURVE SMOOTH",
"665 208 OFFCURVE",
"570 104 OFFCURVE",
"464 104 CURVE SMOOTH",
"395 104 OFFCURVE",
"357 123 OFFCURVE",
"255 195 CURVE",
"255 430 LINE"
);
}
);
width = 875;
}
);
unicode = 0070;
},
{
glyphname = q;
layers = (
{
layerId = UUID0;
paths = (
{
closed = 1;
nodes = (
"752 -367 LINE",
"739 -303 OFFCURVE",
"733 -233 OFFCURVE",
"733 -113 CURVE SMOOTH",
"733 -20 OFFCURVE",
"733 722 OFFCURVE",
"733 722 CURVE",
"653 750 OFFCURVE",
"558 778 OFFCURVE",
"467 778 CURVE SMOOTH",
"195 778 OFFCURVE",
"79 555 OFFCURVE",
"79 325 CURVE SMOOTH",
"79 87 OFFCURVE",
"240 -19 OFFCURVE",
"378 -19 CURVE SMOOTH",
"446 -19 OFFCURVE",
"517 14 OFFCURVE",
"595 104 CURVE",
"595 -367 LINE"
);
},
{
closed = 1;
nodes = (
"534 163 OFFCURVE",
"458 108 OFFCURVE",
"389 108 CURVE SMOOTH",
"308 108 OFFCURVE",
"217 178 OFFCURVE",
"217 363 CURVE SMOOTH",
"217 503 OFFCURVE",
"281 651 OFFCURVE",
"445 651 CURVE SMOOTH",
"491 651 OFFCURVE",
"550 638 OFFCURVE",
"595 620 CURVE",
"595 274 LINE"
);
}
);
width = 845;
},
{
layerId = "58C4FD73-E369-47FC-BB2E-BA826F97CEB5";
paths = (
{
closed = 1;
nodes = (
"752 -367 LINE",
"739 -303 OFFCURVE",
"733 -233 OFFCURVE",
"733 -113 CURVE SMOOTH",
"733 -20 OFFCURVE",
"733 722 OFFCURVE",
"733 722 CURVE",
"653 750 OFFCURVE",
"558 778 OFFCURVE",
"467 778 CURVE SMOOTH",
"195 778 OFFCURVE",
"79 555 OFFCURVE",
"79 325 CURVE SMOOTH",
"79 87 OFFCURVE",
"240 -19 OFFCURVE",
"378 -19 CURVE SMOOTH",
"446 -19 OFFCURVE",
"517 14 OFFCURVE",
"595 104 CURVE",
"595 -367 LINE"
);
},
{
closed = 1;
nodes = (
"534 163 OFFCURVE",
"458 108 OFFCURVE",
"389 108 CURVE SMOOTH",
"308 108 OFFCURVE",
"217 178 OFFCURVE",
"217 363 CURVE SMOOTH",
"217 503 OFFCURVE",
"281 651 OFFCURVE",
"445 651 CURVE SMOOTH",
"491 651 OFFCURVE",
"550 638 OFFCURVE",
"595 620 CURVE",
"595 274 LINE"
);
}
);
width = 845;
}
);
unicode = 0071;
},
{
glyphname = r;
layers = (
{
layerId = UUID0;
paths = (
{
closed = 1;
nodes = (
"255 434 LINE",
"287 536 OFFCURVE",
"390 643 OFFCURVE",
"453 643 CURVE SMOOTH",
"512 643 OFFCURVE",
"539 576 OFFCURVE",
"539 501 CURVE",
"658 527 LINE",
"658 658 OFFCURVE",
"612 778 OFFCURVE",
"485 778 CURVE SMOOTH",
"418 778 OFFCURVE",
"315 721 OFFCURVE",
"243 617 CURVE",
"237 654 OFFCURVE",
"224 731 OFFCURVE",
"214 763 CURVE",
"79 763 LINE",
"95 712 OFFCURVE",
"116 606 OFFCURVE",
"116 460 CURVE SMOOTH",
"116 0 LINE",
"255 0 LINE"
);
}
);
width = 665;
},
{
layerId = "58C4FD73-E369-47FC-BB2E-BA826F97CEB5";
paths = (
{
closed = 1;
nodes = (
"255 434 LINE",
"287 536 OFFCURVE",
"390 643 OFFCURVE",
"453 643 CURVE SMOOTH",
"512 643 OFFCURVE",
"539 576 OFFCURVE",
"539 501 CURVE",
"658 527 LINE",
"658 658 OFFCURVE",
"612 778 OFFCURVE",
"485 778 CURVE SMOOTH",
"418 778 OFFCURVE",
"315 721 OFFCURVE",
"243 617 CURVE",
"237 654 OFFCURVE",
"224 731 OFFCURVE",
"214 763 CURVE",
"79 763 LINE",
"95 712 OFFCURVE",
"116 606 OFFCURVE",
"116 460 CURVE SMOOTH",
"116 0 LINE",
"255 0 LINE"
);
}
);
width = 665;
}
);
unicode = 0072;
},
{
glyphname = s;
layers = (
{
anchors = (
{
name = above;
position = "{364, 850}";
}
);
layerId = UUID0;
paths = (
{
closed = 1;
nodes = (
"573 746 OFFCURVE",
"494 778 OFFCURVE",
"385 778 CURVE SMOOTH",
"158 778 OFFCURVE",
"97 622 OFFCURVE",
"97 554 CURVE SMOOTH",
"97 461 OFFCURVE",
"136 384 OFFCURVE",
"318 340 CURVE SMOOTH",
"485 299 OFFCURVE",
"523 258 OFFCURVE",
"523 201 CURVE SMOOTH",
"523 151 OFFCURVE",
"462 101 OFFCURVE",
"374 101 CURVE SMOOTH",
"294 101 OFFCURVE",
"186 142 OFFCURVE",
"120 201 CURVE",
"82 66 LINE",
"142 21 OFFCURVE",
"249 -19 OFFCURVE",
"370 -19 CURVE SMOOTH",
"531 -19 OFFCURVE",
"658 85 OFFCURVE",
"658 220 CURVE SMOOTH",
"658 360 OFFCURVE",
"546 418 OFFCURVE",
"411 449 CURVE SMOOTH",
"255 484 OFFCURVE",
"232 508 OFFCURVE",
"232 560 CURVE SMOOTH",
"232 605 OFFCURVE",
"267 658 OFFCURVE",
"378 658 CURVE SMOOTH",
"471 658 OFFCURVE",
"548 617 OFFCURVE",
"598 587 CURVE",
"624 718 LINE"
);
}
);
width = 722;
},
{
anchors = (
{
name = above;
position = "{364, 850}";
}
);
layerId = "58C4FD73-E369-47FC-BB2E-BA826F97CEB5";
paths = (
{
closed = 1;
nodes = (
"573 746 OFFCURVE",
"494 778 OFFCURVE",
"385 778 CURVE SMOOTH",
"158 778 OFFCURVE",
"97 622 OFFCURVE",
"97 554 CURVE SMOOTH",
"97 461 OFFCURVE",
"136 384 OFFCURVE",
"318 340 CURVE SMOOTH",
"485 299 OFFCURVE",
"523 258 OFFCURVE",
"523 201 CURVE SMOOTH",
"523 151 OFFCURVE",
"462 101 OFFCURVE",
"374 101 CURVE SMOOTH",
"294 101 OFFCURVE",
"186 142 OFFCURVE",
"120 201 CURVE",
"82 66 LINE",
"142 21 OFFCURVE",
"249 -19 OFFCURVE",
"370 -19 CURVE SMOOTH",
"531 -19 OFFCURVE",
"658 85 OFFCURVE",
"658 220 CURVE SMOOTH",
"658 360 OFFCURVE",
"546 418 OFFCURVE",
"411 449 CURVE SMOOTH",
"255 484 OFFCURVE",
"232 508 OFFCURVE",
"232 560 CURVE SMOOTH",
"232 605 OFFCURVE",
"267 658 OFFCURVE",
"378 658 CURVE SMOOTH",
"471 658 OFFCURVE",
"548 617 OFFCURVE",
"598 587 CURVE",
"624 718 LINE"
);
}
);
width = 722;
}
);
unicode = 0073;
},
{
glyphname = t;
layers = (
{
layerId = UUID0;
paths = (
{
closed = 1;
nodes = (
"503 123 OFFCURVE",
"448 104 OFFCURVE",
"406 104 CURVE SMOOTH",
"339 104 OFFCURVE",
"311 138 OFFCURVE",
"311 292 CURVE SMOOTH",
"311 395 OFFCURVE",
"311 987 OFFCURVE",
"311 987 CURVE",
"172 987 LINE",
"172 987 OFFCURVE",
"172 325 OFFCURVE",
"172 201 CURVE SMOOTH",
"172 28 OFFCURVE",
"266 -19 OFFCURVE",
"383 -19 CURVE SMOOTH",
"435 -19 OFFCURVE",
"500 -3 OFFCURVE",
"568 41 CURVE",
"568 161 LINE"
);
},
{
closed = 1;
nodes = (
"554 636 LINE",
"554 744 LINE",
"22 744 LINE",
"22 636 LINE"
);
}
);
width = 624;
},
{
layerId = "58C4FD73-E369-47FC-BB2E-BA826F97CEB5";
paths = (
{
closed = 1;
nodes = (
"503 123 OFFCURVE",
"448 104 OFFCURVE",
"406 104 CURVE SMOOTH",
"339 104 OFFCURVE",
"311 138 OFFCURVE",
"311 292 CURVE SMOOTH",
"311 395 OFFCURVE",
"311 987 OFFCURVE",
"311 987 CURVE",
"172 987 LINE",
"172 987 OFFCURVE",
"172 325 OFFCURVE",
"172 201 CURVE SMOOTH",
"172 28 OFFCURVE",
"266 -19 OFFCURVE",
"383 -19 CURVE SMOOTH",
"435 -19 OFFCURVE",
"500 -3 OFFCURVE",
"568 41 CURVE",
"568 161 LINE"
);
},
{
closed = 1;
nodes = (
"554 636 LINE",
"554 744 LINE",
"22 744 LINE",
"22 636 LINE"
);
}
);
width = 624;
}
);
unicode = 0074;
},
{
glyphname = u;
layers = (
{
anchors = (
{
name = above;
position = "{436, 850}";
}
);
layerId = UUID0;
paths = (
{
closed = 1;
nodes = (
"784 84 OFFCURVE",
"767 192 OFFCURVE",
"767 336 CURVE SMOOTH",
"767 483 OFFCURVE",
"767 763 OFFCURVE",
"767 763 CURVE",
"614 763 LINE",
"626 672 OFFCURVE",
"628 622 OFFCURVE",
"628 523 CURVE SMOOTH",
"628 314 LINE",
"588 222 OFFCURVE",
"470 104 OFFCURVE",
"381 104 CURVE SMOOTH",
"286 104 OFFCURVE",
"255 178 OFFCURVE",
"255 348 CURVE SMOOTH",
"255 451 OFFCURVE",
"255 763 OFFCURVE",
"255 763 CURVE",
"101 763 LINE",
"115 674 OFFCURVE",
"116 618 OFFCURVE",
"116 523 CURVE",
"116 303 LINE",
"116 89 OFFCURVE",
"196 -19 OFFCURVE",
"355 -19 CURVE SMOOTH",
"460 -19 OFFCURVE",
"557 40 OFFCURVE",
"647 149 CURVE",
"655 94 OFFCURVE",
"674 34 OFFCURVE",
"688 0 CURVE",
"815 0 LINE"
);
}
);
width = 886;
},
{
anchors = (
{
name = above;
position = "{436, 850}";
}
);
layerId = "58C4FD73-E369-47FC-BB2E-BA826F97CEB5";
paths = (
{
closed = 1;
nodes = (
"784 84 OFFCURVE",
"767 192 OFFCURVE",
"767 336 CURVE SMOOTH",
"767 483 OFFCURVE",
"767 763 OFFCURVE",
"767 763 CURVE",
"614 763 LINE",
"626 672 OFFCURVE",
"628 622 OFFCURVE",
"628 523 CURVE SMOOTH",
"628 314 LINE",
"588 222 OFFCURVE",
"470 104 OFFCURVE",
"381 104 CURVE SMOOTH",
"286 104 OFFCURVE",
"255 178 OFFCURVE",
"255 348 CURVE SMOOTH",
"255 451 OFFCURVE",
"255 763 OFFCURVE",
"255 763 CURVE",
"101 763 LINE",
"115 674 OFFCURVE",
"116 618 OFFCURVE",
"116 523 CURVE",
"116 303 LINE",
"116 89 OFFCURVE",
"196 -19 OFFCURVE",
"355 -19 CURVE SMOOTH",
"460 -19 OFFCURVE",
"557 40 OFFCURVE",
"647 149 CURVE",
"655 94 OFFCURVE",
"674 34 OFFCURVE",
"688 0 CURVE",
"815 0 LINE"
);
}
);
width = 886;
}
);
unicode = 0075;
},
{
glyphname = v;
layers = (
{
layerId = UUID0;
paths = (
{
closed = 1;
nodes = (
"400 149 LINE",
"172 763 LINE",
"15 763 LINE",
"56 677 OFFCURVE",
"106 558 OFFCURVE",
"131 498 CURVE SMOOTH",
"178 381 OFFCURVE",
"329 0 OFFCURVE",
"329 0 CURVE",
"471 0 LINE",
"471 0 OFFCURVE",
"630 401 OFFCURVE",
"670 498 CURVE SMOOTH",
"694 557 OFFCURVE",
"743 677 OFFCURVE",
"785 763 CURVE",
"628 763 LINE"
);
}
);
width = 800;
},
{
layerId = "58C4FD73-E369-47FC-BB2E-BA826F97CEB5";
paths = (
{
closed = 1;
nodes = (
"400 149 LINE",
"172 763 LINE",
"15 763 LINE",
"56 677 OFFCURVE",
"106 558 OFFCURVE",
"131 498 CURVE SMOOTH",
"178 381 OFFCURVE",
"329 0 OFFCURVE",
"329 0 CURVE",
"471 0 LINE",
"471 0 OFFCURVE",
"630 401 OFFCURVE",
"670 498 CURVE SMOOTH",
"694 557 OFFCURVE",
"743 677 OFFCURVE",
"785 763 CURVE",
"628 763 LINE"
);
}
);
width = 800;
}
);
unicode = 0076;
},
{
glyphname = w;
layers = (
{
layerId = UUID0;
paths = (
{
closed = 1;
nodes = (
"329 161 LINE",
"172 763 LINE",
"34 763 LINE",
"68 648 OFFCURVE",
"90 576 OFFCURVE",
"112 498 CURVE SMOOTH",
"251 0 LINE",
"393 0 LINE",
"579 587 LINE",
"767 0 LINE",
"909 0 LINE",
"1047 498 LINE SMOOTH",
"1072 586 OFFCURVE",
"1091 650 OFFCURVE",
"1126 763 CURVE",
"987 763 LINE",
"830 161 LINE",
"636 763 LINE",
"523 763 LINE"
);
}
);
width = 1159;
},
{
layerId = "58C4FD73-E369-47FC-BB2E-BA826F97CEB5";
paths = (
{
closed = 1;
nodes = (
"329 161 LINE",
"172 763 LINE",
"34 763 LINE",
"68 648 OFFCURVE",
"90 576 OFFCURVE",
"112 498 CURVE SMOOTH",
"251 0 LINE",
"393 0 LINE",
"579 587 LINE",
"767 0 LINE",
"909 0 LINE",
"1047 498 LINE SMOOTH",
"1072 586 OFFCURVE",
"1091 650 OFFCURVE",
"1126 763 CURVE",
"987 763 LINE",
"830 161 LINE",
"636 763 LINE",
"523 763 LINE"
);
}
);
width = 1159;
}
);
unicode = 0077;
},
{
glyphname = x;
layers = (
{
layerId = UUID0;
paths = (
{
closed = 1;
nodes = (
"774 0 LINE",
"693 105 OFFCURVE",
"674 126 OFFCURVE",
"620 201 CURVE SMOOTH",
"217 763 LINE",
"45 763 LINE",
"125 663 OFFCURVE",
"152 629 OFFCURVE",
"201 560 CURVE",
"602 0 LINE"
);
},
{
closed = 1;
nodes = (
"186 201 LINE SMOOTH",
"142 136 OFFCURVE",
"120 106 OFFCURVE",
"37 0 CURVE",
"205 0 LINE",
"416 302 LINE",
"366 461 LINE"
);
},
{
closed = 1;
nodes = (
"614 560 LINE SMOOTH",
"661 628 OFFCURVE",
"686 662 OFFCURVE",
"763 763 CURVE",
"595 763 LINE",
"389 460 LINE",
"438 303 LINE"
);
}
);
width = 812;
},
{
layerId = "58C4FD73-E369-47FC-BB2E-BA826F97CEB5";
paths = (
{
closed = 1;
nodes = (
"774 0 LINE",
"693 105 OFFCURVE",
"674 126 OFFCURVE",
"620 201 CURVE SMOOTH",
"217 763 LINE",
"45 763 LINE",
"125 663 OFFCURVE",
"152 629 OFFCURVE",
"201 560 CURVE",
"602 0 LINE"
);
},
{
closed = 1;
nodes = (
"186 201 LINE SMOOTH",
"142 136 OFFCURVE",
"120 106 OFFCURVE",
"37 0 CURVE",
"205 0 LINE",
"416 302 LINE",
"366 461 LINE"
);
},
{
closed = 1;
nodes = (
"614 560 LINE SMOOTH",
"661 628 OFFCURVE",
"686 662 OFFCURVE",
"763 763 CURVE",
"595 763 LINE",
"389 460 LINE",
"438 303 LINE"
);
}
);
width = 812;
}
);
unicode = 0078;
},
{
glyphname = y;
layers = (
{
anchors = (
{
name = above;
position = "{416, 850}";
}
);
layerId = UUID0;
paths = (
{
closed = 1;
nodes = (
"172 763 LINE",
"22 763 LINE",
"80 646 OFFCURVE",
"115 565 OFFCURVE",
"142 498 CURVE SMOOTH",
"393 -124 LINE",
"456 45 LINE"
);
},
{
closed = 1;
nodes = (
"694 566 OFFCURVE",
"726 647 OFFCURVE",
"778 763 CURVE",
"628 763 LINE",
"628 763 OFFCURVE",
"422 172 OFFCURVE",
"374 41 CURVE SMOOTH",
"293 -185 OFFCURVE",
"236 -224 OFFCURVE",
"168 -224 CURVE SMOOTH",
"119 -224 OFFCURVE",
"61 -195 OFFCURVE",
"29 -168 CURVE",
"-15 -288 LINE",
"40 -328 OFFCURVE",
"100 -352 OFFCURVE",
"168 -352 CURVE SMOOTH",
"295 -352 OFFCURVE",
"386 -286 OFFCURVE",
"490 0 CURVE",
"670 498 LINE"
);
}
);
width = 793;
},
{
anchors = (
{
name = above;
position = "{416, 850}";
}
);
layerId = "58C4FD73-E369-47FC-BB2E-BA826F97CEB5";
paths = (
{
closed = 1;
nodes = (
"172 763 LINE",
"22 763 LINE",
"80 646 OFFCURVE",
"115 565 OFFCURVE",
"142 498 CURVE SMOOTH",
"393 -124 LINE",
"456 45 LINE"
);
},
{
closed = 1;
nodes = (
"694 566 OFFCURVE",
"726 647 OFFCURVE",
"778 763 CURVE",
"628 763 LINE",
"628 763 OFFCURVE",
"422 172 OFFCURVE",
"374 41 CURVE SMOOTH",
"293 -185 OFFCURVE",
"236 -224 OFFCURVE",
"168 -224 CURVE SMOOTH",
"119 -224 OFFCURVE",
"61 -195 OFFCURVE",
"29 -168 CURVE",
"-15 -288 LINE",
"40 -328 OFFCURVE",
"100 -352 OFFCURVE",
"168 -352 CURVE SMOOTH",
"295 -352 OFFCURVE",
"386 -286 OFFCURVE",
"490 0 CURVE",
"670 498 LINE"
);
}
);
width = 793;
}
);
unicode = 0079;
},
{
glyphname = z;
layers = (
{
anchors = (
{
name = above;
position = "{338, 850}";
}
);
layerId = UUID0;
paths = (
{
closed = 1;
nodes = (
"52 639 LINE",
"79 651 OFFCURVE",
"124 651 OFFCURVE",
"168 651 CURVE SMOOTH",
"459 651 LINE",
"30 82 LINE",
"30 0 LINE",
"658 0 LINE",
"658 123 LINE",
"613 112 OFFCURVE",
"567 112 OFFCURVE",
"524 112 CURVE SMOOTH",
"202 112 LINE",
"646 693 LINE",
"646 763 LINE",
"52 763 LINE"
);
}
);
width = 687;
},
{
anchors = (
{
name = above;
position = "{338, 850}";
}
);
layerId = "58C4FD73-E369-47FC-BB2E-BA826F97CEB5";
paths = (
{
closed = 1;
nodes = (
"52 639 LINE",
"79 651 OFFCURVE",
"124 651 OFFCURVE",
"168 651 CURVE SMOOTH",
"459 651 LINE",
"30 82 LINE",
"30 0 LINE",
"658 0 LINE",
"658 123 LINE",
"613 112 OFFCURVE",
"567 112 OFFCURVE",
"524 112 CURVE SMOOTH",
"202 112 LINE",
"646 693 LINE",
"646 763 LINE",
"52 763 LINE"
);
}
);
width = 687;
}
);
unicode = 007A;
},
{
glyphname = braceleft;
layers = (
{
layerId = UUID0;
paths = (
{
closed = 1;
nodes = (
"286 363 OFFCURVE",
"306 336 CURVE SMOOTH",
"324 313 OFFCURVE",
"317 -154 OFFCURVE",
"370 -214 CURVE SMOOTH",
"400 -247 OFFCURVE",
"521 -286 OFFCURVE",
"598 -307 CURVE",
"628 -202 LINE",
"579 -184 OFFCURVE",
"485 -148 OFFCURVE",
"471 -127 CURVE SMOOTH",
"446 -92 OFFCURVE",
"456 334 OFFCURVE",
"441 363 CURVE SMOOTH",
"427 390 OFFCURVE",
"324 444 OFFCURVE",
"321 460 CURVE",
"324 477 OFFCURVE",
"427 531 OFFCURVE",
"441 558 CURVE SMOOTH",
"456 585 OFFCURVE",
"446 1013 OFFCURVE",
"471 1047 CURVE SMOOTH",
"485 1069 OFFCURVE",
"579 1105 OFFCURVE",
"628 1122 CURVE",
"598 1226 LINE",
"521 1206 OFFCURVE",
"400 1167 OFFCURVE",
"370 1133 CURVE SMOOTH",
"317 1073 OFFCURVE",
"324 607 OFFCURVE",
"306 583 CURVE SMOOTH",
"286 557 OFFCURVE",
"157 484 OFFCURVE",
"157 460 CURVE SMOOTH",
"157 436 OFFCURVE"
);
}
);
width = 748;
},
{
layerId = "58C4FD73-E369-47FC-BB2E-BA826F97CEB5";
paths = (
{
closed = 1;
nodes = (
"286 363 OFFCURVE",
"306 336 CURVE SMOOTH",
"324 313 OFFCURVE",
"317 -154 OFFCURVE",
"370 -214 CURVE SMOOTH",
"400 -247 OFFCURVE",
"521 -286 OFFCURVE",
"598 -307 CURVE",
"628 -202 LINE",
"579 -184 OFFCURVE",
"485 -148 OFFCURVE",
"471 -127 CURVE SMOOTH",
"446 -92 OFFCURVE",
"456 334 OFFCURVE",
"441 363 CURVE SMOOTH",
"427 390 OFFCURVE",
"324 444 OFFCURVE",
"321 460 CURVE",
"324 477 OFFCURVE",
"427 531 OFFCURVE",
"441 558 CURVE SMOOTH",
"456 585 OFFCURVE",
"446 1013 OFFCURVE",
"471 1047 CURVE SMOOTH",
"485 1069 OFFCURVE",
"579 1105 OFFCURVE",
"628 1122 CURVE",
"598 1226 LINE",
"521 1206 OFFCURVE",
"400 1167 OFFCURVE",
"370 1133 CURVE SMOOTH",
"317 1073 OFFCURVE",
"324 607 OFFCURVE",
"306 583 CURVE SMOOTH",
"286 557 OFFCURVE",
"157 484 OFFCURVE",
"157 460 CURVE SMOOTH",
"157 436 OFFCURVE"
);
}
);
width = 748;
}
);
unicode = 007B;
},
{
glyphname = braceright;
layers = (
{
layerId = UUID0;
paths = (
{
closed = 1;
nodes = (
"462 557 OFFCURVE",
"441 583 CURVE SMOOTH",
"423 607 OFFCURVE",
"431 1073 OFFCURVE",
"378 1133 CURVE SMOOTH",
"348 1167 OFFCURVE",
"227 1206 OFFCURVE",
"149 1226 CURVE",
"120 1122 LINE",
"169 1105 OFFCURVE",
"261 1069 OFFCURVE",
"276 1047 CURVE SMOOTH",
"301 1013 OFFCURVE",
"292 585 OFFCURVE",
"306 558 CURVE SMOOTH",
"321 531 OFFCURVE",
"423 477 OFFCURVE",
"426 460 CURVE",
"423 444 OFFCURVE",
"321 390 OFFCURVE",
"306 363 CURVE SMOOTH",
"292 334 OFFCURVE",
"301 -92 OFFCURVE",
"276 -127 CURVE SMOOTH",
"261 -148 OFFCURVE",
"169 -184 OFFCURVE",
"120 -202 CURVE",
"149 -307 LINE",
"227 -286 OFFCURVE",
"348 -247 OFFCURVE",
"378 -214 CURVE SMOOTH",
"431 -154 OFFCURVE",
"423 313 OFFCURVE",
"441 336 CURVE SMOOTH",
"462 363 OFFCURVE",
"591 436 OFFCURVE",
"591 460 CURVE SMOOTH",
"591 484 OFFCURVE"
);
}
);
width = 748;
},
{
layerId = "58C4FD73-E369-47FC-BB2E-BA826F97CEB5";
paths = (
{
closed = 1;
nodes = (
"462 557 OFFCURVE",
"441 583 CURVE SMOOTH",
"423 607 OFFCURVE",
"431 1073 OFFCURVE",
"378 1133 CURVE SMOOTH",
"348 1167 OFFCURVE",
"227 1206 OFFCURVE",
"149 1226 CURVE",
"120 1122 LINE",
"169 1105 OFFCURVE",
"261 1069 OFFCURVE",
"276 1047 CURVE SMOOTH",
"301 1013 OFFCURVE",
"292 585 OFFCURVE",
"306 558 CURVE SMOOTH",
"321 531 OFFCURVE",
"423 477 OFFCURVE",
"426 460 CURVE",
"423 444 OFFCURVE",
"321 390 OFFCURVE",
"306 363 CURVE SMOOTH",
"292 334 OFFCURVE",
"301 -92 OFFCURVE",
"276 -127 CURVE SMOOTH",
"261 -148 OFFCURVE",
"169 -184 OFFCURVE",
"120 -202 CURVE",
"149 -307 LINE",
"227 -286 OFFCURVE",
"348 -247 OFFCURVE",
"378 -214 CURVE SMOOTH",
"431 -154 OFFCURVE",
"423 313 OFFCURVE",
"441 336 CURVE SMOOTH",
"462 363 OFFCURVE",
"591 436 OFFCURVE",
"591 460 CURVE SMOOTH",
"591 484 OFFCURVE"
);
}
);
width = 748;
}
);
unicode = 007D;
},
{
glyphname = bar;
layers = (
{
layerId = UUID0;
paths = (
{
closed = 1;
nodes = (
"201 -293 LINE",
"314 -293 LINE",
"314 1197 LINE",
"201 1197 LINE"
);
}
);
width = 516;
},
{
layerId = "58C4FD73-E369-47FC-BB2E-BA826F97CEB5";
paths = (
{
closed = 1;
nodes = (
"201 -293 LINE",
"314 -293 LINE",
"314 1197 LINE",
"201 1197 LINE"
);
}
);
width = 516;
}
);
unicode = 007C;
},
{
glyphname = asciitilde;
layers = (
{
layerId = UUID0;
paths = (
{
closed = 1;
nodes = (
"97 317 OFFCURVE",
"121 348 OFFCURVE",
"180 348 CURVE SMOOTH",
"311 348 OFFCURVE",
"460 269 OFFCURVE",
"633 269 CURVE SMOOTH",
"751 269 OFFCURVE",
"807 360 OFFCURVE",
"807 456 CURVE",
"730 456 LINE",
"724 422 OFFCURVE",
"701 381 OFFCURVE",
"639 381 CURVE SMOOTH",
"463 381 OFFCURVE",
"345 460 OFFCURVE",
"180 460 CURVE SMOOTH",
"69 460 OFFCURVE",
"15 372 OFFCURVE",
"15 280 CURVE",
"94 280 LINE"
);
}
);
width = 834;
},
{
layerId = "58C4FD73-E369-47FC-BB2E-BA826F97CEB5";
paths = (
{
closed = 1;
nodes = (
"97 317 OFFCURVE",
"121 348 OFFCURVE",
"180 348 CURVE SMOOTH",
"311 348 OFFCURVE",
"460 269 OFFCURVE",
"633 269 CURVE SMOOTH",
"751 269 OFFCURVE",
"807 360 OFFCURVE",
"807 456 CURVE",
"730 456 LINE",
"724 422 OFFCURVE",
"701 381 OFFCURVE",
"639 381 CURVE SMOOTH",
"463 381 OFFCURVE",
"345 460 OFFCURVE",
"180 460 CURVE SMOOTH",
"69 460 OFFCURVE",
"15 372 OFFCURVE",
"15 280 CURVE",
"94 280 LINE"
);
}
);
width = 834;
}
);
unicode = 007E;
},
{
glyphname = exclamdown;
layers = (
{
layerId = UUID0;
paths = (
{
closed = 1;
nodes = (
"202 276 OFFCURVE",
"202 18 OFFCURVE",
"175 -307 CURVE",
"365 -307 LINE",
"336 18 OFFCURVE",
"336 276 OFFCURVE",
"332 494 CURVE",
"207 494 LINE"
);
},
{
closed = 1;
nodes = (
"215 632 OFFCURVE",
"271 632 CURVE SMOOTH",
"325 632 OFFCURVE",
"370 676 OFFCURVE",
"370 731 CURVE SMOOTH",
"370 787 OFFCURVE",
"325 832 OFFCURVE",
"271 832 CURVE SMOOTH",
"215 832 OFFCURVE",
"169 787 OFFCURVE",
"169 731 CURVE SMOOTH",
"169 676 OFFCURVE"
);
}
);
width = 572;
},
{
layerId = "58C4FD73-E369-47FC-BB2E-BA826F97CEB5";
paths = (
{
closed = 1;
nodes = (
"202 276 OFFCURVE",
"202 18 OFFCURVE",
"175 -307 CURVE",
"365 -307 LINE",
"336 18 OFFCURVE",
"336 276 OFFCURVE",
"332 494 CURVE",
"207 494 LINE"
);
},
{
closed = 1;
nodes = (
"215 632 OFFCURVE",
"271 632 CURVE SMOOTH",
"325 632 OFFCURVE",
"370 676 OFFCURVE",
"370 731 CURVE SMOOTH",
"370 787 OFFCURVE",
"325 832 OFFCURVE",
"271 832 CURVE SMOOTH",
"215 832 OFFCURVE",
"169 787 OFFCURVE",
"169 731 CURVE SMOOTH",
"169 676 OFFCURVE"
);
}
);
width = 572;
}
);
unicode = 00A1;
},
{
glyphname = cent;
layers = (
{
layerId = UUID0;
paths = (
{
closed = 1;
nodes = (
"154 617 OFFCURVE",
"154 404 CURVE SMOOTH",
"154 177 OFFCURVE",
"307 37 OFFCURVE",
"498 37 CURVE SMOOTH",
"604 37 OFFCURVE",
"672 62 OFFCURVE",
"743 116 CURVE",
"730 240 LINE",
"667 185 OFFCURVE",
"598 155 OFFCURVE",
"513 155 CURVE SMOOTH",
"375 155 OFFCURVE",
"288 258 OFFCURVE",
"288 411 CURVE SMOOTH",
"288 579 OFFCURVE",
"386 677 OFFCURVE",
"513 677 CURVE SMOOTH",
"585 677 OFFCURVE",
"647 654 OFFCURVE",
"712 605 CURVE",
"736 734 LINE",
"684 770 OFFCURVE",
"617 794 OFFCURVE",
"522 794 CURVE SMOOTH",
"297 794 OFFCURVE"
);
},
{
closed = 1;
nodes = (
"453 -158 LINE",
"550 -158 LINE",
"550 987 LINE",
"453 987 LINE"
);
}
);
width = 898;
},
{
layerId = "58C4FD73-E369-47FC-BB2E-BA826F97CEB5";
paths = (
{
closed = 1;
nodes = (
"154 617 OFFCURVE",
"154 404 CURVE SMOOTH",
"154 177 OFFCURVE",
"307 37 OFFCURVE",
"498 37 CURVE SMOOTH",
"604 37 OFFCURVE",
"672 62 OFFCURVE",
"743 116 CURVE",
"730 240 LINE",
"667 185 OFFCURVE",
"598 155 OFFCURVE",
"513 155 CURVE SMOOTH",
"375 155 OFFCURVE",
"288 258 OFFCURVE",
"288 411 CURVE SMOOTH",
"288 579 OFFCURVE",
"386 677 OFFCURVE",
"513 677 CURVE SMOOTH",
"585 677 OFFCURVE",
"647 654 OFFCURVE",
"712 605 CURVE",
"736 734 LINE",
"684 770 OFFCURVE",
"617 794 OFFCURVE",
"522 794 CURVE SMOOTH",
"297 794 OFFCURVE"
);
},
{
closed = 1;
nodes = (
"453 -158 LINE",
"550 -158 LINE",
"550 987 LINE",
"453 987 LINE"
);
}
);
width = 898;
}
);
unicode = 00A2;
},
{
glyphname = sterling;
layers = (
{
layerId = UUID0;
paths = (
{
closed = 1;
nodes = (
"339 181 OFFCURVE",
"358 256 OFFCURVE",
"358 348 CURVE SMOOTH",
"358 475 OFFCURVE",
"333 672 OFFCURVE",
"333 804 CURVE SMOOTH",
"333 940 OFFCURVE",
"397 992 OFFCURVE",
"490 992 CURVE SMOOTH",
"534 992 OFFCURVE",
"603 974 OFFCURVE",
"641 946 CURVE",
"675 1058 LINE",
"630 1092 OFFCURVE",
"548 1111 OFFCURVE",
"490 1111 CURVE SMOOTH",
"313 1111 OFFCURVE",
"195 998 OFFCURVE",
"195 774 CURVE SMOOTH",
"195 636 OFFCURVE",
"219 446 OFFCURVE",
"219 294 CURVE SMOOTH",
"219 209 OFFCURVE",
"168 141 OFFCURVE",
"108 97 CURVE",
"108 0 LINE",
"759 0 LINE",
"759 135 LINE",
"699 123 OFFCURVE",
"580 123 OFFCURVE",
"433 123 CURVE SMOOTH",
"281 123 LINE"
);
},
{
closed = 1;
nodes = (
"573 516 LINE",
"573 624 LINE",
"116 624 LINE",
"116 516 LINE"
);
}
);
width = 898;
},
{
layerId = "58C4FD73-E369-47FC-BB2E-BA826F97CEB5";
paths = (
{
closed = 1;
nodes = (
"339 181 OFFCURVE",
"358 256 OFFCURVE",
"358 348 CURVE SMOOTH",
"358 475 OFFCURVE",
"333 672 OFFCURVE",
"333 804 CURVE SMOOTH",
"333 940 OFFCURVE",
"397 992 OFFCURVE",
"490 992 CURVE SMOOTH",
"534 992 OFFCURVE",
"603 974 OFFCURVE",
"641 946 CURVE",
"675 1058 LINE",
"630 1092 OFFCURVE",
"548 1111 OFFCURVE",
"490 1111 CURVE SMOOTH",
"313 1111 OFFCURVE",
"195 998 OFFCURVE",
"195 774 CURVE SMOOTH",
"195 636 OFFCURVE",
"219 446 OFFCURVE",
"219 294 CURVE SMOOTH",
"219 209 OFFCURVE",
"168 141 OFFCURVE",
"108 97 CURVE",
"108 0 LINE",
"759 0 LINE",
"759 135 LINE",
"699 123 OFFCURVE",
"580 123 OFFCURVE",
"433 123 CURVE SMOOTH",
"281 123 LINE"
);
},
{
closed = 1;
nodes = (
"573 516 LINE",
"573 624 LINE",
"116 624 LINE",
"116 516 LINE"
);
}
);
width = 898;
}
);
unicode = 00A3;
},
{
glyphname = currency;
layers = (
{
layerId = UUID0;
paths = (
{
closed = 1;
nodes = (
"712 465 LINE",
"754 521 OFFCURVE",
"776 583 OFFCURVE",
"776 656 CURVE SMOOTH",
"776 728 OFFCURVE",
"750 797 OFFCURVE",
"711 851 CURVE",
"870 1010 LINE",
"800 1080 LINE",
"637 918 LINE",
"584 959 OFFCURVE",
"522 982 OFFCURVE",
"452 982 CURVE SMOOTH",
"380 982 OFFCURVE",
"313 959 OFFCURVE",
"258 920 CURVE",
"98 1080 LINE",
"28 1010 LINE",
"188 849 LINE",
"142 795 OFFCURVE",
"122 725 OFFCURVE",
"122 654 CURVE SMOOTH",
"122 581 OFFCURVE",
"144 521 OFFCURVE",
"185 465 CURVE",
"28 307 LINE",
"98 237 LINE",
"256 396 LINE",
"313 351 OFFCURVE",
"375 327 OFFCURVE",
"452 327 CURVE SMOOTH",
"522 327 OFFCURVE",
"586 351 OFFCURVE",
"641 396 CURVE",
"800 237 LINE",
"870 307 LINE"
);
},
{
closed = 1;
nodes = (
"581 426 OFFCURVE",
"452 426 CURVE SMOOTH",
"320 426 OFFCURVE",
"219 522 OFFCURVE",
"219 654 CURVE SMOOTH",
"219 788 OFFCURVE",
"318 883 OFFCURVE",
"452 883 CURVE SMOOTH",
"580 883 OFFCURVE",
"677 783 OFFCURVE",
"677 656 CURVE SMOOTH",
"677 527 OFFCURVE"
);
}
);
width = 898;
},
{
layerId = "58C4FD73-E369-47FC-BB2E-BA826F97CEB5";
paths = (
{
closed = 1;
nodes = (
"712 465 LINE",
"754 521 OFFCURVE",
"776 583 OFFCURVE",
"776 656 CURVE SMOOTH",
"776 728 OFFCURVE",
"750 797 OFFCURVE",
"711 851 CURVE",
"870 1010 LINE",
"800 1080 LINE",
"637 918 LINE",
"584 959 OFFCURVE",
"522 982 OFFCURVE",
"452 982 CURVE SMOOTH",
"380 982 OFFCURVE",
"313 959 OFFCURVE",
"258 920 CURVE",
"98 1080 LINE",
"28 1010 LINE",
"188 849 LINE",
"142 795 OFFCURVE",
"122 725 OFFCURVE",
"122 654 CURVE SMOOTH",
"122 581 OFFCURVE",
"144 521 OFFCURVE",
"185 465 CURVE",
"28 307 LINE",
"98 237 LINE",
"256 396 LINE",
"313 351 OFFCURVE",
"375 327 OFFCURVE",
"452 327 CURVE SMOOTH",
"522 327 OFFCURVE",
"586 351 OFFCURVE",
"641 396 CURVE",
"800 237 LINE",
"870 307 LINE"
);
},
{
closed = 1;
nodes = (
"581 426 OFFCURVE",
"452 426 CURVE SMOOTH",
"320 426 OFFCURVE",
"219 522 OFFCURVE",
"219 654 CURVE SMOOTH",
"219 788 OFFCURVE",
"318 883 OFFCURVE",
"452 883 CURVE SMOOTH",
"580 883 OFFCURVE",
"677 783 OFFCURVE",
"677 656 CURVE SMOOTH",
"677 527 OFFCURVE"
);
}
);
width = 898;
}
);
unicode = 00A4;
},
{
glyphname = yen;
layers = (
{
layerId = UUID0;
paths = (
{
closed = 1;
nodes = (
"503 480 LINE",
"199 1037 LINE",
"47 1037 LINE",
"121 932 OFFCURVE",
"164 851 OFFCURVE",
"214 757 CURVE SMOOTH",
"406 398 LINE"
);
},
{
closed = 1;
nodes = (
"686 757 LINE SMOOTH",
"735 849 OFFCURVE",
"772 917 OFFCURVE",
"849 1037 CURVE",
"698 1037 LINE",
"408 480 LINE",
"494 398 LINE"
);
},
{
closed = 1;
nodes = (
"387 309 LINE SMOOTH",
"387 168 OFFCURVE",
"387 57 OFFCURVE",
"377 0 CURVE",
"520 0 LINE",
"510 57 OFFCURVE",
"510 168 OFFCURVE",
"510 309 CURVE SMOOTH",
"510 494 LINE",
"387 494 LINE"
);
},
{
closed = 1;
nodes = (
"754 239 LINE",
"754 348 LINE",
"149 348 LINE",
"149 239 LINE"
);
},
{
closed = 1;
nodes = (
"754 426 LINE",
"754 535 LINE",
"149 535 LINE",
"149 426 LINE"
);
}
);
width = 898;
},
{
layerId = "58C4FD73-E369-47FC-BB2E-BA826F97CEB5";
paths = (
{
closed = 1;
nodes = (
"503 480 LINE",
"199 1037 LINE",
"47 1037 LINE",
"121 932 OFFCURVE",
"164 851 OFFCURVE",
"214 757 CURVE SMOOTH",
"406 398 LINE"
);
},
{
closed = 1;
nodes = (
"686 757 LINE SMOOTH",
"735 849 OFFCURVE",
"772 917 OFFCURVE",
"849 1037 CURVE",
"698 1037 LINE",
"408 480 LINE",
"494 398 LINE"
);
},
{
closed = 1;
nodes = (
"387 309 LINE SMOOTH",
"387 168 OFFCURVE",
"387 57 OFFCURVE",
"377 0 CURVE",
"520 0 LINE",
"510 57 OFFCURVE",
"510 168 OFFCURVE",
"510 309 CURVE SMOOTH",
"510 494 LINE",
"387 494 LINE"
);
},
{
closed = 1;
nodes = (
"754 239 LINE",
"754 348 LINE",
"149 348 LINE",
"149 239 LINE"
);
},
{
closed = 1;
nodes = (
"754 426 LINE",
"754 535 LINE",
"149 535 LINE",
"149 426 LINE"
);
}
);
width = 898;
}
);
unicode = 00A5;
},
{
glyphname = brokenbar;
layers = (
{
layerId = UUID0;
paths = (
{
closed = 1;
nodes = (
"329 -293 LINE",
"441 -293 LINE",
"441 333 LINE",
"329 333 LINE"
);
},
{
closed = 1;
nodes = (
"441 1197 LINE",
"329 1197 LINE",
"329 579 LINE",
"441 579 LINE"
);
}
);
width = 766;
},
{
layerId = "58C4FD73-E369-47FC-BB2E-BA826F97CEB5";
paths = (
{
closed = 1;
nodes = (
"329 -293 LINE",
"441 -293 LINE",
"441 333 LINE",
"329 333 LINE"
);
},
{
closed = 1;
nodes = (
"441 1197 LINE",
"329 1197 LINE",
"329 579 LINE",
"441 579 LINE"
);
}
);
width = 766;
}
);
unicode = 00A6;
},
{
glyphname = section;
layers = (
{
layerId = UUID0;
paths = (
{
closed = 1;
nodes = (
"539 112 OFFCURVE",
"658 225 OFFCURVE",
"658 383 CURVE SMOOTH",
"658 495 OFFCURVE",
"587 564 OFFCURVE",
"453 662 CURVE SMOOTH",
"320 758 OFFCURVE",
"232 812 OFFCURVE",
"232 887 CURVE SMOOTH",
"232 939 OFFCURVE",
"275 992 OFFCURVE",
"378 992 CURVE SMOOTH",
"471 992 OFFCURVE",
"548 950 OFFCURVE",
"598 920 CURVE",
"624 1052 LINE",
"573 1079 OFFCURVE",
"494 1111 OFFCURVE",
"385 1111 CURVE SMOOTH",
"173 1111 OFFCURVE",
"97 978 OFFCURVE",
"97 857 CURVE SMOOTH",
"97 764 OFFCURVE",
"168 680 OFFCURVE",
"327 580 CURVE SMOOTH",
"480 484 OFFCURVE",
"523 423 OFFCURVE",
"523 359 CURVE SMOOTH",
"523 289 OFFCURVE",
"462 232 OFFCURVE",
"374 232 CURVE",
"370 112 LINE"
);
},
{
closed = 1;
nodes = (
"224 670 OFFCURVE",
"97 579 OFFCURVE",
"97 427 CURVE SMOOTH",
"97 295 OFFCURVE",
"168 220 OFFCURVE",
"303 126 CURVE SMOOTH",
"435 35 OFFCURVE",
"523 -28 OFFCURVE",
"523 -124 CURVE SMOOTH",
"523 -176 OFFCURVE",
"462 -233 OFFCURVE",
"374 -233 CURVE SMOOTH",
"294 -233 OFFCURVE",
"186 -192 OFFCURVE",
"120 -131 CURVE",
"82 -265 LINE",
"142 -313 OFFCURVE",
"249 -352 OFFCURVE",
"370 -352 CURVE SMOOTH",
"531 -352 OFFCURVE",
"658 -239 OFFCURVE",
"658 -105 CURVE SMOOTH",
"658 8 OFFCURVE",
"586 108 OFFCURVE",
"427 208 CURVE SMOOTH",
"275 304 OFFCURVE",
"232 363 OFFCURVE",
"232 430 CURVE SMOOTH",
"232 503 OFFCURVE",
"294 550 OFFCURVE",
"381 550 CURVE",
"385 670 LINE"
);
}
);
width = 766;
},
{
layerId = "58C4FD73-E369-47FC-BB2E-BA826F97CEB5";
paths = (
{
closed = 1;
nodes = (
"539 112 OFFCURVE",
"658 225 OFFCURVE",
"658 383 CURVE SMOOTH",
"658 495 OFFCURVE",
"587 564 OFFCURVE",
"453 662 CURVE SMOOTH",
"320 758 OFFCURVE",
"232 812 OFFCURVE",
"232 887 CURVE SMOOTH",
"232 939 OFFCURVE",
"275 992 OFFCURVE",
"378 992 CURVE SMOOTH",
"471 992 OFFCURVE",
"548 950 OFFCURVE",
"598 920 CURVE",
"624 1052 LINE",
"573 1079 OFFCURVE",
"494 1111 OFFCURVE",
"385 1111 CURVE SMOOTH",
"173 1111 OFFCURVE",
"97 978 OFFCURVE",
"97 857 CURVE SMOOTH",
"97 764 OFFCURVE",
"168 680 OFFCURVE",
"327 580 CURVE SMOOTH",
"480 484 OFFCURVE",
"523 423 OFFCURVE",
"523 359 CURVE SMOOTH",
"523 289 OFFCURVE",
"462 232 OFFCURVE",
"374 232 CURVE",
"370 112 LINE"
);
},
{
closed = 1;
nodes = (
"224 670 OFFCURVE",
"97 579 OFFCURVE",
"97 427 CURVE SMOOTH",
"97 295 OFFCURVE",
"168 220 OFFCURVE",
"303 126 CURVE SMOOTH",
"435 35 OFFCURVE",
"523 -28 OFFCURVE",
"523 -124 CURVE SMOOTH",
"523 -176 OFFCURVE",
"462 -233 OFFCURVE",
"374 -233 CURVE SMOOTH",
"294 -233 OFFCURVE",
"186 -192 OFFCURVE",
"120 -131 CURVE",
"82 -265 LINE",
"142 -313 OFFCURVE",
"249 -352 OFFCURVE",
"370 -352 CURVE SMOOTH",
"531 -352 OFFCURVE",
"658 -239 OFFCURVE",
"658 -105 CURVE SMOOTH",
"658 8 OFFCURVE",
"586 108 OFFCURVE",
"427 208 CURVE SMOOTH",
"275 304 OFFCURVE",
"232 363 OFFCURVE",
"232 430 CURVE SMOOTH",
"232 503 OFFCURVE",
"294 550 OFFCURVE",
"381 550 CURVE",
"385 670 LINE"
);
}
);
width = 766;
}
);
unicode = 00A7;
},
{
glyphname = copyright;
layers = (
{
layerId = UUID0;
paths = (
{
closed = 1;
nodes = (
"1002 857 OFFCURVE",
"1002 545 CURVE SMOOTH",
"1002 236 OFFCURVE",
"788 71 OFFCURVE",
"564 71 CURVE SMOOTH",
"341 71 OFFCURVE",
"131 236 OFFCURVE",
"131 545 CURVE SMOOTH",
"131 857 OFFCURVE",
"341 1021 OFFCURVE",
"564 1021 CURVE SMOOTH",
"788 1021 OFFCURVE"
);
},
{
closed = 1;
nodes = (
"37 920 OFFCURVE",
"37 545 CURVE SMOOTH",
"37 164 OFFCURVE",
"297 -19 OFFCURVE",
"564 -19 CURVE SMOOTH",
"825 -19 OFFCURVE",
"1096 164 OFFCURVE",
"1096 545 CURVE SMOOTH",
"1096 920 OFFCURVE",
"825 1111 OFFCURVE",
"564 1111 CURVE SMOOTH",
"297 1111 OFFCURVE"
);
},
{
closed = 1;
nodes = (
"703 324 OFFCURVE",
"638 288 OFFCURVE",
"568 288 CURVE SMOOTH",
"441 288 OFFCURVE",
"359 417 OFFCURVE",
"359 550 CURVE SMOOTH",
"359 719 OFFCURVE",
"456 812 OFFCURVE",
"573 812 CURVE SMOOTH",
"630 812 OFFCURVE",
"680 791 OFFCURVE",
"740 737 CURVE",
"770 826 LINE",
"702 878 OFFCURVE",
"640 894 OFFCURVE",
"573 894 CURVE SMOOTH",
"420 894 OFFCURVE",
"265 769 OFFCURVE",
"265 539 CURVE SMOOTH",
"265 338 OFFCURVE",
"384 201 OFFCURVE",
"560 201 CURVE SMOOTH",
"634 201 OFFCURVE",
"719 228 OFFCURVE",
"774 280 CURVE",
"755 378 LINE"
);
}
);
width = 1133;
},
{
layerId = "58C4FD73-E369-47FC-BB2E-BA826F97CEB5";
paths = (
{
closed = 1;
nodes = (
"1002 857 OFFCURVE",
"1002 545 CURVE SMOOTH",
"1002 236 OFFCURVE",
"788 71 OFFCURVE",
"564 71 CURVE SMOOTH",
"341 71 OFFCURVE",
"131 236 OFFCURVE",
"131 545 CURVE SMOOTH",
"131 857 OFFCURVE",
"341 1021 OFFCURVE",
"564 1021 CURVE SMOOTH",
"788 1021 OFFCURVE"
);
},
{
closed = 1;
nodes = (
"37 920 OFFCURVE",
"37 545 CURVE SMOOTH",
"37 164 OFFCURVE",
"297 -19 OFFCURVE",
"564 -19 CURVE SMOOTH",
"825 -19 OFFCURVE",
"1096 164 OFFCURVE",
"1096 545 CURVE SMOOTH",
"1096 920 OFFCURVE",
"825 1111 OFFCURVE",
"564 1111 CURVE SMOOTH",
"297 1111 OFFCURVE"
);
},
{
closed = 1;
nodes = (
"703 324 OFFCURVE",
"638 288 OFFCURVE",
"568 288 CURVE SMOOTH",
"441 288 OFFCURVE",
"359 417 OFFCURVE",
"359 550 CURVE SMOOTH",
"359 719 OFFCURVE",
"456 812 OFFCURVE",
"573 812 CURVE SMOOTH",
"630 812 OFFCURVE",
"680 791 OFFCURVE",
"740 737 CURVE",
"770 826 LINE",
"702 878 OFFCURVE",
"640 894 OFFCURVE",
"573 894 CURVE SMOOTH",
"420 894 OFFCURVE",
"265 769 OFFCURVE",
"265 539 CURVE SMOOTH",
"265 338 OFFCURVE",
"384 201 OFFCURVE",
"560 201 CURVE SMOOTH",
"634 201 OFFCURVE",
"719 228 OFFCURVE",
"774 280 CURVE",
"755 378 LINE"
);
}
);
width = 1133;
}
);
unicode = 00A9;
},
{
glyphname = registered;
layers = (
{
layerId = UUID0;
paths = (
{
closed = 1;
nodes = (
"112 920 OFFCURVE",
"112 545 CURVE SMOOTH",
"112 164 OFFCURVE",
"372 -19 OFFCURVE",
"639 -19 CURVE SMOOTH",
"900 -19 OFFCURVE",
"1171 164 OFFCURVE",
"1171 545 CURVE SMOOTH",
"1171 920 OFFCURVE",
"900 1111 OFFCURVE",
"639 1111 CURVE SMOOTH",
"372 1111 OFFCURVE"
);
},
{
closed = 1;
nodes = (
"1077 857 OFFCURVE",
"1077 545 CURVE SMOOTH",
"1077 236 OFFCURVE",
"863 71 OFFCURVE",
"639 71 CURVE SMOOTH",
"416 71 OFFCURVE",
"205 236 OFFCURVE",
"205 545 CURVE SMOOTH",
"205 857 OFFCURVE",
"416 1021 OFFCURVE",
"639 1021 CURVE SMOOTH",
"863 1021 OFFCURVE"
);
},
{
closed = 1;
nodes = (
"598 500 LINE",
"793 217 LINE",
"909 217 LINE",
"883 245 OFFCURVE",
"739 439 OFFCURVE",
"688 508 CURVE",
"762 527 OFFCURVE",
"842 581 OFFCURVE",
"842 693 CURVE SMOOTH",
"842 823 OFFCURVE",
"737 883 OFFCURVE",
"595 883 CURVE SMOOTH",
"483 883 OFFCURVE",
"408 875 OFFCURVE",
"408 875 CURVE",
"414 837 OFFCURVE",
"414 765 OFFCURVE",
"414 672 CURVE SMOOTH",
"414 410 LINE SMOOTH",
"414 316 OFFCURVE",
"414 256 OFFCURVE",
"408 217 CURVE",
"513 217 LINE",
"505 255 OFFCURVE",
"504 316 OFFCURVE",
"504 410 CURVE",
"504 500 LINE"
);
},
{
closed = 1;
nodes = (
"531 803 OFFCURVE",
"558 805 OFFCURVE",
"591 805 CURVE SMOOTH",
"701 805 OFFCURVE",
"748 759 OFFCURVE",
"748 684 CURVE SMOOTH",
"748 614 OFFCURVE",
"693 574 OFFCURVE",
"591 574 CURVE",
"504 574 LINE",
"504 802 LINE"
);
}
);
width = 1208;
},
{
layerId = "58C4FD73-E369-47FC-BB2E-BA826F97CEB5";
paths = (
{
closed = 1;
nodes = (
"112 920 OFFCURVE",
"112 545 CURVE SMOOTH",
"112 164 OFFCURVE",
"372 -19 OFFCURVE",
"639 -19 CURVE SMOOTH",
"900 -19 OFFCURVE",
"1171 164 OFFCURVE",
"1171 545 CURVE SMOOTH",
"1171 920 OFFCURVE",
"900 1111 OFFCURVE",
"639 1111 CURVE SMOOTH",
"372 1111 OFFCURVE"
);
},
{
closed = 1;
nodes = (
"1077 857 OFFCURVE",
"1077 545 CURVE SMOOTH",
"1077 236 OFFCURVE",
"863 71 OFFCURVE",
"639 71 CURVE SMOOTH",
"416 71 OFFCURVE",
"205 236 OFFCURVE",
"205 545 CURVE SMOOTH",
"205 857 OFFCURVE",
"416 1021 OFFCURVE",
"639 1021 CURVE SMOOTH",
"863 1021 OFFCURVE"
);
},
{
closed = 1;
nodes = (
"598 500 LINE",
"793 217 LINE",
"909 217 LINE",
"883 245 OFFCURVE",
"739 439 OFFCURVE",
"688 508 CURVE",
"762 527 OFFCURVE",
"842 581 OFFCURVE",
"842 693 CURVE SMOOTH",
"842 823 OFFCURVE",
"737 883 OFFCURVE",
"595 883 CURVE SMOOTH",
"483 883 OFFCURVE",
"408 875 OFFCURVE",
"408 875 CURVE",
"414 837 OFFCURVE",
"414 765 OFFCURVE",
"414 672 CURVE SMOOTH",
"414 410 LINE SMOOTH",
"414 316 OFFCURVE",
"414 256 OFFCURVE",
"408 217 CURVE",
"513 217 LINE",
"505 255 OFFCURVE",
"504 316 OFFCURVE",
"504 410 CURVE",
"504 500 LINE"
);
},
{
closed = 1;
nodes = (
"531 803 OFFCURVE",
"558 805 OFFCURVE",
"591 805 CURVE SMOOTH",
"701 805 OFFCURVE",
"748 759 OFFCURVE",
"748 684 CURVE SMOOTH",
"748 614 OFFCURVE",
"693 574 OFFCURVE",
"591 574 CURVE",
"504 574 LINE",
"504 802 LINE"
);
}
);
width = 1208;
}
);
unicode = 00AE;
},
{
glyphname = ordfeminine;
layers = (
{
layerId = UUID0;
paths = (
{
closed = 1;
nodes = (
"543 374 LINE",
"543 448 LINE",
"55 448 LINE",
"55 374 LINE"
);
},
{
closed = 1;
nodes = (
"496 953 OFFCURVE",
"419 1015 OFFCURVE",
"303 1015 CURVE SMOOTH",
"225 1015 OFFCURVE",
"172 991 OFFCURVE",
"118 971 CURVE",
"115 947 OFFCURVE",
"114 893 OFFCURVE",
"113 869 CURVE",
"173 911 OFFCURVE",
"225 934 OFFCURVE",
"280 934 CURVE SMOOTH",
"355 934 OFFCURVE",
"402 907 OFFCURVE",
"402 847 CURVE SMOOTH",
"402 818 LINE",
"381 817 OFFCURVE",
"300 818 OFFCURVE",
"264 814 CURVE SMOOTH",
"106 795 OFFCURVE",
"60 716 OFFCURVE",
"60 639 CURVE SMOOTH",
"60 562 OFFCURVE",
"129 495 OFFCURVE",
"227 495 CURVE SMOOTH",
"289 495 OFFCURVE",
"357 524 OFFCURVE",
"417 587 CURVE",
"424 553 OFFCURVE",
"437 525 OFFCURVE",
"443 508 CURVE",
"535 508 LINE",
"514 565 OFFCURVE",
"496 623 OFFCURVE",
"496 696 CURVE SMOOTH",
"496 871 LINE"
);
},
{
closed = 1;
nodes = (
"340 591 OFFCURVE",
"293 579 OFFCURVE",
"240 579 CURVE SMOOTH",
"185 579 OFFCURVE",
"152 605 OFFCURVE",
"152 651 CURVE SMOOTH",
"152 698 OFFCURVE",
"183 732 OFFCURVE",
"269 741 CURVE SMOOTH",
"302 745 OFFCURVE",
"377 746 OFFCURVE",
"402 747 CURVE",
"402 674 LINE"
);
}
);
width = 597;
},
{
layerId = "58C4FD73-E369-47FC-BB2E-BA826F97CEB5";
paths = (
{
closed = 1;
nodes = (
"543 374 LINE",
"543 448 LINE",
"55 448 LINE",
"55 374 LINE"
);
},
{
closed = 1;
nodes = (
"496 953 OFFCURVE",
"419 1015 OFFCURVE",
"303 1015 CURVE SMOOTH",
"225 1015 OFFCURVE",
"172 991 OFFCURVE",
"118 971 CURVE",
"115 947 OFFCURVE",
"114 893 OFFCURVE",
"113 869 CURVE",
"173 911 OFFCURVE",
"225 934 OFFCURVE",
"280 934 CURVE SMOOTH",
"355 934 OFFCURVE",
"402 907 OFFCURVE",
"402 847 CURVE SMOOTH",
"402 818 LINE",
"381 817 OFFCURVE",
"300 818 OFFCURVE",
"264 814 CURVE SMOOTH",
"106 795 OFFCURVE",
"60 716 OFFCURVE",
"60 639 CURVE SMOOTH",
"60 562 OFFCURVE",
"129 495 OFFCURVE",
"227 495 CURVE SMOOTH",
"289 495 OFFCURVE",
"357 524 OFFCURVE",
"417 587 CURVE",
"424 553 OFFCURVE",
"437 525 OFFCURVE",
"443 508 CURVE",
"535 508 LINE",
"514 565 OFFCURVE",
"496 623 OFFCURVE",
"496 696 CURVE SMOOTH",
"496 871 LINE"
);
},
{
closed = 1;
nodes = (
"340 591 OFFCURVE",
"293 579 OFFCURVE",
"240 579 CURVE SMOOTH",
"185 579 OFFCURVE",
"152 605 OFFCURVE",
"152 651 CURVE SMOOTH",
"152 698 OFFCURVE",
"183 732 OFFCURVE",
"269 741 CURVE SMOOTH",
"302 745 OFFCURVE",
"377 746 OFFCURVE",
"402 747 CURVE",
"402 674 LINE"
);
}
);
width = 597;
}
);
unicode = 00AA;
},
{
glyphname = guillemetleft;
layers = (
{
layerId = UUID0;
paths = (
{
closed = 1;
nodes = (
"228 383 LINE",
"520 763 LINE",
"381 763 LINE",
"56 383 LINE",
"384 0 LINE",
"520 0 LINE"
);
},
{
closed = 1;
nodes = (
"595 383 LINE",
"886 763 LINE",
"748 763 LINE",
"423 383 LINE",
"750 0 LINE",
"886 0 LINE"
);
}
);
width = 973;
},
{
layerId = "58C4FD73-E369-47FC-BB2E-BA826F97CEB5";
paths = (
{
closed = 1;
nodes = (
"228 383 LINE",
"520 763 LINE",
"381 763 LINE",
"56 383 LINE",
"384 0 LINE",
"520 0 LINE"
);
},
{
closed = 1;
nodes = (
"595 383 LINE",
"886 763 LINE",
"748 763 LINE",
"423 383 LINE",
"750 0 LINE",
"886 0 LINE"
);
}
);
width = 973;
}
);
unicode = 00AB;
},
{
glyphname = logicalnot;
layers = (
{
layerId = UUID0;
paths = (
{
closed = 1;
nodes = (
"797 598 LINE",
"82 598 LINE",
"82 485 LINE",
"684 485 LINE",
"684 255 LINE",
"797 255 LINE"
);
}
);
width = 898;
},
{
layerId = "58C4FD73-E369-47FC-BB2E-BA826F97CEB5";
paths = (
{
closed = 1;
nodes = (
"797 598 LINE",
"82 598 LINE",
"82 485 LINE",
"684 485 LINE",
"684 255 LINE",
"797 255 LINE"
);
}
);
width = 898;
}
);
unicode = 00AC;
},
{
glyphname = degree;
layers = (
{
layerId = UUID0;
paths = (
{
closed = 1;
nodes = (
"295 823 OFFCURVE",
"239 823 CURVE SMOOTH",
"183 823 OFFCURVE",
"139 867 OFFCURVE",
"139 923 CURVE SMOOTH",
"139 979 OFFCURVE",
"183 1024 OFFCURVE",
"239 1024 CURVE SMOOTH",
"295 1024 OFFCURVE",
"340 979 OFFCURVE",
"340 923 CURVE",
"340 867 OFFCURVE"
);
},
{
closed = 1;
nodes = (
"135 737 OFFCURVE",
"239 737 CURVE SMOOTH",
"344 737 OFFCURVE",
"426 819 OFFCURVE",
"426 923 CURVE SMOOTH",
"426 1029 OFFCURVE",
"344 1111 OFFCURVE",
"239 1111 CURVE SMOOTH",
"135 1111 OFFCURVE",
"52 1029 OFFCURVE",
"52 923 CURVE",
"52 819 OFFCURVE"
);
}
);
width = 479;
},
{
layerId = "58C4FD73-E369-47FC-BB2E-BA826F97CEB5";
paths = (
{
closed = 1;
nodes = (
"295 823 OFFCURVE",
"239 823 CURVE SMOOTH",
"183 823 OFFCURVE",
"139 867 OFFCURVE",
"139 923 CURVE SMOOTH",
"139 979 OFFCURVE",
"183 1024 OFFCURVE",
"239 1024 CURVE SMOOTH",
"295 1024 OFFCURVE",
"340 979 OFFCURVE",
"340 923 CURVE",
"340 867 OFFCURVE"
);
},
{
closed = 1;
nodes = (
"135 737 OFFCURVE",
"239 737 CURVE SMOOTH",
"344 737 OFFCURVE",
"426 819 OFFCURVE",
"426 923 CURVE SMOOTH",
"426 1029 OFFCURVE",
"344 1111 OFFCURVE",
"239 1111 CURVE SMOOTH",
"135 1111 OFFCURVE",
"52 1029 OFFCURVE",
"52 923 CURVE",
"52 819 OFFCURVE"
);
}
);
width = 479;
}
);
unicode = 00B0;
},
{
glyphname = plusminus;
layers = (
{
layerId = UUID0;
paths = (
{
closed = 1;
nodes = (
"393 624 LINE",
"393 351 LINE",
"504 351 LINE",
"504 624 LINE",
"782 624 LINE",
"782 737 LINE",
"504 737 LINE",
"504 1021 LINE",
"393 1021 LINE",
"393 737 LINE",
"116 737 LINE",
"116 624 LINE"
);
},
{
closed = 1;
nodes = (
"782 149 LINE",
"782 261 LINE",
"116 261 LINE",
"116 149 LINE"
);
}
);
width = 898;
},
{
layerId = "58C4FD73-E369-47FC-BB2E-BA826F97CEB5";
paths = (
{
closed = 1;
nodes = (
"393 624 LINE",
"393 351 LINE",
"504 351 LINE",
"504 624 LINE",
"782 624 LINE",
"782 737 LINE",
"504 737 LINE",
"504 1021 LINE",
"393 1021 LINE",
"393 737 LINE",
"116 737 LINE",
"116 624 LINE"
);
},
{
closed = 1;
nodes = (
"782 149 LINE",
"782 261 LINE",
"116 261 LINE",
"116 149 LINE"
);
}
);
width = 898;
}
);
unicode = 00B1;
},
{
glyphname = asciicircum;
layers = (
{
anchors = (
{
name = U;
position = "{318, 1223}";
}
);
layerId = UUID0;
paths = (
{
closed = 1;
nodes = (
"318 1084 LINE",
"523 875 LINE",
"636 875 LINE",
"381 1197 LINE",
"255 1197 LINE",
"0 875 LINE",
"112 875 LINE"
);
}
);
width = 636;
},
{
anchors = (
{
name = U;
position = "{318, 1223}";
}
);
layerId = "58C4FD73-E369-47FC-BB2E-BA826F97CEB5";
paths = (
{
closed = 1;
nodes = (
"318 1084 LINE",
"523 875 LINE",
"636 875 LINE",
"381 1197 LINE",
"255 1197 LINE",
"0 875 LINE",
"112 875 LINE"
);
}
);
width = 636;
}
);
unicode = 005E;
},
{
glyphname = micro;
layers = (
{
layerId = UUID0;
paths = (
{
closed = 1;
nodes = (
"784 84 OFFCURVE",
"767 192 OFFCURVE",
"767 336 CURVE SMOOTH",
"767 483 OFFCURVE",
"767 763 OFFCURVE",
"767 763 CURVE",
"614 763 LINE",
"626 672 OFFCURVE",
"628 622 OFFCURVE",
"628 523 CURVE SMOOTH",
"628 314 LINE",
"597 220 OFFCURVE",
"497 104 OFFCURVE",
"422 104 CURVE SMOOTH",
"339 104 OFFCURVE",
"255 178 OFFCURVE",
"255 348 CURVE SMOOTH",
"255 451 OFFCURVE",
"255 763 OFFCURVE",
"255 763 CURVE",
"101 763 LINE",
"115 674 OFFCURVE",
"116 618 OFFCURVE",
"116 523 CURVE SMOOTH",
"116 510 OFFCURVE",
"116 317 OFFCURVE",
"116 303 CURVE SMOOTH",
"116 -367 LINE",
"274 -367 LINE",
"260 -303 OFFCURVE",
"255 -233 OFFCURVE",
"255 -113 CURVE",
"255 60 LINE",
"282 20 OFFCURVE",
"339 -19 OFFCURVE",
"408 -19 CURVE SMOOTH",
"503 -19 OFFCURVE",
"599 75 OFFCURVE",
"647 149 CURVE",
"655 94 OFFCURVE",
"674 34 OFFCURVE",
"688 0 CURVE",
"815 0 LINE"
);
}
);
width = 886;
},
{
layerId = "58C4FD73-E369-47FC-BB2E-BA826F97CEB5";
paths = (
{
closed = 1;
nodes = (
"784 84 OFFCURVE",
"767 192 OFFCURVE",
"767 336 CURVE SMOOTH",
"767 483 OFFCURVE",
"767 763 OFFCURVE",
"767 763 CURVE",
"614 763 LINE",
"626 672 OFFCURVE",
"628 622 OFFCURVE",
"628 523 CURVE SMOOTH",
"628 314 LINE",
"597 220 OFFCURVE",
"497 104 OFFCURVE",
"422 104 CURVE SMOOTH",
"339 104 OFFCURVE",
"255 178 OFFCURVE",
"255 348 CURVE SMOOTH",
"255 451 OFFCURVE",
"255 763 OFFCURVE",
"255 763 CURVE",
"101 763 LINE",
"115 674 OFFCURVE",
"116 618 OFFCURVE",
"116 523 CURVE SMOOTH",
"116 510 OFFCURVE",
"116 317 OFFCURVE",
"116 303 CURVE SMOOTH",
"116 -367 LINE",
"274 -367 LINE",
"260 -303 OFFCURVE",
"255 -233 OFFCURVE",
"255 -113 CURVE",
"255 60 LINE",
"282 20 OFFCURVE",
"339 -19 OFFCURVE",
"408 -19 CURVE SMOOTH",
"503 -19 OFFCURVE",
"599 75 OFFCURVE",
"647 149 CURVE",
"655 94 OFFCURVE",
"674 34 OFFCURVE",
"688 0 CURVE",
"815 0 LINE"
);
}
);
width = 886;
}
);
unicode = 00B5;
},
{
glyphname = paragraph;
layers = (
{
layerId = UUID0;
paths = (
{
closed = 1;
nodes = (
"722 1092 LINE",
"329 1092 LINE SMOOTH",
"211 1092 OFFCURVE",
"37 1034 OFFCURVE",
"37 833 CURVE SMOOTH",
"37 633 OFFCURVE",
"212 573 OFFCURVE",
"314 573 CURVE",
"314 0 LINE",
"415 0 LINE",
"415 1006 LINE",
"535 1006 LINE",
"535 0 LINE",
"636 0 LINE",
"636 1006 LINE",
"722 1006 LINE"
);
}
);
width = 767;
},
{
layerId = "58C4FD73-E369-47FC-BB2E-BA826F97CEB5";
paths = (
{
closed = 1;
nodes = (
"722 1092 LINE",
"329 1092 LINE SMOOTH",
"211 1092 OFFCURVE",
"37 1034 OFFCURVE",
"37 833 CURVE SMOOTH",
"37 633 OFFCURVE",
"212 573 OFFCURVE",
"314 573 CURVE",
"314 0 LINE",
"415 0 LINE",
"415 1006 LINE",
"535 1006 LINE",
"535 0 LINE",
"636 0 LINE",
"636 1006 LINE",
"722 1006 LINE"
);
}
);
width = 767;
}
);
unicode = 00B6;
},
{
glyphname = periodcentered;
layers = (
{
layerId = UUID0;
paths = (
{
closed = 1;
nodes = (
"199 430 OFFCURVE",
"254 430 CURVE SMOOTH",
"309 430 OFFCURVE",
"354 475 OFFCURVE",
"354 531 CURVE SMOOTH",
"354 585 OFFCURVE",
"309 631 OFFCURVE",
"254 631 CURVE SMOOTH",
"199 631 OFFCURVE",
"154 585 OFFCURVE",
"154 531 CURVE SMOOTH",
"154 475 OFFCURVE"
);
}
);
width = 507;
},
{
layerId = "58C4FD73-E369-47FC-BB2E-BA826F97CEB5";
paths = (
{
closed = 1;
nodes = (
"199 430 OFFCURVE",
"254 430 CURVE SMOOTH",
"309 430 OFFCURVE",
"354 475 OFFCURVE",
"354 531 CURVE SMOOTH",
"354 585 OFFCURVE",
"309 631 OFFCURVE",
"254 631 CURVE SMOOTH",
"199 631 OFFCURVE",
"154 585 OFFCURVE",
"154 531 CURVE SMOOTH",
"154 475 OFFCURVE"
);
}
);
width = 507;
}
);
unicode = 00B7;
},
{
glyphname = ordmasculine;
layers = (
{
layerId = UUID0;
paths = (
{
closed = 1;
nodes = (
"154 497 OFFCURVE",
"297 497 CURVE SMOOTH",
"435 497 OFFCURVE",
"551 587 OFFCURVE",
"551 754 CURVE SMOOTH",
"551 921 OFFCURVE",
"451 1015 OFFCURVE",
"307 1015 CURVE SMOOTH",
"169 1015 OFFCURVE",
"53 921 OFFCURVE",
"53 754 CURVE SMOOTH",
"53 587 OFFCURVE"
);
},
{
closed = 1;
nodes = (
"218 937 OFFCURVE",
"302 937 CURVE SMOOTH",
"392 937 OFFCURVE",
"454 867 OFFCURVE",
"454 754 CURVE SMOOTH",
"454 641 OFFCURVE",
"387 575 OFFCURVE",
"302 575 CURVE SMOOTH",
"213 575 OFFCURVE",
"151 641 OFFCURVE",
"151 754 CURVE SMOOTH",
"151 867 OFFCURVE"
);
},
{
closed = 1;
nodes = (
"551 374 LINE",
"551 448 LINE",
"53 448 LINE",
"53 374 LINE"
);
}
);
width = 597;
},
{
layerId = "58C4FD73-E369-47FC-BB2E-BA826F97CEB5";
paths = (
{
closed = 1;
nodes = (
"154 497 OFFCURVE",
"297 497 CURVE SMOOTH",
"435 497 OFFCURVE",
"551 587 OFFCURVE",
"551 754 CURVE SMOOTH",
"551 921 OFFCURVE",
"451 1015 OFFCURVE",
"307 1015 CURVE SMOOTH",
"169 1015 OFFCURVE",
"53 921 OFFCURVE",
"53 754 CURVE SMOOTH",
"53 587 OFFCURVE"
);
},
{
closed = 1;
nodes = (
"218 937 OFFCURVE",
"302 937 CURVE SMOOTH",
"392 937 OFFCURVE",
"454 867 OFFCURVE",
"454 754 CURVE SMOOTH",
"454 641 OFFCURVE",
"387 575 OFFCURVE",
"302 575 CURVE SMOOTH",
"213 575 OFFCURVE",
"151 641 OFFCURVE",
"151 754 CURVE SMOOTH",
"151 867 OFFCURVE"
);
},
{
closed = 1;
nodes = (
"551 374 LINE",
"551 448 LINE",
"53 448 LINE",
"53 374 LINE"
);
}
);
width = 597;
}
);
unicode = 00BA;
},
{
glyphname = guillemetright;
layers = (
{
layerId = UUID0;
paths = (
{
closed = 1;
nodes = (
"917 383 LINE",
"591 763 LINE",
"453 763 LINE",
"744 383 LINE",
"453 0 LINE",
"588 0 LINE"
);
},
{
closed = 1;
nodes = (
"550 383 LINE",
"224 763 LINE",
"85 763 LINE",
"378 383 LINE",
"85 0 LINE",
"222 0 LINE"
);
}
);
width = 973;
},
{
layerId = "58C4FD73-E369-47FC-BB2E-BA826F97CEB5";
paths = (
{
closed = 1;
nodes = (
"917 383 LINE",
"591 763 LINE",
"453 763 LINE",
"744 383 LINE",
"453 0 LINE",
"588 0 LINE"
);
},
{
closed = 1;
nodes = (
"550 383 LINE",
"224 763 LINE",
"85 763 LINE",
"378 383 LINE",
"85 0 LINE",
"222 0 LINE"
);
}
);
width = 973;
}
);
unicode = 00BB;
},
{
glyphname = twosuperior;
layers = (
{
anchors = (
{
name = L;
position = "{314, 460}";
},
{
name = U;
position = "{314, 1253}";
}
);
layerId = UUID0;
paths = (
{
closed = 1;
nodes = (
"528 588 OFFCURVE",
"445 588 OFFCURVE",
"342 588 CURVE SMOOTH",
"208 588 LINE",
"323 679 OFFCURVE",
"532 862 OFFCURVE",
"532 1026 CURVE SMOOTH",
"532 1151 OFFCURVE",
"423 1230 OFFCURVE",
"297 1230 CURVE SMOOTH",
"209 1230 OFFCURVE",
"112 1190 OFFCURVE",
"70 1135 CURVE",
"92 1053 LINE",
"140 1105 OFFCURVE",
"214 1143 OFFCURVE",
"279 1143 CURVE SMOOTH",
"354 1143 OFFCURVE",
"428 1107 OFFCURVE",
"428 1016 CURVE SMOOTH",
"428 882 OFFCURVE",
"209 686 OFFCURVE",
"66 590 CURVE",
"66 508 LINE",
"569 508 LINE",
"569 596 LINE"
);
}
);
width = 628;
},
{
anchors = (
{
name = L;
position = "{314, 460}";
},
{
name = U;
position = "{314, 1253}";
}
);
layerId = "58C4FD73-E369-47FC-BB2E-BA826F97CEB5";
paths = (
{
closed = 1;
nodes = (
"528 588 OFFCURVE",
"445 588 OFFCURVE",
"342 588 CURVE SMOOTH",
"208 588 LINE",
"323 679 OFFCURVE",
"532 862 OFFCURVE",
"532 1026 CURVE SMOOTH",
"532 1151 OFFCURVE",
"423 1230 OFFCURVE",
"297 1230 CURVE SMOOTH",
"209 1230 OFFCURVE",
"112 1190 OFFCURVE",
"70 1135 CURVE",
"92 1053 LINE",
"140 1105 OFFCURVE",
"214 1143 OFFCURVE",
"279 1143 CURVE SMOOTH",
"354 1143 OFFCURVE",
"428 1107 OFFCURVE",
"428 1016 CURVE SMOOTH",
"428 882 OFFCURVE",
"209 686 OFFCURVE",
"66 590 CURVE",
"66 508 LINE",
"569 508 LINE",
"569 596 LINE"
);
}
);
width = 628;
}
);
unicode = 00B2;
},
{
glyphname = threesuperior;
layers = (
{
anchors = (
{
name = L;
position = "{314, 460}";
},
{
name = U;
position = "{314, 1253}";
}
);
layerId = UUID0;
paths = (
{
closed = 1;
nodes = (
"218 848 LINE",
"255 848 LINE",
"379 848 OFFCURVE",
"473 794 OFFCURVE",
"473 715 CURVE SMOOTH",
"473 625 OFFCURVE",
"380 581 OFFCURVE",
"300 581 CURVE SMOOTH",
"206 581 OFFCURVE",
"131 621 OFFCURVE",
"75 680 CURVE",
"61 576 LINE",
"117 528 OFFCURVE",
"197 496 OFFCURVE",
"290 496 CURVE SMOOTH",
"440 496 OFFCURVE",
"574 590 OFFCURVE",
"574 705 CURVE SMOOTH",
"574 835 OFFCURVE",
"455 885 OFFCURVE",
"381 897 CURVE",
"455 911 OFFCURVE",
"549 973 OFFCURVE",
"549 1062 CURVE SMOOTH",
"549 1166 OFFCURVE",
"437 1230 OFFCURVE",
"308 1230 CURVE",
"220 1230 OFFCURVE",
"140 1196 OFFCURVE",
"99 1153 CURVE",
"117 1070 LINE",
"176 1126 OFFCURVE",
"232 1144 OFFCURVE",
"313 1144 CURVE SMOOTH",
"376 1144 OFFCURVE",
"449 1116 OFFCURVE",
"449 1050 CURVE SMOOTH",
"449 990 OFFCURVE",
"359 931 OFFCURVE",
"255 931 CURVE",
"218 931 LINE"
);
}
);
width = 628;
},
{
anchors = (
{
name = L;
position = "{314, 460}";
},
{
name = U;
position = "{314, 1253}";
}
);
layerId = "58C4FD73-E369-47FC-BB2E-BA826F97CEB5";
paths = (
{
closed = 1;
nodes = (
"218 848 LINE",
"255 848 LINE",
"379 848 OFFCURVE",
"473 794 OFFCURVE",
"473 715 CURVE SMOOTH",
"473 625 OFFCURVE",
"380 581 OFFCURVE",
"300 581 CURVE SMOOTH",
"206 581 OFFCURVE",
"131 621 OFFCURVE",
"75 680 CURVE",
"61 576 LINE",
"117 528 OFFCURVE",
"197 496 OFFCURVE",
"290 496 CURVE SMOOTH",
"440 496 OFFCURVE",
"574 590 OFFCURVE",
"574 705 CURVE SMOOTH",
"574 835 OFFCURVE",
"455 885 OFFCURVE",
"381 897 CURVE",
"455 911 OFFCURVE",
"549 973 OFFCURVE",
"549 1062 CURVE SMOOTH",
"549 1166 OFFCURVE",
"437 1230 OFFCURVE",
"308 1230 CURVE",
"220 1230 OFFCURVE",
"140 1196 OFFCURVE",
"99 1153 CURVE",
"117 1070 LINE",
"176 1126 OFFCURVE",
"232 1144 OFFCURVE",
"313 1144 CURVE SMOOTH",
"376 1144 OFFCURVE",
"449 1116 OFFCURVE",
"449 1050 CURVE SMOOTH",
"449 990 OFFCURVE",
"359 931 OFFCURVE",
"255 931 CURVE",
"218 931 LINE"
);
}
);
width = 628;
}
);
unicode = 00B3;
},
{
glyphname = onehalf;
layers = (
{
layerId = UUID0;
paths = (
{
closed = 1;
nodes = (
"154 -38 LINE",
"251 -38 LINE",
"1053 1197 LINE",
"955 1197 LINE"
);
},
{
closed = 1;
nodes = (
"1123 80 OFFCURVE",
"1054 79 OFFCURVE",
"964 79 CURVE SMOOTH",
"857 79 LINE",
"955 155 OFFCURVE",
"1130 327 OFFCURVE",
"1130 479 CURVE SMOOTH",
"1130 595 OFFCURVE",
"1035 670 OFFCURVE",
"926 670 CURVE SMOOTH",
"851 670 OFFCURVE",
"766 630 OFFCURVE",
"730 579 CURVE",
"752 498 LINE",
"791 545 OFFCURVE",
"857 579 OFFCURVE",
"913 579 CURVE SMOOTH",
"977 579 OFFCURVE",
"1033 556 OFFCURVE",
"1033 471 CURVE SMOOTH",
"1033 347 OFFCURVE",
"851 169 OFFCURVE",
"730 82 CURVE",
"730 0 LINE",
"1159 0 LINE",
"1159 85 LINE"
);
},
{
closed = 1;
nodes = (
"239 1198 LINE",
"83 1103 LINE",
"95 1020 LINE",
"239 1105 LINE",
"239 523 LINE",
"344 523 LINE",
"337 573 OFFCURVE",
"334 683 OFFCURVE",
"334 743 CURVE SMOOTH",
"334 1198 LINE"
);
}
);
width = 1197;
},
{
layerId = "58C4FD73-E369-47FC-BB2E-BA826F97CEB5";
paths = (
{
closed = 1;
nodes = (
"154 -38 LINE",
"251 -38 LINE",
"1053 1197 LINE",
"955 1197 LINE"
);
},
{
closed = 1;
nodes = (
"1123 80 OFFCURVE",
"1054 79 OFFCURVE",
"964 79 CURVE SMOOTH",
"857 79 LINE",
"955 155 OFFCURVE",
"1130 327 OFFCURVE",
"1130 479 CURVE SMOOTH",
"1130 595 OFFCURVE",
"1035 670 OFFCURVE",
"926 670 CURVE SMOOTH",
"851 670 OFFCURVE",
"766 630 OFFCURVE",
"730 579 CURVE",
"752 498 LINE",
"791 545 OFFCURVE",
"857 579 OFFCURVE",
"913 579 CURVE SMOOTH",
"977 579 OFFCURVE",
"1033 556 OFFCURVE",
"1033 471 CURVE SMOOTH",
"1033 347 OFFCURVE",
"851 169 OFFCURVE",
"730 82 CURVE",
"730 0 LINE",
"1159 0 LINE",
"1159 85 LINE"
);
},
{
closed = 1;
nodes = (
"239 1198 LINE",
"83 1103 LINE",
"95 1020 LINE",
"239 1105 LINE",
"239 523 LINE",
"344 523 LINE",
"337 573 OFFCURVE",
"334 683 OFFCURVE",
"334 743 CURVE SMOOTH",
"334 1198 LINE"
);
}
);
width = 1197;
}
);
unicode = 00BD;
},
{
glyphname = onequarter;
layers = (
{
layerId = UUID0;
paths = (
{
closed = 1;
nodes = (
"172 -38 LINE",
"269 -38 LINE",
"1078 1197 LINE",
"980 1197 LINE"
);
},
{
closed = 1;
nodes = (
"239 1198 LINE",
"83 1103 LINE",
"95 1020 LINE",
"239 1105 LINE",
"239 523 LINE",
"344 523 LINE",
"337 573 OFFCURVE",
"334 683 OFFCURVE",
"334 743 CURVE SMOOTH",
"334 1198 LINE"
);
},
{
closed = 1;
nodes = (
"939 539 LINE",
"748 274 LINE",
"1137 274 LINE",
"1137 195 LINE",
"647 195 LINE",
"647 274 LINE",
"939 665 LINE",
"1039 665 LINE",
"1039 214 LINE SMOOTH",
"1039 156 OFFCURVE",
"1043 48 OFFCURVE",
"1052 0 CURVE",
"939 0 LINE"
);
}
);
width = 1197;
},
{
layerId = "58C4FD73-E369-47FC-BB2E-BA826F97CEB5";
paths = (
{
closed = 1;
nodes = (
"1137 274 LINE",
"748 274 LINE",
"939 539 LINE",
"939 0 LINE",
"1052 0 LINE",
"1043 48 OFFCURVE",
"1039 156 OFFCURVE",
"1039 214 CURVE SMOOTH",
"1039 665 LINE",
"939 665 LINE",
"647 274 LINE",
"647 195 LINE",
"1137 195 LINE"
);
},
{
closed = 1;
nodes = (
"172 -38 LINE",
"269 -38 LINE",
"1078 1197 LINE",
"980 1197 LINE"
);
},
{
closed = 1;
nodes = (
"239 1198 LINE",
"83 1103 LINE",
"95 1020 LINE",
"239 1105 LINE",
"239 523 LINE",
"344 523 LINE",
"337 573 OFFCURVE",
"334 683 OFFCURVE",
"334 743 CURVE SMOOTH",
"334 1198 LINE"
);
}
);
width = 1197;
}
);
unicode = 00BC;
},
{
glyphname = threequarters;
layers = (
{
layerId = UUID0;
paths = (
{
closed = 1;
nodes = (
"643 195 LINE",
"643 274 LINE",
"935 665 LINE",
"1036 665 LINE",
"1036 214 LINE SMOOTH",
"1036 156 OFFCURVE",
"1039 48 OFFCURVE",
"1047 0 CURVE",
"935 0 LINE",
"935 539 LINE",
"744 274 LINE",
"1133 274 LINE",
"1133 195 LINE"
);
},
{
closed = 1;
nodes = (
"419 892 OFFCURVE",
"355 898 CURVE",
"419 905 OFFCURVE",
"483 962 OFFCURVE",
"483 1036 CURVE SMOOTH",
"483 1132 OFFCURVE",
"407 1201 OFFCURVE",
"295 1201 CURVE SMOOTH",
"229 1201 OFFCURVE",
"176 1180 OFFCURVE",
"123 1141 CURVE",
"142 1062 LINE",
"202 1105 OFFCURVE",
"240 1114 OFFCURVE",
"288 1114 CURVE SMOOTH",
"345 1114 OFFCURVE",
"393 1093 OFFCURVE",
"393 1033 CURVE SMOOTH",
"393 977 OFFCURVE",
"336 932 OFFCURVE",
"246 932 CURVE SMOOTH",
"214 932 LINE",
"214 849 LINE",
"246 849 LINE SMOOTH",
"353 849 OFFCURVE",
"411 803 OFFCURVE",
"411 730 CURVE SMOOTH",
"411 642 OFFCURVE",
"352 605 OFFCURVE",
"276 605 CURVE SMOOTH",
"213 605 OFFCURVE",
"145 638 OFFCURVE",
"104 684 CURVE",
"94 587 LINE",
"136 550 OFFCURVE",
"205 520 OFFCURVE",
"280 520 CURVE SMOOTH",
"410 520 OFFCURVE",
"504 617 OFFCURVE",
"504 722 CURVE SMOOTH",
"504 833 OFFCURVE"
);
},
{
closed = 1;
nodes = (
"172 -38 LINE",
"269 -38 LINE",
"1072 1197 LINE",
"974 1197 LINE"
);
}
);
width = 1197;
},
{
layerId = "58C4FD73-E369-47FC-BB2E-BA826F97CEB5";
paths = (
{
closed = 1;
nodes = (
"1133 274 LINE",
"744 274 LINE",
"935 539 LINE",
"935 0 LINE",
"1047 0 LINE",
"1039 48 OFFCURVE",
"1036 156 OFFCURVE",
"1036 214 CURVE SMOOTH",
"1036 665 LINE",
"935 665 LINE",
"643 274 LINE",
"643 195 LINE",
"1133 195 LINE"
);
},
{
closed = 1;
nodes = (
"419 892 OFFCURVE",
"355 898 CURVE",
"419 905 OFFCURVE",
"483 962 OFFCURVE",
"483 1036 CURVE SMOOTH",
"483 1132 OFFCURVE",
"407 1201 OFFCURVE",
"295 1201 CURVE SMOOTH",
"229 1201 OFFCURVE",
"176 1180 OFFCURVE",
"123 1141 CURVE",
"142 1062 LINE",
"202 1105 OFFCURVE",
"240 1114 OFFCURVE",
"288 1114 CURVE SMOOTH",
"345 1114 OFFCURVE",
"393 1093 OFFCURVE",
"393 1033 CURVE SMOOTH",
"393 977 OFFCURVE",
"336 932 OFFCURVE",
"246 932 CURVE SMOOTH",
"214 932 LINE",
"214 849 LINE",
"246 849 LINE SMOOTH",
"353 849 OFFCURVE",
"411 803 OFFCURVE",
"411 730 CURVE SMOOTH",
"411 642 OFFCURVE",
"352 605 OFFCURVE",
"276 605 CURVE SMOOTH",
"213 605 OFFCURVE",
"145 638 OFFCURVE",
"104 684 CURVE",
"94 587 LINE",
"136 550 OFFCURVE",
"205 520 OFFCURVE",
"280 520 CURVE SMOOTH",
"410 520 OFFCURVE",
"504 617 OFFCURVE",
"504 722 CURVE SMOOTH",
"504 833 OFFCURVE"
);
},
{
closed = 1;
nodes = (
"172 -38 LINE",
"269 -38 LINE",
"1072 1197 LINE",
"974 1197 LINE"
);
}
);
width = 1197;
}
);
unicode = 00BE;
},
{
glyphname = questiondown;
layers = (
{
layerId = UUID0;
paths = (
{
closed = 1;
nodes = (
"531 -150 OFFCURVE",
"462 -176 OFFCURVE",
"402 -176 CURVE SMOOTH",
"293 -176 OFFCURVE",
"258 -119 OFFCURVE",
"258 -75 CURVE SMOOTH",
"258 -31 OFFCURVE",
"267 11 OFFCURVE",
"363 112 CURVE SMOOTH",
"444 199 OFFCURVE",
"456 271 OFFCURVE",
"456 516 CURVE",
"325 516 LINE",
"325 285 OFFCURVE",
"313 248 OFFCURVE",
"221 142 CURVE SMOOTH",
"136 42 OFFCURVE",
"104 -5 OFFCURVE",
"104 -83 CURVE SMOOTH",
"104 -234 OFFCURVE",
"222 -307 OFFCURVE",
"381 -307 CURVE SMOOTH",
"475 -307 OFFCURVE",
"572 -272 OFFCURVE",
"620 -224 CURVE",
"587 -91 LINE"
);
},
{
closed = 1;
nodes = (
"450 833 OFFCURVE",
"395 833 CURVE SMOOTH",
"339 833 OFFCURVE",
"294 788 OFFCURVE",
"294 732 CURVE SMOOTH",
"294 677 OFFCURVE",
"339 633 OFFCURVE",
"395 633 CURVE SMOOTH",
"450 633 OFFCURVE",
"495 677 OFFCURVE",
"495 732 CURVE SMOOTH",
"495 788 OFFCURVE"
);
}
);
width = 785;
},
{
layerId = "58C4FD73-E369-47FC-BB2E-BA826F97CEB5";
paths = (
{
closed = 1;
nodes = (
"531 -150 OFFCURVE",
"462 -176 OFFCURVE",
"402 -176 CURVE SMOOTH",
"293 -176 OFFCURVE",
"258 -119 OFFCURVE",
"258 -75 CURVE SMOOTH",
"258 -31 OFFCURVE",
"267 11 OFFCURVE",
"363 112 CURVE SMOOTH",
"444 199 OFFCURVE",
"456 271 OFFCURVE",
"456 516 CURVE",
"325 516 LINE",
"325 285 OFFCURVE",
"313 248 OFFCURVE",
"221 142 CURVE SMOOTH",
"136 42 OFFCURVE",
"104 -5 OFFCURVE",
"104 -83 CURVE SMOOTH",
"104 -234 OFFCURVE",
"222 -307 OFFCURVE",
"381 -307 CURVE SMOOTH",
"475 -307 OFFCURVE",
"572 -272 OFFCURVE",
"620 -224 CURVE",
"587 -91 LINE"
);
},
{
closed = 1;
nodes = (
"450 833 OFFCURVE",
"395 833 CURVE SMOOTH",
"339 833 OFFCURVE",
"294 788 OFFCURVE",
"294 732 CURVE SMOOTH",
"294 677 OFFCURVE",
"339 633 OFFCURVE",
"395 633 CURVE SMOOTH",
"450 633 OFFCURVE",
"495 677 OFFCURVE",
"495 732 CURVE SMOOTH",
"495 788 OFFCURVE"
);
}
);
width = 785;
}
);
unicode = 00BF;
},
{
glyphname = AE;
layers = (
{
layerId = UUID0;
paths = (
{
closed = 1;
nodes = (
"746 404 LINE",
"343 404 LINE",
"298 288 LINE",
"791 288 LINE"
);
},
{
closed = 1;
nodes = (
"1182 633 LINE",
"830 633 LINE",
"830 969 LINE",
"1238 969 LINE",
"1238 1092 LINE",
"605 1092 LINE",
"220 298 LINE SMOOTH",
"169 193 OFFCURVE",
"126 111 OFFCURVE",
"60 0 CURVE",
"209 0 LINE",
"688 969 LINE",
"688 181 OFFCURVE",
"688 60 OFFCURVE",
"677 0 CURVE",
"1261 0 LINE",
"1261 135 LINE",
"1201 123 OFFCURVE",
"1100 123 OFFCURVE",
"953 123 CURVE SMOOTH",
"830 123 LINE",
"830 513 LINE",
"1182 513 LINE"
);
}
);
width = 1351;
},
{
layerId = "58C4FD73-E369-47FC-BB2E-BA826F97CEB5";
paths = (
{
closed = 1;
nodes = (
"746 404 LINE",
"343 404 LINE",
"298 288 LINE",
"791 288 LINE"
);
},
{
closed = 1;
nodes = (
"1182 633 LINE",
"830 633 LINE",
"830 969 LINE",
"1238 969 LINE",
"1238 1092 LINE",
"605 1092 LINE",
"220 298 LINE SMOOTH",
"169 193 OFFCURVE",
"126 111 OFFCURVE",
"60 0 CURVE",
"209 0 LINE",
"688 969 LINE",
"688 181 OFFCURVE",
"688 60 OFFCURVE",
"677 0 CURVE",
"1261 0 LINE",
"1261 135 LINE",
"1201 123 OFFCURVE",
"1100 123 OFFCURVE",
"953 123 CURVE SMOOTH",
"830 123 LINE",
"830 513 LINE",
"1182 513 LINE"
);
}
);
width = 1351;
}
);
unicode = 00C6;
},
{
glyphname = Eth;
layers = (
{
layerId = UUID0;
paths = (
{
closed = 1;
nodes = (
"0 516 LINE",
"131 516 LINE",
"131 340 LINE SMOOTH",
"131 193 OFFCURVE",
"131 60 OFFCURVE",
"120 0 CURVE",
"120 0 OFFCURVE",
"349 -8 OFFCURVE",
"445 -8 CURVE SMOOTH",
"664 -8 OFFCURVE",
"983 108 OFFCURVE",
"983 554 CURVE SMOOTH",
"983 1042 OFFCURVE",
"620 1099 OFFCURVE",
"460 1099 CURVE SMOOTH",
"359 1099 OFFCURVE",
"183 1096 OFFCURVE",
"120 1092 CURVE",
"131 1033 OFFCURVE",
"131 895 OFFCURVE",
"131 748 CURVE SMOOTH",
"131 624 LINE",
"0 624 LINE"
);
},
{
closed = 1;
nodes = (
"311 978 OFFCURVE",
"392 979 OFFCURVE",
"441 979 CURVE SMOOTH",
"656 979 OFFCURVE",
"838 873 OFFCURVE",
"838 539 CURVE SMOOTH",
"838 231 OFFCURVE",
"638 116 OFFCURVE",
"438 116 CURVE SMOOTH",
"366 116 OFFCURVE",
"308 121 OFFCURVE",
"274 123 CURVE",
"274 516 LINE",
"558 516 LINE",
"558 624 LINE",
"274 624 LINE",
"274 977 LINE"
);
}
);
width = 1073;
},
{
layerId = "58C4FD73-E369-47FC-BB2E-BA826F97CEB5";
paths = (
{
closed = 1;
nodes = (
"0 516 LINE",
"131 516 LINE",
"131 340 LINE SMOOTH",
"131 193 OFFCURVE",
"131 60 OFFCURVE",
"120 0 CURVE",
"120 0 OFFCURVE",
"349 -8 OFFCURVE",
"445 -8 CURVE SMOOTH",
"664 -8 OFFCURVE",
"983 108 OFFCURVE",
"983 554 CURVE SMOOTH",
"983 1042 OFFCURVE",
"620 1099 OFFCURVE",
"460 1099 CURVE SMOOTH",
"359 1099 OFFCURVE",
"183 1096 OFFCURVE",
"120 1092 CURVE",
"131 1033 OFFCURVE",
"131 895 OFFCURVE",
"131 748 CURVE SMOOTH",
"131 624 LINE",
"0 624 LINE"
);
},
{
closed = 1;
nodes = (
"311 978 OFFCURVE",
"392 979 OFFCURVE",
"441 979 CURVE SMOOTH",
"656 979 OFFCURVE",
"838 873 OFFCURVE",
"838 539 CURVE SMOOTH",
"838 231 OFFCURVE",
"638 116 OFFCURVE",
"438 116 CURVE SMOOTH",
"366 116 OFFCURVE",
"308 121 OFFCURVE",
"274 123 CURVE",
"274 516 LINE",
"558 516 LINE",
"558 624 LINE",
"274 624 LINE",
"274 977 LINE"
);
}
);
width = 1073;
}
);
unicode = 00D0;
},
{
glyphname = multiply;
layers = (
{
layerId = UUID0;
paths = (
{
closed = 1;
nodes = (
"371 540 LINE",
"152 321 LINE",
"232 241 LINE",
"450 461 LINE",
"666 245 LINE",
"746 324 LINE",
"530 540 LINE",
"750 760 LINE",
"671 839 LINE",
"450 619 LINE",
"227 843 LINE",
"147 764 LINE"
);
}
);
width = 898;
},
{
layerId = "58C4FD73-E369-47FC-BB2E-BA826F97CEB5";
paths = (
{
closed = 1;
nodes = (
"371 540 LINE",
"152 321 LINE",
"232 241 LINE",
"450 461 LINE",
"666 245 LINE",
"746 324 LINE",
"530 540 LINE",
"750 760 LINE",
"671 839 LINE",
"450 619 LINE",
"227 843 LINE",
"147 764 LINE"
);
}
);
width = 898;
}
);
unicode = 00D7;
},
